<svg width="18" height="18" viewBox="0 0 18 18" fill="none" xmlns="http://www.w3.org/2000/svg">
<path d="M9.00033 0.666504C4.40533 0.666504 0.666992 4.40484 0.666992 8.99984C0.666992 13.5948 4.40533 17.3332 9.00033 17.3332C13.5953 17.3332 17.3337 13.5948 17.3337 8.99984C17.3337 4.40484 13.5953 0.666504 9.00033 0.666504ZM9.00033 2.33317C12.6762 2.33317 15.667 5.324 15.667 8.99984C15.667 12.6757 12.6762 15.6665 9.00033 15.6665C5.32449 15.6665 2.33366 12.6757 2.33366 8.99984C2.33366 5.324 5.32449 2.33317 9.00033 2.33317ZM8.16699 5.6665V8.1665H5.66699V9.83317H8.16699V12.3332H9.83366V9.83317H12.3337V8.1665H9.83366V5.6665H8.16699Z" fill="#808191"/>
</svg>
