<svg width="20" height="20" viewBox="0 0 20 20" fill="none" xmlns="http://www.w3.org/2000/svg">
<path d="M4.65365 5.99345C4.48045 5.99861 4.31606 6.071 4.19532 6.19528L0.920577 9.47002C0.839161 9.53206 0.773124 9.61202 0.727585 9.7037C0.682046 9.79538 0.658228 9.89631 0.657976 9.99867C0.657724 10.101 0.681046 10.2021 0.726133 10.294C0.771221 10.3859 0.836863 10.4662 0.917973 10.5286C0.919272 10.5295 0.920574 10.5304 0.921879 10.5312L4.19532 13.8047C4.25675 13.8686 4.33033 13.9197 4.41175 13.9549C4.49316 13.9901 4.58079 14.0087 4.66948 14.0096C4.75817 14.0105 4.84616 13.9937 4.92827 13.9602C5.01039 13.9266 5.085 13.8771 5.14771 13.8143C5.21043 13.7516 5.26001 13.677 5.29353 13.5949C5.32706 13.5128 5.34386 13.4248 5.34296 13.3361C5.34206 13.2474 5.32347 13.1598 5.28828 13.0784C5.25309 12.997 5.20201 12.9234 5.13803 12.8619L2.94271 10.6666H18.6667C18.755 10.6679 18.8427 10.6516 18.9247 10.6186C19.0067 10.5857 19.0813 10.5368 19.1442 10.4747C19.2071 10.4127 19.2571 10.3388 19.2912 10.2573C19.3253 10.1758 19.3428 10.0883 19.3428 9.99996C19.3428 9.91161 19.3253 9.82415 19.2912 9.74264C19.2571 9.66114 19.2071 9.58722 19.1442 9.52519C19.0813 9.46316 19.0067 9.41425 18.9247 9.38131C18.8427 9.34837 18.755 9.33205 18.6667 9.3333H2.94271L5.13803 7.13799C5.23436 7.04434 5.30016 6.92378 5.3268 6.7921C5.35344 6.66042 5.33968 6.52377 5.28731 6.40004C5.23495 6.27632 5.14644 6.1713 5.03336 6.09875C4.92029 6.02619 4.78794 5.98949 4.65365 5.99345Z" fill="#11142D"/>
</svg>
