<svg width="20" height="10" viewBox="0 0 20 10" fill="none" xmlns="http://www.w3.org/2000/svg">
<path d="M4.65365 0.993454C4.48045 0.998615 4.31606 1.071 4.19532 1.19528L0.920577 4.47002C0.839161 4.53206 0.773124 4.61202 0.727585 4.7037C0.682046 4.79538 0.658228 4.89631 0.657976 4.99867C0.657724 5.10103 0.681046 5.20208 0.726133 5.29398C0.771221 5.38588 0.836863 5.46616 0.917973 5.52861C0.919272 5.52948 0.920574 5.53035 0.921879 5.53121L4.19532 8.80465C4.25675 8.86863 4.33033 8.91972 4.41175 8.95491C4.49316 8.9901 4.58079 9.00869 4.66948 9.00959C4.75817 9.01049 4.84616 8.99369 4.92827 8.96016C5.01039 8.92664 5.085 8.87706 5.14771 8.81434C5.21043 8.75162 5.26001 8.67702 5.29353 8.5949C5.32706 8.51278 5.34386 8.4248 5.34296 8.33611C5.34206 8.24741 5.32347 8.15979 5.28828 8.07837C5.25309 7.99695 5.20201 7.92337 5.13802 7.86194L2.94271 5.66663H18.6667C18.755 5.66788 18.8427 5.65156 18.9247 5.61862C19.0067 5.58568 19.0813 5.53677 19.1442 5.47474C19.2071 5.41271 19.2571 5.33879 19.2912 5.25729C19.3253 5.17578 19.3428 5.08831 19.3428 4.99996C19.3428 4.91161 19.3253 4.82415 19.2912 4.74264C19.2571 4.66114 19.2071 4.58722 19.1442 4.52519C19.0813 4.46316 19.0067 4.41425 18.9247 4.38131C18.8427 4.34837 18.755 4.33205 18.6667 4.3333H2.94271L5.13802 2.13799C5.23436 2.04434 5.30016 1.92378 5.3268 1.7921C5.35344 1.66042 5.33968 1.52377 5.28731 1.40004C5.23495 1.27632 5.14644 1.1713 5.03336 1.09875C4.92029 1.02619 4.78794 0.989494 4.65365 0.993454Z" fill="#FF754C"/>
</svg>
