<svg width="20" height="20" viewBox="0 0 20 20" fill="none" xmlns="http://www.w3.org/2000/svg">
<path d="M5.20962 4.58397C4.97986 4.92862 5.07299 5.39427 5.41763 5.62404C5.76228 5.8538 6.22793 5.76067 6.4577 5.41603L5.20962 4.58397ZM7.00555 3.24217L7.62959 3.65819L7.62959 3.65819L7.00555 3.24217ZM12.9951 3.24217L13.6191 2.82614L12.9951 3.24217ZM13.543 5.41603C13.7727 5.76067 14.2384 5.8538 14.583 5.62404C14.9277 5.39427 15.0208 4.92862 14.791 4.58397L13.543 5.41603ZM11.7503 11.25C11.7503 12.2165 10.9668 13 10.0003 13V14.5C11.7953 14.5 13.2503 13.0449 13.2503 11.25H11.7503ZM10.0003 13C9.03383 13 8.25033 12.2165 8.25033 11.25H6.75033C6.75033 13.0449 8.2054 14.5 10.0003 14.5V13ZM8.25033 11.25C8.25033 10.2835 9.03383 9.5 10.0003 9.5V8C8.2054 8 6.75033 9.45507 6.75033 11.25H8.25033ZM10.0003 9.5C10.9668 9.5 11.7503 10.2835 11.7503 11.25H13.2503C13.2503 9.45507 11.7953 8 10.0003 8V9.5ZM6.4577 5.41603L7.62959 3.65819L6.38151 2.82614L5.20962 4.58397L6.4577 5.41603ZM8.3923 3.25H11.6084V1.75H8.3923V3.25ZM12.3711 3.65819L13.543 5.41603L14.791 4.58397L13.6191 2.82614L12.3711 3.65819ZM11.6084 3.25C11.9148 3.25 12.2011 3.40318 12.3711 3.65819L13.6191 2.82614C13.1709 2.15383 12.4164 1.75 11.6084 1.75V3.25ZM7.62959 3.65819C7.7996 3.40318 8.08581 3.25 8.3923 3.25V1.75C7.58428 1.75 6.82972 2.15383 6.38151 2.82614L7.62959 3.65819ZM5.00033 5.75H15.0003V4.25H5.00033V5.75ZM17.5837 8.33333V14.1667H19.0837V8.33333H17.5837ZM15.0003 16.75H5.00033V18.25H15.0003V16.75ZM2.41699 14.1667V8.33333H0.916992V14.1667H2.41699ZM5.00033 16.75C3.57359 16.75 2.41699 15.5934 2.41699 14.1667H0.916992C0.916992 16.4218 2.74516 18.25 5.00033 18.25V16.75ZM17.5837 14.1667C17.5837 15.5934 16.4271 16.75 15.0003 16.75V18.25C17.2555 18.25 19.0837 16.4218 19.0837 14.1667H17.5837ZM15.0003 5.75C16.4271 5.75 17.5837 6.9066 17.5837 8.33333H19.0837C19.0837 6.07817 17.2555 4.25 15.0003 4.25V5.75ZM5.00033 4.25C2.74516 4.25 0.916992 6.07817 0.916992 8.33333H2.41699C2.41699 6.9066 3.57359 5.75 5.00033 5.75V4.25Z" fill="white"/>
</svg>
