<svg width="160" height="160" viewBox="0 0 160 160" fill="none" xmlns="http://www.w3.org/2000/svg">
<path d="M114.894 127.2H30.5066C23.7381 127.2 18.2002 121.662 18.2002 114.894V30.5066C18.2002 23.7381 23.7381 18.2002 30.5066 18.2002H114.894C121.662 18.2002 127.2 23.7381 127.2 30.5066V114.894C127.2 121.662 121.662 127.2 114.894 127.2Z" fill="#D1E5FF"/>
<path d="M127.2 37.2002V30.2911C127.2 23.6411 121.662 18.2002 114.894 18.2002H30.5066C23.7381 18.2002 18.2002 23.6411 18.2002 30.2911V37.2002H127.2Z" fill="#A0D7E7"/>
<path d="M18.2002 113.2V114.95C18.2002 121.688 23.7381 127.2 30.5066 127.2H114.894C121.662 127.2 127.2 121.688 127.2 114.95V113.2H18.2002Z" fill="#A0D7E7"/>
<path d="M115.7 141.2C129.783 141.2 141.2 129.783 141.2 115.7C141.2 101.617 129.783 90.2002 115.7 90.2002C101.617 90.2002 90.2002 101.617 90.2002 115.7C90.2002 129.783 101.617 141.2 115.7 141.2Z" fill="#FF754C"/>
<path d="M34.5495 58.3999C34.3163 58.3999 34.0902 58.3081 33.9241 58.142L28.6241 52.842C28.2796 52.4975 28.2796 51.9375 28.6241 51.593C28.9686 51.2485 29.5286 51.2485 29.8731 51.593L34.4894 56.2093L42.7027 46.3513C43.0171 45.9785 43.5719 45.9273 43.9482 46.2382C44.3227 46.5509 44.3739 47.1074 44.0612 47.4837L35.2279 58.0837C35.0689 58.2745 34.8375 58.3893 34.5884 58.3999C34.576 58.3999 34.5619 58.3999 34.5495 58.3999Z" fill="#1B1D21"/>
<path d="M99.917 53.1002H46.917C46.4294 53.1002 46.0337 52.7044 46.0337 52.2168C46.0337 51.7292 46.4294 51.3335 46.917 51.3335H99.917C100.405 51.3335 100.8 51.7292 100.8 52.2168C100.8 52.7044 100.405 53.1002 99.917 53.1002Z" fill="#1B1D21"/>
<path d="M115.817 53.1002H105.217C104.729 53.1002 104.333 52.7044 104.333 52.2168C104.333 51.7292 104.729 51.3335 105.217 51.3335H115.817C116.304 51.3335 116.7 51.7292 116.7 52.2168C116.7 52.7044 116.304 53.1002 115.817 53.1002Z" fill="#1B1D21"/>
<path d="M34.5495 79.6C34.3163 79.6 34.0902 79.5081 33.9241 79.3421L28.6241 74.0421C28.2796 73.6976 28.2796 73.1375 28.6241 72.793C28.9686 72.4485 29.5286 72.4485 29.8731 72.793L34.4894 77.4093L42.7027 67.5513C43.0171 67.1768 43.5719 67.1256 43.9482 67.4383C44.3227 67.751 44.3739 68.3074 44.0612 68.6837L35.2279 79.2837C35.0689 79.4745 34.8375 79.5894 34.5884 79.6C34.576 79.6 34.5619 79.6 34.5495 79.6Z" fill="#1B1D21"/>
<path d="M82.2504 74.2999H46.917C46.4294 74.2999 46.0337 73.9041 46.0337 73.4165C46.0337 72.9289 46.4294 72.5332 46.917 72.5332H82.2504C82.738 72.5332 83.1337 72.9289 83.1337 73.4165C83.1337 73.9041 82.738 74.2999 82.2504 74.2999Z" fill="#1B1D21"/>
<path d="M96.3832 74.2999H87.5498C87.0622 74.2999 86.6665 73.9041 86.6665 73.4165C86.6665 72.9289 87.0622 72.5332 87.5498 72.5332H96.3832C96.8708 72.5332 97.2665 72.9289 97.2665 73.4165C97.2665 73.9041 96.8708 74.2999 96.3832 74.2999Z" fill="#1B1D21"/>
<path d="M115.816 74.2999H101.683C101.196 74.2999 100.8 73.9041 100.8 73.4165C100.8 72.9289 101.196 72.5332 101.683 72.5332H115.816C116.304 72.5332 116.7 72.9289 116.7 73.4165C116.7 73.9041 116.304 74.2999 115.816 74.2999Z" fill="#1B1D21"/>
<path d="M34.5495 100.8C34.3163 100.8 34.0902 100.708 33.9241 100.542L28.6241 95.242C28.2796 94.8975 28.2796 94.3375 28.6241 93.993C28.9686 93.6485 29.5286 93.6485 29.8731 93.993L34.4894 98.6093L42.7027 88.7513C43.0171 88.3767 43.5719 88.3273 43.9482 88.6382C44.3227 88.9509 44.3739 89.5074 44.0612 89.8837L35.2279 100.484C35.0689 100.675 34.8375 100.789 34.5884 100.8C34.576 100.8 34.5619 100.8 34.5495 100.8Z" fill="#1B1D21"/>
<path d="M91.0837 95.5001H46.917C46.4294 95.5001 46.0337 95.1043 46.0337 94.6167C46.0337 94.1291 46.4294 93.7334 46.917 93.7334H91.0837C91.5713 93.7334 91.967 94.1291 91.967 94.6167C91.967 95.1043 91.5713 95.5001 91.0837 95.5001Z" fill="#1B1D21"/>
<path d="M87.55 37.2003H17.7666C17.279 37.2003 16.8833 36.8045 16.8833 36.3169C16.8833 35.8293 17.279 35.4336 17.7666 35.4336H87.55C88.0376 35.4336 88.4333 35.8293 88.4333 36.3169C88.4333 36.8045 88.0376 37.2003 87.55 37.2003Z" fill="#1B1D21"/>
<path d="M103.45 37.2003H92.8496C92.362 37.2003 91.9663 36.8045 91.9663 36.3169C91.9663 35.8293 92.362 35.4336 92.8496 35.4336H103.45C103.937 35.4336 104.333 35.8293 104.333 36.3169C104.333 36.8045 103.937 37.2003 103.45 37.2003Z" fill="#1B1D21"/>
<path d="M127.3 37.2003H112.284C111.796 37.2003 111.4 36.8045 111.4 36.3169C111.4 35.8293 111.796 35.4336 112.284 35.4336H127.3C127.788 35.4336 128.184 35.8293 128.184 36.3169C128.184 36.8045 127.788 37.2003 127.3 37.2003Z" fill="#1B1D21"/>
<path d="M92.9171 129.067H30.1333C22.3406 129.067 16 122.726 16 114.933V30.1333C16 22.3406 22.3406 16 30.1333 16H114.933C122.726 16 129.067 22.3406 129.067 30.1333V92.9189C129.067 93.8941 128.275 94.6856 127.3 94.6856C126.325 94.6856 125.533 93.8941 125.533 92.9189V30.1333C125.533 24.2874 120.779 19.5333 114.933 19.5333H30.1333C24.2874 19.5333 19.5333 24.2874 19.5333 30.1333V114.933C19.5333 120.779 24.2874 125.533 30.1333 125.533H92.9171C93.8923 125.533 94.6838 126.325 94.6838 127.3C94.6838 128.275 93.8923 129.067 92.9171 129.067Z" fill="#1B1D21"/>
<path d="M34.55 114.933H17.7666C17.279 114.933 16.8833 114.537 16.8833 114.05C16.8833 113.562 17.279 113.167 17.7666 113.167H34.55C35.0376 113.167 35.4333 113.562 35.4333 114.05C35.4333 114.537 35.0376 114.933 34.55 114.933Z" fill="#1B1D21"/>
<path d="M90.2438 114.933H39.8496C39.362 114.933 38.9663 114.537 38.9663 114.05C38.9663 113.562 39.362 113.167 39.8496 113.167H90.2438C90.7314 113.167 91.1271 113.562 91.1271 114.05C91.1271 114.537 90.7332 114.933 90.2438 114.933Z" fill="#1B1D21"/>
<path d="M115.816 143.2C100.717 143.2 88.4331 130.917 88.4331 115.817C88.4331 100.717 100.717 88.4336 115.816 88.4336C130.916 88.4336 143.2 100.717 143.2 115.817C143.2 130.917 130.916 143.2 115.816 143.2ZM115.816 91.9669C102.665 91.9669 91.9664 102.666 91.9664 115.817C91.9664 128.968 102.665 139.667 115.816 139.667C128.968 139.667 139.666 128.968 139.666 115.817C139.666 102.666 128.968 91.9669 115.816 91.9669Z" fill="#1B1D21"/>
<path d="M105.823 126.694C105.597 126.694 105.371 126.608 105.198 126.436C104.853 126.092 104.853 125.532 105.198 125.187L125.186 105.199C125.53 104.855 126.09 104.855 126.435 105.199C126.779 105.544 126.779 106.104 126.435 106.448L106.447 126.436C106.275 126.608 106.049 126.694 105.823 126.694Z" fill="#1B1D21"/>
<path d="M125.811 126.694C125.585 126.694 125.359 126.608 125.186 126.436L105.198 106.446C104.853 106.102 104.853 105.542 105.198 105.197C105.542 104.853 106.102 104.853 106.447 105.197L126.435 125.185C126.779 125.53 126.779 126.09 126.435 126.434C126.264 126.608 126.037 126.694 125.811 126.694Z" fill="#1B1D21"/>
</svg>
