<svg width="19" height="19" viewBox="0 0 19 19" fill="none" xmlns="http://www.w3.org/2000/svg">
<path fill-rule="evenodd" clip-rule="evenodd" d="M9.5 18.25C14.3325 18.25 18.25 14.3325 18.25 9.5C18.25 4.66751 14.3325 0.75 9.5 0.75C4.66751 0.75 0.75 4.66751 0.75 9.5C0.75 14.3325 4.66751 18.25 9.5 18.25ZM13.518 7.27793C13.7405 6.99184 13.689 6.57953 13.4029 6.35702C13.1168 6.1345 12.7045 6.18604 12.482 6.47213L8.97587 10.98C8.8979 11.0802 8.75125 11.0933 8.65686 11.0083L6.43901 9.01224C6.16962 8.76979 5.75468 8.79163 5.51222 9.06102C5.26976 9.33042 5.2916 9.74536 5.561 9.98782L7.77884 11.9839C8.43958 12.5785 9.46614 12.4875 10.0119 11.7858L13.518 7.27793Z" fill="white"/>
</svg>
