<svg width="48" height="48" viewBox="0 0 48 48" fill="none" xmlns="http://www.w3.org/2000/svg">
<circle cx="24" cy="24" r="24" fill="#0049C6"/>
<path d="M36.9031 26.7906V29.1196L33.261 32.5232L24.0293 23.3738V16.7198L30.4667 13.9636V20.4116L36.9031 26.7906Z" fill="#A0D7E7"/>
<path d="M33.2614 32.5232L28.451 36.9863L17.5801 26.2122V13.9636L24.0298 16.7198V23.3738L33.2614 32.5232Z" fill="#A0D7E7"/>
<path d="M28.4468 36.9863L25.0771 40.1322C24.4857 40.6838 23.5633 40.6838 22.9719 40.1322L11.1426 29.1196V13.5222C11.1432 13.01 11.4037 12.5326 11.8357 12.2516C12.2677 11.9706 12.8133 11.9237 13.2877 12.1268L17.58 13.9636V26.2122L28.4468 36.9863Z" fill="#3F8CFF"/>
<path d="M36.9032 13.5222V26.7906L30.4668 20.4116V13.9636L34.758 12.1268C35.2324 11.9237 35.778 11.9706 36.21 12.2516C36.642 12.5326 36.9025 13.01 36.9032 13.5222Z" fill="#3F8CFF"/>
</svg>
