<svg width="42" height="42" viewBox="0 0 42 42" fill="none" xmlns="http://www.w3.org/2000/svg">
<path d="M37.7344 7.875H4.26562C2.87612 7.875 1.75 9.00112 1.75 10.3906V31.6094C1.75 32.9989 2.87612 34.125 4.26562 34.125H37.7344C39.1239 34.125 40.25 32.9989 40.25 31.6094V10.3906C40.25 9.00112 39.1239 7.875 37.7344 7.875Z" fill="url(#paint0_linear_418_46239)"/>
<path d="M9.625 21C9.625 21.483 9.233 21.875 8.75 21.875H5.25C4.767 21.875 4.375 21.483 4.375 21C4.375 20.517 4.767 20.125 5.25 20.125H8.75C9.233 20.125 9.625 20.517 9.625 21Z" fill="url(#paint1_linear_418_46239)"/>
<path d="M16.625 21C16.625 21.483 16.233 21.875 15.75 21.875H12.25C11.767 21.875 11.375 21.483 11.375 21C11.375 20.517 11.767 20.125 12.25 20.125H15.75C16.233 20.125 16.625 20.517 16.625 21Z" fill="url(#paint2_linear_418_46239)"/>
<path d="M23.625 21C23.625 21.483 23.233 21.875 22.75 21.875H19.25C18.767 21.875 18.375 21.483 18.375 21C18.375 20.517 18.767 20.125 19.25 20.125H22.75C23.233 20.125 23.625 20.517 23.625 21Z" fill="url(#paint3_linear_418_46239)"/>
<path d="M30.625 21C30.625 21.483 30.233 21.875 29.75 21.875H26.25C25.767 21.875 25.375 21.483 25.375 21C25.375 20.517 25.767 20.125 26.25 20.125H29.75C30.233 20.125 30.625 20.517 30.625 21Z" fill="url(#paint4_linear_418_46239)"/>
<path d="M37.625 21C37.625 21.483 37.233 21.875 36.75 21.875H33.25C32.767 21.875 32.375 21.483 32.375 21C32.375 20.517 32.767 20.125 33.25 20.125H36.75C37.233 20.125 37.625 20.517 37.625 21Z" fill="url(#paint5_linear_418_46239)"/>
<path d="M31.5114 17.5H36.7386C37.2277 17.5 37.625 17.1027 37.625 16.6136V12.2614C37.625 11.7722 37.2277 11.375 36.7386 11.375H31.5114C31.0223 11.375 30.625 11.7722 30.625 12.2614V16.6136C30.625 17.1027 31.0223 17.5 31.5114 17.5Z" fill="#BBD2DE"/>
<path d="M11.8125 27.125H4.8125C4.571 27.125 4.375 26.929 4.375 26.6875V25.8125C4.375 25.571 4.571 25.375 4.8125 25.375H11.8125C12.054 25.375 12.25 25.571 12.25 25.8125V26.6875C12.25 26.929 12.054 27.125 11.8125 27.125Z" fill="#0078D4"/>
<path d="M21.4375 27.125H14.4375C14.196 27.125 14 26.929 14 26.6875V25.8125C14 25.571 14.196 25.375 14.4375 25.375H21.4375C21.679 25.375 21.875 25.571 21.875 25.8125V26.6875C21.875 26.929 21.679 27.125 21.4375 27.125Z" fill="#0078D4"/>
<path d="M17.0625 30.625H4.8125C4.571 30.625 4.375 30.429 4.375 30.1875V29.3125C4.375 29.071 4.571 28.875 4.8125 28.875H17.0625C17.304 28.875 17.5 29.071 17.5 29.3125V30.1875C17.5 30.429 17.304 30.625 17.0625 30.625Z" fill="#0078D4"/>
<defs>
<linearGradient id="paint0_linear_418_46239" x1="17.8281" y1="9.67838" x2="25.1545" y2="35.8277" gradientUnits="userSpaceOnUse">
<stop stop-color="#32BDEF"/>
<stop offset="1" stop-color="#1EA2E4"/>
</linearGradient>
<linearGradient id="paint1_linear_418_46239" x1="4.64975" y1="21.9704" x2="8.69837" y2="20.2991" gradientUnits="userSpaceOnUse">
<stop stop-color="#5BC8EF"/>
<stop offset="1" stop-color="#42BEFC"/>
</linearGradient>
<linearGradient id="paint2_linear_418_46239" x1="11.6497" y1="21.9704" x2="15.6984" y2="20.2991" gradientUnits="userSpaceOnUse">
<stop stop-color="#5BC8EF"/>
<stop offset="1" stop-color="#42BEFC"/>
</linearGradient>
<linearGradient id="paint3_linear_418_46239" x1="18.6497" y1="21.9704" x2="22.6984" y2="20.2991" gradientUnits="userSpaceOnUse">
<stop stop-color="#5BC8EF"/>
<stop offset="1" stop-color="#42BEFC"/>
</linearGradient>
<linearGradient id="paint4_linear_418_46239" x1="25.6497" y1="21.9704" x2="29.6984" y2="20.2991" gradientUnits="userSpaceOnUse">
<stop stop-color="#5BC8EF"/>
<stop offset="1" stop-color="#42BEFC"/>
</linearGradient>
<linearGradient id="paint5_linear_418_46239" x1="32.6497" y1="21.9704" x2="36.6984" y2="20.2991" gradientUnits="userSpaceOnUse">
<stop stop-color="#5BC8EF"/>
<stop offset="1" stop-color="#42BEFC"/>
</linearGradient>
</defs>
</svg>
