<svg width="10" height="20" viewBox="0 0 10 20" fill="none" xmlns="http://www.w3.org/2000/svg">
<path fill-rule="evenodd" clip-rule="evenodd" d="M5 0C5.41421 0 5.75 0.335786 5.75 0.75V2.06597C7.73951 2.4202 9.25 4.1587 9.25 6.25C9.25 6.66421 8.91421 7 8.5 7C8.08579 7 7.75 6.66421 7.75 6.25C7.75 4.99122 6.90425 3.92998 5.75 3.60352V9.06597C7.73951 9.4202 9.25 11.1587 9.25 13.25C9.25 15.3413 7.73951 17.0798 5.75 17.434V18.75C5.75 19.1642 5.41421 19.5 5 19.5C4.58579 19.5 4.25 19.1642 4.25 18.75V17.434C2.26049 17.0798 0.75 15.3413 0.75 13.25C0.75 12.8358 1.08579 12.5 1.5 12.5C1.91421 12.5 2.25 12.8358 2.25 13.25C2.25 14.5088 3.09575 15.57 4.25 15.8965V10.434C2.26049 10.0798 0.75 8.3413 0.75 6.25C0.75 4.1587 2.26049 2.4202 4.25 2.06597V0.75C4.25 0.335786 4.58579 0 5 0ZM4.25 3.60352C3.09575 3.92998 2.25 4.99122 2.25 6.25C2.25 7.50878 3.09575 8.57002 4.25 8.89648V3.60352ZM5.75 10.6035V15.8965C6.90425 15.57 7.75 14.5088 7.75 13.25C7.75 11.9912 6.90425 10.93 5.75 10.6035Z" fill="#808191"/>
</svg>
