<svg width="24" height="24" viewBox="0 0 24 24" fill="none" xmlns="http://www.w3.org/2000/svg">
<path fill-rule="evenodd" clip-rule="evenodd" d="M13 5C13 3.89543 13.8954 3 15 3H20C21.1046 3 22 3.89543 22 5V10C22 11.1046 21.1046 12 20 12H15C13.8954 12 13 11.1046 13 10V5ZM19.25 6C19.25 6.41421 18.9142 6.75 18.5 6.75H16.5C16.0858 6.75 15.75 6.41421 15.75 6C15.75 5.58579 16.0858 5.25 16.5 5.25H18.5C18.9142 5.25 19.25 5.58579 19.25 6ZM2 9H4L10.2622 11.7397C11.2241 12.1605 11.6664 13.2784 11.2528 14.2434C11.19 14.3899 11.1111 14.5245 11.0191 14.646L13.7331 16.3666C14.5663 16.7831 15.4849 17 16.4164 17H18C19.1046 17 20 17.8954 20 19C20 20.1046 19.1046 21 18 21H9.88854C8.64658 21 7.42168 20.7108 6.31083 20.1554L2 18V9Z" fill="white"/>
</svg>
