<svg width="160" height="160" viewBox="0 0 160 160" fill="none" xmlns="http://www.w3.org/2000/svg">
<path d="M107.2 139.2V120C107.186 120.058 115.106 117.184 115.2 108.8C115.523 80.1264 115.2 42.0896 115.2 40.8C115.2 36.824 111.976 33.6 108 33.6C104.024 33.6 100.8 36.824 100.8 40.8C100.8 36.384 100.8 33.2784 100.8 32.8C100.8 28.824 97.576 25.6 93.6 25.6C89.624 25.6 86.4 28.824 86.4 32.8C86.4 30.1344 86.4 28.352 86.4 28C86.4 24.024 83.176 20.8 79.2 20.8C75.224 20.8 72 24.024 72 28C72 28.592 72 30.32 72 32.8C72 28.824 68.776 25.6 64.8 25.6C60.824 25.6 57.6 28.824 57.6 32.8C57.6 36.776 57.6 91.2 57.6 91.2L62.4 123.2V139.2H107.2Z" fill="#FAE4B6"/>
<path d="M108 32C105.875 32 103.922 32.7568 102.4 34.016V32.8C102.4 27.9472 98.4512 24 93.6 24C91.3856 24 89.36 24.8224 87.8112 26.1776C86.968 22.1968 83.4288 19.2 79.2 19.2C74.9712 19.2 71.432 22.1968 70.5888 26.1776C69.04 24.8224 67.0144 24 64.8 24C59.9488 24 56 27.9472 56 32.8V91.2L60.8 121.726V139.2C60.8 140.083 61.5152 140.8 62.4 140.8C63.2848 140.8 64 140.083 64 139.2V121.6L59.2 91.0736V32.8C59.2 29.712 61.712 27.2 64.8 27.2C67.888 27.2 70.4 29.712 70.4 32.8H73.6V28C73.6 24.912 76.112 22.4 79.2 22.4C82.288 22.4 84.8 24.912 84.8 28V32.8H88C88 29.712 90.512 27.2 93.6 27.2C96.688 27.2 99.2 29.712 99.2 32.8V40.8H102.4C102.4 37.712 104.912 35.2 108 35.2C111.088 35.2 113.6 37.712 113.6 40.8V112C113.6 115.53 110.73 118.4 107.2 118.4C106.315 118.4 105.6 119.117 105.6 120V139.2C105.6 140.083 106.315 140.8 107.2 140.8C108.085 140.8 108.8 140.083 108.8 139.2V121.456C113.333 120.691 116.8 116.749 116.8 112V40.8C116.8 35.9472 112.851 32 108 32Z" fill="#1B1D21"/>
<path d="M86.4 43.2C85.5152 43.2 84.8 42.4832 84.8 41.6V32C84.8 31.1168 85.5152 30.4 86.4 30.4C87.2848 30.4 88 31.1168 88 32V41.6C88 42.4832 87.2848 43.2 86.4 43.2Z" fill="#1B1D21"/>
<path d="M72 43.2C71.1152 43.2 70.4 42.4832 70.4 41.6V32C70.4 31.1168 71.1152 30.4 72 30.4C72.8848 30.4 73.6 31.1168 73.6 32V41.6C73.6 42.4832 72.8848 43.2 72 43.2Z" fill="#1B1D21"/>
<path d="M108 120H96.8C96.3584 120 96 119.642 96 119.2C96 118.758 96.3584 118.4 96.8 118.4H108C108.442 118.4 108.8 118.758 108.8 119.2C108.8 119.642 108.442 120 108 120Z" fill="#1B1D21"/>
<path d="M93.6 120H92C91.5584 120 91.2 119.642 91.2 119.2C91.2 118.758 91.5584 118.4 92 118.4H93.6C94.0416 118.4 94.4 118.758 94.4 119.2C94.4 119.642 94.0416 120 93.6 120Z" fill="#1B1D21"/>
<path d="M132.8 99.2H27.2C23.6656 99.2 20.8 96.3344 20.8 92.8V48C20.8 44.4656 23.6656 41.6 27.2 41.6H132.8C136.334 41.6 139.2 44.4656 139.2 48V92.8C139.2 96.3344 136.334 99.2 132.8 99.2Z" fill="#A1D3A2"/>
<path d="M122.4 50.4H116.8V49.6H100.8V50.4H37.6C37.6 54.8176 34.0176 58.4 29.6 58.4V82.4C34.0176 82.4 37.6 85.9824 37.6 90.4H122.4C122.4 85.9824 125.982 82.4 130.4 82.4V58.4C125.982 58.4 122.4 54.8176 122.4 50.4Z" fill="#60BE92"/>
<path d="M113.6 74.4C115.809 74.4 117.6 72.6092 117.6 70.4C117.6 68.1909 115.809 66.4 113.6 66.4C111.391 66.4 109.6 68.1909 109.6 70.4C109.6 72.6092 111.391 74.4 113.6 74.4Z" fill="#A1D3A2"/>
<path d="M80 84C87.5111 84 93.6 77.9111 93.6 70.4C93.6 62.8889 87.5111 56.8 80 56.8C72.489 56.8 66.4 62.8889 66.4 70.4C66.4 77.9111 72.489 84 80 84Z" fill="#A1D3A2"/>
<path d="M132.8 100.8H27.2C22.7888 100.8 19.2 97.2112 19.2 92.8V48C19.2 43.5888 22.7888 40 27.2 40H132.8C137.211 40 140.8 43.5888 140.8 48V92.8C140.8 97.2112 137.211 100.8 132.8 100.8ZM27.2 43.2C24.5536 43.2 22.4 45.3536 22.4 48V92.8C22.4 95.4464 24.5536 97.6 27.2 97.6H132.8C135.446 97.6 137.6 95.4464 137.6 92.8V48C137.6 45.3536 135.446 43.2 132.8 43.2H27.2Z" fill="#1B1D21"/>
<path d="M80 84.8C72.0592 84.8 65.6 78.3392 65.6 70.4C65.6 62.4608 72.0592 56 80 56C87.9408 56 94.4 62.4608 94.4 70.4C94.4 78.3392 87.9408 84.8 80 84.8ZM80 57.6C72.9424 57.6 67.2 63.3424 67.2 70.4C67.2 77.4576 72.9424 83.2 80 83.2C87.0576 83.2 92.8 77.4576 92.8 70.4C92.8 63.3424 87.0576 57.6 80 57.6Z" fill="#1B1D21"/>
<path d="M113.6 75.2C110.954 75.2 108.8 73.0464 108.8 70.4C108.8 67.7536 110.954 65.6 113.6 65.6C116.246 65.6 118.4 67.7536 118.4 70.4C118.4 73.0464 116.246 75.2 113.6 75.2ZM113.6 67.2C111.835 67.2 110.4 68.6352 110.4 70.4C110.4 72.1648 111.835 73.6 113.6 73.6C115.365 73.6 116.8 72.1648 116.8 70.4C116.8 68.6352 115.365 67.2 113.6 67.2Z" fill="#1B1D21"/>
<path d="M122.4 91.2H37.6C37.1584 91.2 36.8 90.8416 36.8 90.4C36.8 86.4304 33.5696 83.2 29.6 83.2C29.1584 83.2 28.8 82.8416 28.8 82.4V58.4C28.8 57.9584 29.1584 57.6 29.6 57.6C33.5696 57.6 36.8 54.3696 36.8 50.4C36.8 49.9584 37.1584 49.6 37.6 49.6H101.6C102.042 49.6 102.4 49.9584 102.4 50.4C102.4 50.8416 102.042 51.2 101.6 51.2H38.3649C37.984 55.416 34.616 58.7824 30.4 59.1648V81.6368C34.616 82.0176 37.9824 85.3856 38.3649 89.6016H121.637C122.018 85.3856 125.386 82.0192 129.602 81.6368V59.1648C125.386 58.784 122.019 55.416 121.637 51.2H116C115.558 51.2 115.2 50.8416 115.2 50.4C115.2 49.9584 115.558 49.6 116 49.6H122.4C122.842 49.6 123.2 49.9584 123.2 50.4C123.2 54.3696 126.43 57.6 130.4 57.6C130.842 57.6 131.2 57.9584 131.2 58.4V82.4C131.2 82.8416 130.842 83.2 130.4 83.2C126.43 83.2 123.2 86.4304 123.2 90.4C123.2 90.8416 122.842 91.2 122.4 91.2Z" fill="#1B1D21"/>
<path d="M106.4 51.2H104.8C104.358 51.2 104 50.8416 104 50.4C104 49.9584 104.358 49.6 104.8 49.6H106.4C106.842 49.6 107.2 49.9584 107.2 50.4C107.2 50.8416 106.842 51.2 106.4 51.2Z" fill="#1B1D21"/>
<path d="M75.2 99.2C75.2 99.2 54.2672 71.3856 53.4 70.4C51.6816 68.448 48.5216 67.2 44.8 67.2C43.2 67.2 38.5392 69.2 38.5392 72.8C38.5392 73.368 38.6688 73.9264 38.9392 74.4L62.4 121.6H64L75.2 100.8V99.2Z" fill="#FAE4B6"/>
<path d="M62.4016 123.2C61.8128 123.2 61.2464 122.875 60.968 122.312L37.5072 75.112C37.2 74.5744 36.8 73.7488 36.8 72.8C36.8 69.3952 40.4976 65.6 45.8 65.6C50.5296 65.6 53.6336 67.28 57.2496 71.8C58.0704 72.8256 74.6128 95.6608 76.4944 98.2608C77.0128 98.976 76.8544 99.976 76.1376 100.494C75.4208 101.013 74.4208 100.853 73.904 100.136C66.5248 89.9488 55.3345 74.528 54.7505 73.7984C51.7233 70.0144 49.5488 68.8 45.8 68.8C42.2592 68.8 40 71.168 40 72.8C40 72.904 40.0577 73.128 40.3312 73.6112L63.8321 120.888C64.2257 121.68 63.9024 122.64 63.112 123.034C62.8832 123.146 62.64 123.2 62.4016 123.2Z" fill="#1B1D21"/>
<rect x="141.729" y="13.5179" width="6" height="182" rx="3" transform="rotate(45 141.729 13.5179)" fill="#1B1D21" stroke="white" stroke-width="2"/>
</svg>
