<svg width="160" height="160" viewBox="0 0 160 160" fill="none" xmlns="http://www.w3.org/2000/svg">
<path d="M99.2004 120H27.2004C20.1316 120 14.4004 114.269 14.4004 107.2V52.8C14.4004 45.7312 20.1316 40 27.2004 40H99.2004C106.269 40 112 45.7312 112 52.8V107.2C112 114.269 106.269 120 99.2004 120Z" fill="#A0D7E7"/>
<path d="M112 62.4L134.246 44.6032C135.382 43.6944 136.792 43.2 138.245 43.2H145.6V116.8H138.245C136.792 116.8 135.381 116.306 134.246 115.397L112 97.6" fill="#A0D7E7"/>
<path d="M136 43.6177C135.373 43.8529 134.778 44.1777 134.246 44.6017L112 62.4001V97.6001L134.246 115.398C134.778 115.822 135.373 116.147 136 116.382V43.6177Z" fill="#D1E5FF"/>
<path d="M99.2008 121.6H27.2008C19.26 121.6 12.8008 115.141 12.8008 107.2V52.7999C12.8008 44.8591 19.26 38.3999 27.2008 38.3999H99.2008C107.142 38.3999 113.601 44.8591 113.601 52.7999V107.2C113.601 115.141 107.142 121.6 99.2008 121.6ZM27.2008 41.5999C21.0264 41.5999 16.0008 46.6255 16.0008 52.7999V107.2C16.0008 113.374 21.0264 118.4 27.2008 118.4H99.2008C105.375 118.4 110.401 113.374 110.401 107.2V52.7999C110.401 46.6255 105.375 41.5999 99.2008 41.5999H27.2008Z" fill="#1B1D21"/>
<path d="M23.2004 105.6C22.7588 105.6 22.4004 105.242 22.4004 104.8V74.4001C22.4004 73.9585 22.7588 73.6001 23.2004 73.6001C23.642 73.6001 24.0004 73.9585 24.0004 74.4001V104.8C24.0004 105.242 23.642 105.6 23.2004 105.6Z" fill="#1B1D21"/>
<path d="M145.6 118.4H138.245C136.435 118.4 134.661 117.776 133.246 116.646L111 98.8497L113 96.3489L135.246 114.146C136.096 114.827 137.16 115.2 138.245 115.2H144V44.8001H138.245C137.158 44.8001 136.094 45.1729 135.246 45.8529L113 63.6497L111 61.1489L133.246 43.3521C134.661 42.2241 136.435 41.6001 138.245 41.6001H145.6C146.485 41.6001 147.2 42.3153 147.2 43.2001V116.8C147.2 117.685 146.485 118.4 145.6 118.4Z" fill="#1B1D21"/>
<path d="M136.8 117.6C136.358 117.6 136 117.242 136 116.8V64.8C136 64.3584 136.358 64 136.8 64C137.242 64 137.6 64.3584 137.6 64.8V116.8C137.6 117.242 137.242 117.6 136.8 117.6Z" fill="#1B1D21"/>
<path d="M136.8 52.8C136.358 52.8 136 52.4416 136 52V44C136 43.5584 136.358 43.2 136.8 43.2C137.242 43.2 137.6 43.5584 137.6 44V52C137.6 52.4416 137.242 52.8 136.8 52.8Z" fill="#1B1D21"/>
<path d="M136.8 60.8C136.358 60.8 136 60.4416 136 60V56.8C136 56.3584 136.358 56 136.8 56C137.242 56 137.6 56.3584 137.6 56.8V60C137.6 60.4416 137.242 60.8 136.8 60.8Z" fill="#1B1D21"/>
<path d="M23.2004 70.3999C22.7588 70.3999 22.4004 70.0415 22.4004 69.5999V63.1999C22.4004 62.7583 22.7588 62.3999 23.2004 62.3999C23.642 62.3999 24.0004 62.7583 24.0004 63.1999V69.5999C24.0004 70.0415 23.642 70.3999 23.2004 70.3999Z" fill="#1B1D21"/>
<path d="M23.2004 57.5999C22.7588 57.5999 22.4004 57.2415 22.4004 56.7999V55.1999C22.4004 54.7583 22.7588 54.3999 23.2004 54.3999C23.642 54.3999 24.0004 54.7583 24.0004 55.1999V56.7999C24.0004 57.2415 23.642 57.5999 23.2004 57.5999Z" fill="#1B1D21"/>
<path d="M150.4 152C149.991 152 149.581 151.843 149.269 151.531L8.4692 10.7311C7.8436 10.1055 7.8436 9.09431 8.4692 8.46871C9.0948 7.84311 10.106 7.84311 10.7316 8.46871L151.532 149.269C152.157 149.894 152.157 150.906 151.532 151.531C151.22 151.843 150.81 152 150.4 152Z" fill="#1B1D21"/>
</svg>
