<svg width="212" height="60" viewBox="0 0 212 60" fill="none" xmlns="http://www.w3.org/2000/svg">
<path fill-rule="evenodd" clip-rule="evenodd" d="M6.95842 37.8118V16.8052L11.6849 13.9168L12.7352 14.442L29.8027 4.72665L46.8702 14.442L47.9206 13.9168L52.647 16.8052V37.8118L59.6055 33.7418V25.8643L54.6164 23.1072V15.4923L48.577 12.2101V10.6346L29.803 0.000350045V0L29.8027 0.000175023L29.8024 0V0.000350045L11.0284 10.6346V12.2101L4.98906 15.4923V23.1072L0 25.8643V33.7418L6.95842 37.8118Z" fill="#FF754C"/>
<path fill-rule="evenodd" clip-rule="evenodd" d="M10.6328 18.9059L29.8003 8.00937V8.00879L29.8008 8.00908L29.8013 8.00879V8.00937L48.9688 18.9059V40.8315L41.2226 45.2954V53.5668L37.6777 55.7987V47.1335L36.1022 48.1838V56.5865L32.9513 58.5558V49.8906L31.3758 51.0722V59.081L29.8013 59.9994V60L29.8008 59.9997L29.8003 60V59.9994L28.2258 59.081V51.0722L26.6503 49.8906V58.5558L23.4993 56.5865V48.1838L21.9238 47.1335V55.7987L18.379 53.5668V45.2954L10.6328 40.8315V18.9059ZM26.5572 28.0316L20.8722 24.9463L15.1871 28.0316V34.2023L20.8722 37.2876L26.5572 34.2023V28.0316ZM38.7276 24.9463L44.4127 28.0316V34.2023L38.7276 37.2876L33.0426 34.2023V28.0316L38.7276 24.9463ZM32.7555 37.3531L29.7993 35.7119L26.8431 37.3531V40.6353L29.7993 42.2765L32.7555 40.6353V37.3531Z" fill="#6C5DD3"/>
<path fill-rule="evenodd" clip-rule="evenodd" d="M21.0061 27.0469C20.2085 27.0469 19.5619 27.6935 19.5619 28.4911V29.6729H18.3817C17.5841 29.6729 16.9375 30.3194 16.9375 31.1171C16.9375 31.9147 17.5841 32.5613 18.3817 32.5613H19.5619V33.7427C19.5619 34.5403 20.2085 35.1869 21.0061 35.1869C21.8037 35.1869 22.4503 34.5403 22.4503 33.7427V32.5613H23.6333C24.4309 32.5613 25.0775 31.9147 25.0775 31.1171C25.0775 30.3194 24.4309 29.6729 23.6333 29.6729H22.4503V28.4911C22.4503 27.6935 21.8037 27.0469 21.0061 27.0469Z" fill="#FF754C"/>
<rect x="31.6406" y="37.8125" width="2.36324" height="3.41357" transform="rotate(90 31.6406 37.8125)" fill="#FF754C"/>
<path fill-rule="evenodd" clip-rule="evenodd" d="M37.418 29.8031H39.9125V28.0963L38.5996 27.3086L37.418 28.0963V29.8031ZM37.2875 32.4277V29.9332H35.5807L34.793 31.2461L35.5807 32.4277H37.2875ZM39.9125 32.5592H37.418V34.266L38.5996 35.0537L39.9125 34.266V32.5592ZM40.0445 32.4277V29.9332H41.7513L42.5391 31.2461L41.7513 32.4277H40.0445Z" fill="#FF754C"/>
<path d="M73.7355 41.47V25.21L78.5055 20.5H94.4055L99.1755 25.21V41.47H92.8455V35.47H80.0655V41.5L73.7355 41.47ZM80.0655 25.21V30.85H92.8455V25.21H80.0655ZM110.072 36.79H128.072L123.392 41.5H103.742V20.53L110.072 16.87V36.79ZM124.05 20.5H152.16L147.51 25.21H141.27V41.47H134.94V25.21H128.7L124.05 20.5ZM154.718 20.5H179.798L175.148 25.21H161.048V28.9H176.738L172.478 33.16H161.048V36.79H179.048L174.368 41.5H154.718V20.5ZM182.843 20.5H204.773L209.543 26.98L205.913 31.84L209.543 35.47V41.47H203.213V36.34L201.293 34.48H189.173V41.5H182.843V20.5ZM189.173 29.71H201.323L203.033 27.37L201.383 25.21H189.173V29.71Z" fill="white"/>
</svg>
