<svg width="56" height="56" viewBox="0 0 56 56" fill="none" xmlns="http://www.w3.org/2000/svg">
<rect width="56" height="56" rx="16" fill="#FF754C" fill-opacity="0.15"/>
<path fill-rule="evenodd" clip-rule="evenodd" d="M21.0007 17.5H35.0007C37.578 17.5 39.6673 19.5893 39.6673 22.1667V32.6667C39.6673 35.244 37.578 37.3333 35.0007 37.3333H30.8766C30.3289 29.5537 24.3165 23.9167 16.334 23.9167V22.1667C16.334 19.5893 18.4233 17.5 21.0007 17.5ZM15.459 26.8333C15.459 26.3501 15.8507 25.9583 16.334 25.9583C23.2606 25.9583 28.8757 31.5734 28.8757 38.5C28.8757 38.9832 28.4839 39.375 28.0007 39.375C27.5174 39.375 27.1257 38.9832 27.1257 38.5C27.1257 32.5399 22.2941 27.7083 16.334 27.7083C15.8507 27.7083 15.459 27.3166 15.459 26.8333ZM16.334 30.625C15.8507 30.625 15.459 31.0168 15.459 31.5C15.459 31.9832 15.8507 32.375 16.334 32.375C19.7167 32.375 22.459 35.1173 22.459 38.5C22.459 38.9832 22.8507 39.375 23.334 39.375C23.8172 39.375 24.209 38.9832 24.209 38.5C24.209 34.1508 20.6832 30.625 16.334 30.625ZM16.334 35.2917C15.8507 35.2917 15.459 35.6834 15.459 36.1667C15.459 36.6499 15.8507 37.0417 16.334 37.0417C17.1394 37.0417 17.7923 37.6946 17.7923 38.5C17.7923 38.9832 18.1841 39.375 18.6673 39.375C19.1506 39.375 19.5423 38.9832 19.5423 38.5C19.5423 36.7281 18.1059 35.2917 16.334 35.2917Z" fill="#FF754C"/>
</svg>
