<svg width="130" height="29" viewBox="0 0 130 29" fill="none" xmlns="http://www.w3.org/2000/svg">
<path fill-rule="evenodd" clip-rule="evenodd" d="M3.47921 18.9059V8.40262L5.84245 6.95842L6.36761 7.221L14.9015 2.36324H14.9015L23.4354 7.221L23.9606 6.95842L26.3238 8.40262V18.9059L29.803 16.8709V12.9322L27.3085 11.5536V7.74617L24.2888 6.10503V5.31728L14.9015 0H14.9015L5.51422 5.31728V6.10503L2.49453 7.74617V11.5536L0 12.9322V16.8709L3.47921 18.9059Z" fill="#FF754C"/>
<path fill-rule="evenodd" clip-rule="evenodd" d="M5.31738 9.45273L14.9016 4.00415V4.00429L24.4858 9.45283V20.4156L20.6127 22.6476V26.7832L18.8403 27.8992V23.5666L18.0526 24.0918V28.2931L16.4771 29.2778V24.9452L15.6893 25.536V29.5404L14.9016 29.9999V29.9997L14.1139 29.5402V25.5359L13.3261 24.9451V29.2777L11.7506 28.293V24.0917L10.9629 23.5665V27.8991L9.19047 26.7831V22.6475L5.31738 20.4155V9.45273ZM13.2802 14.0154L10.4377 12.4728L7.59515 14.0154V17.1008L10.4377 18.6435L13.2802 17.1008V14.0154ZM19.3654 12.4728L22.208 14.0154V17.1008L19.3654 18.6435L16.5229 17.1008V14.0154L19.3654 12.4728ZM16.3797 18.6762L14.9016 17.8556L13.4235 18.6762V20.3174L14.9016 21.1379L16.3797 20.3174V18.6762Z" fill="#6C5DD3"/>
<path fill-rule="evenodd" clip-rule="evenodd" d="M10.5028 13.5232C10.104 13.5232 9.7807 13.8465 9.7807 14.2453V14.8362H9.18993C8.79113 14.8362 8.46783 15.1595 8.46783 15.5583C8.46783 15.9571 8.79113 16.2804 9.18993 16.2804H9.7807V16.8711C9.7807 17.2699 10.104 17.5932 10.5028 17.5932C10.9016 17.5932 11.2249 17.2699 11.2249 16.8711V16.2804H11.8158C12.2146 16.2804 12.5379 15.9571 12.5379 15.5583C12.5379 15.1595 12.2146 14.8362 11.8158 14.8362H11.2249V14.2453C11.2249 13.8465 10.9016 13.5232 10.5028 13.5232Z" fill="#FF754C"/>
<rect x="15.8203" y="18.906" width="1.18162" height="1.70678" transform="rotate(90 15.8203 18.906)" fill="#FF754C"/>
<path fill-rule="evenodd" clip-rule="evenodd" d="M18.7094 14.9016H19.9566V14.0482L19.3002 13.6543L18.7094 14.0482V14.9016ZM18.6437 16.2141V14.9668H17.7904L17.3965 15.6233L17.7904 16.2141H18.6437ZM19.9566 16.2797H18.7094V17.1331L19.3002 17.527L19.9566 17.1331V16.2797ZM20.0223 16.2141V14.9668H20.8757L21.2695 15.6233L20.8757 16.2141H20.0223Z" fill="#FF754C"/>
<path d="M37.2227 22.48V11.64L40.4027 8.5H51.0027L54.1827 11.64V22.48H49.9627V18.48H41.4427V22.5L37.2227 22.48ZM41.4427 11.64V15.4H49.9627V11.64H41.4427ZM61.447 19.36H73.447L70.327 22.5H57.227V8.52L61.447 6.08V19.36ZM70.766 8.5H89.506L86.406 11.64H82.246V22.48H78.026V11.64H73.866L70.766 8.5ZM91.2109 8.5H107.931L104.831 11.64H95.4309V14.1H105.891L103.051 16.94H95.4309V19.36H107.431L104.311 22.5H91.2109V8.5ZM109.961 8.5H124.581L127.761 12.82L125.341 16.06L127.761 18.48V22.48H123.541V19.06L122.261 17.82H114.181V22.5H109.961V8.5ZM114.181 14.64H122.281L123.421 13.08L122.321 11.64H114.181V14.64Z" fill="#1B1D21"/>
</svg>
