<svg width="160" height="160" viewBox="0 0 160 160" fill="none" xmlns="http://www.w3.org/2000/svg">
<path d="M124.18 129.582H23.2219C18.0879 129.582 13.8879 125.382 13.8879 120.248V60.626C13.8879 55.492 18.0879 51.292 23.2219 51.292H124.18C129.314 51.292 133.514 55.492 133.514 60.626V120.25C133.512 125.382 129.312 129.582 124.18 129.582Z" fill="#D1E5FF"/>
<path d="M114.638 62.7577V41.0457C103.682 31.3417 100.898 24.9437 89.94 15.2397L60.286 16.0937H47.618H43.676L41.854 15.2397C35.172 15.2397 29.762 20.9357 29.762 26.8557V61.0757" fill="#D1E5FF"/>
<path d="M83.2581 65.8518V49.2158H102.606V68.9338H87.4901M114.638 41.3558H98.4201C91.4201 41.3558 85.6921 36.3558 85.6921 30.2458L85.5241 15.6138L89.8581 15.4478L114.638 40.3238V41.3558Z" fill="#A0D7E7"/>
<path d="M119.522 87.3721C116.03 87.3721 112.572 88.0598 109.346 89.3961C106.12 90.7324 103.189 92.691 100.72 95.1601C98.2508 97.6292 96.2922 100.56 94.9559 103.787C93.6197 107.013 92.9319 110.47 92.9319 113.962C92.9319 117.454 93.6197 120.912 94.9559 124.138C96.2922 127.364 98.2508 130.295 100.72 132.764C103.189 135.233 106.12 137.192 109.346 138.528C112.572 139.864 116.03 140.552 119.522 140.552C123.014 140.552 126.471 139.864 129.697 138.528C132.923 137.192 135.855 135.233 138.324 132.764C140.793 130.295 142.752 127.364 144.088 124.138C145.424 120.912 146.112 117.454 146.112 113.962C146.112 110.47 145.424 107.013 144.088 103.787C142.752 100.56 140.793 97.6292 138.324 95.1601C135.855 92.691 132.923 90.7324 129.697 89.3961C126.471 88.0598 123.014 87.3721 119.522 87.3721Z" fill="#FF754C"/>
<path d="M116.396 122.5L116.389 122.5C116.077 122.49 115.788 122.354 115.58 122.129L115.577 122.126L107.138 112.863L107.138 112.862C106.714 112.395 106.733 111.663 107.192 111.223L107.193 111.221L107.193 111.221C107.657 110.781 108.39 110.798 108.826 111.278C108.826 111.278 108.826 111.278 108.826 111.279L116.466 119.665L130.551 105.829L116.396 122.5ZM116.396 122.5H116.404M116.396 122.5H116.404M116.404 122.5H116.404H116.404H116.404H116.404H116.404H116.404H116.404H116.404H116.404H116.404H116.405H116.405H116.405H116.405H116.405H116.405H116.405H116.405H116.405H116.405H116.405H116.405H116.405H116.405H116.405H116.405H116.405H116.405H116.405H116.405H116.405H116.405H116.405H116.405H116.405H116.405H116.405H116.406H116.406H116.406H116.406H116.406H116.406H116.406H116.406H116.406H116.406H116.406H116.406H116.406H116.406H116.406H116.406H116.406H116.406H116.406H116.406H116.406H116.406H116.406H116.406H116.406H116.406H116.406H116.407H116.407H116.407H116.407H116.407H116.407H116.407H116.407H116.407H116.407H116.407H116.407H116.407H116.407H116.407H116.407H116.407H116.407H116.407H116.407H116.407H116.407H116.407H116.407H116.407H116.407H116.407H116.407H116.408H116.408H116.408H116.408H116.408H116.408H116.408H116.408H116.408H116.408H116.408H116.408H116.408H116.408H116.408H116.408H116.408H116.408H116.408H116.408H116.408H116.408H116.408H116.408H116.408H116.408H116.408H116.408H116.409H116.409H116.409H116.409H116.409H116.409H116.409H116.409H116.409H116.409H116.409H116.409H116.409H116.409H116.409H116.409H116.409H116.409H116.409H116.409H116.409H116.409H116.409H116.409H116.409H116.409H116.409H116.409H116.409H116.41H116.41H116.41H116.41H116.41H116.41H116.41H116.41H116.41H116.41H116.41H116.41H116.41H116.41H116.41H116.41H116.41H116.41H116.41H116.41H116.41H116.41H116.41H116.41H116.41H116.41H116.41H116.41H116.411H116.411H116.411H116.411H116.411H116.411H116.411H116.411H116.411H116.411H116.411H116.411H116.411H116.411H116.411H116.411H116.411H116.411H116.411H116.411H116.411H116.411H116.411H116.411H116.411H116.411H116.411H116.411H116.411H116.412H116.412H116.412H116.412H116.412H116.412H116.412H116.412H116.412H116.412H116.412H116.412H116.412H116.412H116.412H116.412H116.412H116.412H116.412H116.412H116.412H116.412H116.412H116.412H116.412H116.412H116.412H116.412H116.412H116.413H116.413H116.413H116.413H116.413H116.413H116.413H116.413H116.413H116.413H116.413H116.413H116.413H116.413H116.413H116.413H116.413H116.413H116.413H116.413H116.413H116.413H116.413H116.413H116.413H116.413H116.413H116.413H116.413H116.413H116.414H116.414H116.414H116.414H116.414H116.414H116.414H116.414H116.414H116.414H116.414H116.414H116.414H116.414H116.414H116.414H116.414H116.414H116.414H116.414H116.414H116.414H116.414H116.414H116.414H116.414H116.414H116.414H116.414H116.415H116.415H116.415H116.415H116.415H116.415H116.415H116.415H116.415H116.415H116.415H116.415H116.415H116.415H116.415H116.415H116.415H116.415H116.415H116.415H116.415H116.415H116.415H116.415H116.415H116.415H116.415H116.415H116.415H116.416H116.416H116.416H116.416H116.416H116.416H116.416H116.416H116.416H116.416H116.416H116.416H116.416H116.416H116.416H116.416H116.416H116.416H116.416H116.416H116.416H116.416H116.416H116.416H116.416H116.416H116.416H116.416H116.416H116.417H116.417H116.417H116.417H116.417H116.417H116.417H116.417H116.417H116.417H116.417H116.417H116.417H116.417H116.417H116.417H116.417H116.417H116.417H116.417H116.417H116.417H116.417H116.417H116.417H116.417H116.417H116.417H116.418H116.418H116.418H116.418H116.418H116.418H116.418H116.418H116.418H116.418H116.418H116.418H116.418H116.418H116.418H116.418H116.418H116.418H116.418H116.418H116.418H116.418H116.418H116.418H116.418H116.418H116.418H116.418H116.418H116.419H116.419H116.419H116.419H116.419H116.419H116.419H116.419H116.419H116.419H116.419H116.419H116.419H116.419H116.419H116.419H116.419H116.419H116.419H116.419H116.419H116.419H116.419H116.419H116.419H116.419H116.419H116.419H116.42H116.42H116.42H116.42H116.42H116.42H116.42H116.42H116.42H116.42H116.42H116.42H116.42H116.42H116.42H116.42H116.42H116.42H116.42H116.42H116.42H116.42H116.42H116.42H116.42H116.42H116.42H116.421H116.421H116.421H116.421H116.421H116.421H116.421H116.421H116.421H116.421H116.421H116.421H116.421H116.421H116.421H116.421H116.421H116.421H116.421H116.421H116.421H116.421H116.421H116.421H116.421H116.421H116.421H116.422H116.422H116.422H116.422H116.422H116.422H116.422H116.422H116.422H116.422H116.422H116.422H116.422H116.422H116.422H116.422H116.422H116.422H116.422H116.422H116.422C116.724 122.5 117.008 122.38 117.219 122.173L132.149 107.507C132.149 107.507 132.149 107.507 132.149 107.506C132.605 107.061 132.616 106.327 132.186 105.866L132.186 105.866M116.404 122.5L132.186 105.866M132.186 105.866C131.748 105.394 131.012 105.376 130.552 105.828L132.186 105.866Z" fill="white" stroke="white"/>
<path d="M40.8582 67.9058H74.8582C75.4102 67.9058 75.8582 67.4578 75.8582 66.9058C75.8582 66.3538 75.4102 65.9058 74.8582 65.9058H40.8582C40.3062 65.9058 39.8582 66.3538 39.8582 66.9058C39.8582 67.4578 40.3062 67.9058 40.8582 67.9058ZM40.8582 57.9058H74.8582C75.4102 57.9058 75.8582 57.4578 75.8582 56.9058C75.8582 56.3538 75.4102 55.9058 74.8582 55.9058H40.8582C40.3062 55.9058 39.8582 56.3538 39.8582 56.9058C39.8582 57.4578 40.3062 57.9058 40.8582 57.9058ZM82.8582 65.9058C83.4102 65.9058 83.8582 65.4578 83.8582 64.9058V49.9058H101.858V67.9058H86.8582C86.3062 67.9058 85.8582 68.3538 85.8582 68.9058C85.8582 69.4578 86.3062 69.9058 86.8582 69.9058H102.858C103.41 69.9058 103.858 69.4578 103.858 68.9058V48.9058C103.858 48.3538 103.41 47.9058 102.858 47.9058H82.8582C82.3062 47.9058 81.8582 48.3538 81.8582 48.9058V64.9058C81.8582 65.4578 82.3062 65.9058 82.8582 65.9058ZM40.8582 49.9058H74.8582C75.4102 49.9058 75.8582 49.4578 75.8582 48.9058C75.8582 48.3538 75.4102 47.9058 74.8582 47.9058H40.8582C40.3062 47.9058 39.8582 48.3538 39.8582 48.9058C39.8582 49.4578 40.3062 49.9058 40.8582 49.9058Z" fill="#11142D"/>
<path d="M135.834 89.4618V61.2398C135.834 54.9898 130.75 49.9058 124.5 49.9058H115.834V39.8598C115.834 39.5938 115.728 39.3398 115.542 39.1518L90.588 14.1978C90.4 14.0098 90.146 13.9058 89.88 13.9058H42.858C35.676 13.9058 29.832 19.1818 29.832 25.6678V49.9058H23.166C16.916 49.9058 11.832 54.9898 11.832 61.2398V120.572C11.832 126.822 16.916 131.906 23.166 131.906H96.976C102.296 138.018 110.112 141.906 118.832 141.906C134.822 141.906 147.832 128.896 147.832 112.906C147.834 103.268 143.088 94.7378 135.834 89.4618ZM113.83 40.2678C113.78 40.2598 113.734 40.2378 113.682 40.2378L98.368 39.9458C91.902 39.9458 85.806 35.6598 85.806 30.0858V15.8618L89.466 15.9038L113.83 40.2678ZM23.168 53.9058H29.834V58.9058C29.834 59.4578 30.282 59.9058 30.834 59.9058C31.386 59.9058 31.834 59.4578 31.834 58.9058V25.6678C31.834 20.2858 36.78 15.9058 42.86 15.9058L83.974 15.8638V30.0878C83.974 36.7658 90.782 41.7638 98.354 41.7638C98.354 41.7638 113.814 41.9038 113.866 41.8958L113.954 60.9398C113.954 61.4918 114.282 61.9038 114.834 61.9038C115.386 61.9038 115.834 61.4558 115.834 60.9038V53.9038H124.5C126.278 53.9038 127.888 54.5638 129.158 55.6198C129.096 55.6458 129.03 55.6578 128.972 55.6978L86.586 84.6258C86.13 84.9378 86.014 85.5598 86.324 86.0158C86.518 86.2998 86.832 86.4518 87.15 86.4518C87.346 86.4518 87.54 86.3958 87.714 86.2778L130.1 57.3498C130.25 57.2478 130.348 57.1038 130.422 56.9518C131.3 58.1598 131.952 59.6658 131.952 61.2698V87.1518C128.036 85.1758 123.51 83.9038 118.832 83.9038C109.01 83.9038 100.328 88.8238 95.08 96.3158L74.202 82.7658C72.538 81.6858 70.336 81.7278 68.716 82.8598L15.834 119.984V61.2398C15.834 60.1438 16.092 59.1118 16.526 58.1758L56.322 86.3898C56.498 86.5138 56.698 86.5738 56.9 86.5738C57.212 86.5738 57.522 86.4278 57.716 86.1518C58.034 85.6998 57.928 85.0778 57.478 84.7578L17.618 56.4998C18.964 54.9258 20.938 53.9058 23.168 53.9058ZM23.168 127.906C19.712 127.906 16.824 125.496 16.054 122.272L69.866 84.4958C70.812 83.8338 72.15 83.8118 73.114 84.4418L94.004 97.9998C91.376 102.362 89.834 107.45 89.834 112.904C89.834 118.398 91.398 123.52 94.062 127.904L23.168 127.906ZM118.834 137.906C105.048 137.906 93.834 126.692 93.834 112.906C93.834 99.1198 105.048 87.9058 118.834 87.9058C132.62 87.9058 143.834 99.1198 143.834 112.906C143.834 126.692 132.618 137.906 118.834 137.906Z" fill="#11142D"/>
</svg>
