<svg width="160" height="160" viewBox="0 0 160 160" fill="none" xmlns="http://www.w3.org/2000/svg">
<path d="M35.2 112.347C35.2 123.2 35.2 132.8 28.8 139.2C39.5344 139.2 52.8 136 61.088 124.198C67.0656 125.629 73.416 126.4 80 126.4C115.346 126.4 144 104.194 144 76.8C144 49.4064 115.346 27.2 80 27.2C44.6544 27.2 16 49.4064 16 76.8C16 90.6735 23.352 103.222 35.2 112.226V112.347Z" fill="#FAE4B6"/>
<path d="M28.7999 140.8C28.1535 140.8 27.5695 140.411 27.3215 139.813C27.0735 139.214 27.2111 138.526 27.6687 138.069C33.4767 132.261 33.5983 123.35 33.5999 113.013C21.2111 103.35 14.3999 90.5168 14.3999 76.8C14.3999 48.568 43.8287 25.6 79.9999 25.6C116.171 25.6 145.6 48.568 145.6 76.8C145.6 105.032 116.171 128 79.9999 128C73.7935 128 67.6623 127.326 61.7599 125.997C52.1359 138.85 37.0495 140.8 28.7999 140.8ZM79.9999 28.8C45.5919 28.8 17.5999 50.3328 17.5999 76.8C17.5999 89.7248 24.1951 101.853 36.1679 110.952C36.5663 111.253 36.7999 111.725 36.7999 112.226V112.349C36.7999 121.79 36.7999 130.779 32.2831 137.478C40.3903 136.909 52.2047 134.062 59.7775 123.28C60.1551 122.744 60.8207 122.493 61.4591 122.643C67.4383 124.074 73.6767 124.8 79.9999 124.8C114.408 124.8 142.4 103.267 142.4 76.8C142.4 50.3328 114.408 28.8 79.9999 28.8Z" fill="#1B1D21"/>
<path d="M32.4767 100.8C32.2543 100.8 32.0335 100.707 31.8767 100.528C25.6767 93.4768 22.3999 85.272 22.3999 76.8C22.3999 52.9792 48.2383 33.6 79.9999 33.6C95.0079 33.6 109.222 37.9152 120.025 45.7536C120.384 46.0128 120.462 46.5136 120.203 46.8704C119.944 47.2272 119.44 47.3056 119.086 47.0464C108.553 39.408 94.6719 35.2 79.9999 35.2C49.1215 35.2 23.9999 53.8608 23.9999 76.8C23.9999 84.8768 27.1391 92.7152 33.0783 99.472C33.3695 99.8032 33.3375 100.309 33.0063 100.602C32.8543 100.734 32.6655 100.8 32.4767 100.8ZM79.9999 120C78.1055 120 76.2015 119.93 74.3407 119.794C73.9007 119.76 73.5695 119.376 73.6015 118.936C73.6335 118.496 74.0127 118.149 74.4575 118.197C76.2799 118.331 78.1439 118.4 79.9999 118.4C110.878 118.4 136 99.7392 136 76.8C136 69.688 133.526 62.6624 128.846 56.4832C128.579 56.1312 128.648 55.6304 129.001 55.3632C129.355 55.096 129.856 55.1648 130.121 55.5184C135.014 61.976 137.6 69.336 137.6 76.8C137.6 100.621 111.761 120 79.9999 120ZM127.523 54.4C127.301 54.4 127.08 54.3072 126.923 54.128C126.456 53.5952 125.971 53.072 125.472 52.5584C125.163 52.2416 125.171 51.7344 125.488 51.4272C125.805 51.1184 126.313 51.1264 126.619 51.4432C127.137 51.976 127.64 52.5216 128.125 53.0736C128.416 53.4048 128.384 53.9104 128.053 54.2032C127.899 54.3344 127.71 54.4 127.523 54.4ZM123.539 50.4C123.349 50.4 123.158 50.3328 123.006 50.1968C122.64 49.8704 122.267 49.5472 121.886 49.2304C121.547 48.9456 121.502 48.4416 121.787 48.104C122.069 47.7632 122.574 47.72 122.913 48.0032C123.307 48.3328 123.693 48.6656 124.072 49.0048C124.401 49.2992 124.43 49.8048 124.136 50.1344C123.977 50.3088 123.758 50.4 123.539 50.4Z" fill="#1B1D21"/>
<path d="M84.0002 57.6H45.6002C45.1586 57.6 44.8002 57.2416 44.8002 56.8C44.8002 56.3584 45.1586 56 45.6002 56H84.0002C84.4418 56 84.8002 56.3584 84.8002 56.8C84.8002 57.2416 84.4418 57.6 84.0002 57.6ZM109.6 57.6H92.0002C91.5586 57.6 91.2002 57.2416 91.2002 56.8C91.2002 56.3584 91.5586 56 92.0002 56H109.6C110.042 56 110.4 56.3584 110.4 56.8C110.4 57.2416 110.042 57.6 109.6 57.6ZM61.6002 70.4H36.0002C35.5586 70.4 35.2002 70.0416 35.2002 69.6C35.2002 69.1584 35.5586 68.8 36.0002 68.8H61.6002C62.0418 68.8 62.4002 69.1584 62.4002 69.6C62.4002 70.0416 62.0418 70.4 61.6002 70.4ZM124 70.4H69.6002C69.1586 70.4 68.8002 70.0416 68.8002 69.6C68.8002 69.1584 69.1586 68.8 69.6002 68.8H124C124.442 68.8 124.8 69.1584 124.8 69.6C124.8 70.0416 124.442 70.4 124 70.4ZM124 83.2H36.0002C35.5586 83.2 35.2002 82.8416 35.2002 82.4C35.2002 81.9584 35.5586 81.6 36.0002 81.6H124C124.442 81.6 124.8 81.9584 124.8 82.4C124.8 82.8416 124.442 83.2 124 83.2ZM77.6002 96H45.6002C45.1586 96 44.8002 95.6416 44.8002 95.2C44.8002 94.7584 45.1586 94.4 45.6002 94.4H77.6002C78.0418 94.4 78.4002 94.7584 78.4002 95.2C78.4002 95.6416 78.0418 96 77.6002 96ZM109.6 96H85.6002C85.1586 96 84.8002 95.6416 84.8002 95.2C84.8002 94.7584 85.1586 94.4 85.6002 94.4H109.6C110.042 94.4 110.4 94.7584 110.4 95.2C110.4 95.6416 110.042 96 109.6 96Z" fill="#1B1D21"/>
<rect x="141.729" y="13.5179" width="6" height="182" rx="3" transform="rotate(45 141.729 13.5179)" fill="#1B1D21" stroke="white" stroke-width="2"/>
</svg>
