<svg width="150" height="129" viewBox="0 0 150 129" fill="none" xmlns="http://www.w3.org/2000/svg">
<path d="M76.4781 124.906C108.518 124.906 134.558 98.8662 134.558 66.8262C134.558 34.7863 108.518 8.74634 76.4781 8.74634C44.4383 8.86634 18.3984 34.7863 18.3984 66.9462C18.3984 98.9862 44.4383 124.906 76.4781 124.906Z" fill="#F1F3F9" stroke="#D6DCE8" stroke-width="2.39999" stroke-miterlimit="10"/>
<path d="M114.637 57.466V100.546C114.637 103.186 112.477 105.346 109.837 105.346H41.5578C38.9178 105.346 36.7578 103.186 36.7578 100.546V57.466C36.7578 54.826 39.0378 52.666 41.5578 52.666H109.837C111.877 52.666 113.557 53.866 114.397 55.666C114.517 56.146 114.637 56.746 114.637 57.466Z" fill="#F1F3F9" stroke="#D6DCE8" stroke-width="2.39999" stroke-miterlimit="10"/>
<path d="M148.353 52.4262C150.273 50.6262 150.393 47.6262 148.713 45.7062C146.913 43.7862 143.913 43.6662 141.993 45.3462C140.073 47.1462 139.953 50.1462 141.633 52.0662C143.433 54.1062 146.433 54.2262 148.353 52.4262Z" fill="#F1F3F9"/>
<path d="M148.712 31.4261C149.552 30.7061 149.552 29.3861 148.832 28.6661C148.112 27.8261 146.792 27.8261 146.072 28.5461C145.352 29.2661 145.232 30.5861 145.952 31.3061C146.672 32.1461 147.872 32.1461 148.712 31.4261Z" fill="#F1F3F9"/>
<path d="M98.5553 2.38625C99.1553 1.90625 99.1553 0.946251 98.6753 0.466252C98.1953 -0.133747 97.3553 -0.133747 96.7553 0.346252C96.1553 0.826251 96.1553 1.66625 96.6353 2.26625C97.1153 2.86625 97.9553 2.86625 98.5553 2.38625Z" fill="#F1F3F9"/>
<path d="M139.356 29.8662L122.316 60.1062C121.716 61.0662 120.396 61.4262 119.436 60.8262L90.3961 43.9062C89.4361 43.3062 89.0761 41.9862 89.6761 41.0262L112.116 2.50625C112.716 1.54625 114.036 1.18625 114.996 1.78625L136.116 14.1462L139.356 29.8662Z" fill="white" stroke="#D6DCE8" stroke-width="2.39999" stroke-miterlimit="10"/>
<path d="M135.878 14.0261L131.078 22.1861C130.478 23.3861 130.838 24.8261 131.918 25.5461L139.238 29.7461" fill="#D6DCE8"/>
<path d="M115.953 21.9462C116.433 21.8262 116.913 21.8262 117.273 21.8262C117.753 21.8262 118.233 21.8262 118.713 21.8262C119.193 21.9462 119.793 22.0662 120.273 22.1862C120.873 22.4262 121.353 22.6662 121.833 22.9062C122.553 23.2662 123.153 23.7462 123.753 24.3462C124.233 24.8262 124.593 25.4262 124.833 26.2662C125.073 26.8662 125.073 27.5862 125.073 28.3062C124.953 29.0262 124.713 29.7462 124.353 30.4662C123.993 31.0662 123.633 31.5462 123.153 32.0262C122.673 32.3862 122.313 32.6262 121.713 32.8662C121.233 33.1062 120.753 33.2262 120.273 33.2262L118.953 33.3461C118.593 33.3461 118.233 33.4662 117.753 33.5862C117.393 33.7062 117.153 33.8261 116.913 34.0661L115.593 35.8661L113.313 34.6661L114.273 32.3862C114.393 32.0262 114.753 31.6662 114.993 31.4262C115.353 31.1862 115.713 31.0662 116.073 30.9462C116.553 30.8262 116.913 30.8262 117.393 30.7062C117.873 30.7062 118.353 30.5862 118.833 30.4662C119.313 30.3462 119.673 30.2262 120.153 29.9862C120.633 29.7462 120.873 29.3862 121.113 28.9062C121.233 28.6662 121.353 28.3062 121.473 27.9462C121.473 27.5862 121.473 27.3462 121.353 27.1062C121.233 26.7462 121.113 26.5062 120.873 26.2662C120.633 26.0262 120.393 25.7862 120.033 25.5462C119.673 25.3062 119.193 25.0662 118.713 24.9462C118.353 24.8262 117.993 24.8262 117.633 24.8262C117.273 24.8262 117.033 24.8262 116.793 24.8262C116.673 24.8262 116.433 24.8262 116.313 24.7062C116.073 24.5862 115.833 24.2262 115.833 23.9862L115.953 21.9462ZM109.353 38.8661C109.473 38.6261 109.713 38.3861 109.953 38.1461C110.193 38.0261 110.433 37.7861 110.673 37.7861C111.273 37.6661 111.873 37.6661 112.473 38.0261C112.713 38.1461 112.953 38.3861 113.193 38.6261C113.313 38.8661 113.433 39.1061 113.553 39.3461C113.913 40.5461 113.193 41.8661 111.993 42.2261C111.393 42.3461 110.793 42.2261 110.193 41.9861C109.953 41.8661 109.713 41.6261 109.473 41.3861C109.353 41.1461 109.113 40.9061 109.113 40.6661C108.993 40.4261 108.993 40.0661 109.113 39.8261C109.113 39.3461 109.233 39.1061 109.353 38.8661Z" fill="#D6DCE8"/>
<path d="M30.1559 16.7864L49.7158 37.0664C50.3158 37.7864 50.3158 38.8664 49.5958 39.5864L29.6759 58.3063C28.9559 58.9063 27.8759 58.9063 27.1559 58.1863L2.43602 31.9064C1.83602 31.1864 1.83602 30.1064 2.55602 29.3864L16.9559 15.8264L30.1559 16.7864Z" fill="white" stroke="#D6DCE8" stroke-width="2.39999" stroke-miterlimit="10"/>
<path d="M16.957 15.7063L22.357 21.3463C23.077 22.0663 24.397 22.0663 25.237 21.3463L30.157 16.6663" fill="#D6DCE8"/>
<path d="M18.3984 33.1062C18.3984 32.7462 18.5184 32.3862 18.6384 32.0262C18.7584 31.6662 18.8784 31.3062 18.9984 30.9462C19.1184 30.5862 19.3584 30.2262 19.5984 29.8662C19.8384 29.5062 20.1984 29.1462 20.5584 28.7862C21.0384 28.3062 21.5184 27.9462 22.1184 27.7062C22.5984 27.4662 23.1984 27.3462 23.6784 27.3462C24.1584 27.3462 24.7584 27.4662 25.2384 27.5862C25.7184 27.8262 26.1984 28.1862 26.6784 28.5462C27.0384 28.9062 27.3984 29.3862 27.5184 29.8662C27.6384 30.2262 27.7584 30.7062 27.8784 31.1862C27.8784 31.5462 27.8784 32.0262 27.8784 32.3862C27.7584 32.7462 27.7584 33.1062 27.6384 33.4662C27.6384 33.8262 27.5184 34.0662 27.5184 34.4262C27.5184 34.6662 27.5184 34.9062 27.7584 35.1462L28.7184 36.5862L27.2784 37.9062L25.8384 36.5862C25.5984 36.3462 25.3584 36.1062 25.2384 35.7462C25.1184 35.3862 25.1184 35.1462 25.1184 34.7862C25.1184 34.4262 25.2384 34.0662 25.2384 33.7062C25.3584 33.3462 25.3584 32.9862 25.3584 32.6262C25.3584 32.2662 25.3584 31.9062 25.2384 31.5462C25.1184 31.1862 24.8784 30.8262 24.6384 30.4662C24.5184 30.2262 24.2784 30.1062 24.0384 29.9862C23.7984 29.8662 23.5584 29.8662 23.3184 29.8662C23.0784 29.8662 22.8384 29.9862 22.5984 30.1062C22.3584 30.2262 22.1184 30.3462 21.8784 30.5862C21.6384 30.8262 21.3984 31.1862 21.1584 31.4262C21.0384 31.6662 20.9184 31.9062 20.7984 32.2662C20.6784 32.5062 20.6784 32.7462 20.6784 32.8662C20.6784 32.9862 20.5584 33.1062 20.4384 33.2262C20.3184 33.4662 19.9584 33.4662 19.7184 33.3462L18.3984 33.1062ZM30.1584 42.1062C30.0384 41.9862 29.9184 41.7462 29.7984 41.5062C29.6784 41.2662 29.6784 41.0262 29.6784 40.7862C29.6784 40.3062 29.9184 39.8262 30.2784 39.4662C30.3984 39.3462 30.6384 39.2262 30.8784 39.1062C31.1184 38.9862 31.3584 38.9862 31.5984 38.9862C32.3184 38.9862 33.0384 39.4662 33.3984 40.1862C33.5184 40.4262 33.5184 40.6662 33.5184 40.9062C33.5184 41.1462 33.3984 41.3862 33.3984 41.6262C33.2784 41.8662 33.1584 41.9862 32.9184 42.2262C32.7984 42.3462 32.5584 42.5862 32.3184 42.5862C31.8384 42.7062 31.3584 42.7062 30.9984 42.5862C30.5184 42.4662 30.2784 42.3462 30.1584 42.1062Z" fill="#D6DCE8"/>
<path d="M80.7958 48.7061L73.2358 75.7061C72.9958 76.5461 72.0358 77.1461 71.0758 76.7861L44.796 69.1061C43.956 68.8661 43.356 67.9061 43.716 66.9461L53.9159 32.2662C54.1559 31.4262 55.1159 30.8262 56.0759 31.1862L75.1558 36.7062L80.7958 48.7061Z" fill="white" stroke="#D6DCE8" stroke-width="2.39999" stroke-miterlimit="10"/>
<path opacity="0.1" d="M114.637 57.4661V100.546C114.637 103.186 112.477 105.346 109.837 105.346H41.5578C38.9178 105.346 36.7578 103.186 36.7578 100.546V67.3061H64.7177C67.4777 67.3061 70.2376 66.3461 72.2776 64.5461L79.8376 58.3061C81.9976 56.6261 84.6376 55.5461 87.3976 55.5461H114.277C114.517 56.1461 114.637 56.7461 114.637 57.4661Z" fill="#AAB3C5"/>
<path d="M75.1571 36.8262L72.8771 44.3862C72.6371 45.3462 73.2371 46.5462 74.1971 46.9062L80.7971 48.9461" fill="#D6DCE8"/>
<path d="M60.8759 46.9064C61.2359 46.7864 61.5959 46.6664 61.9559 46.5464C62.3159 46.4264 62.6759 46.3064 63.1559 46.3064C63.6359 46.3064 63.9959 46.3064 64.4759 46.3064C64.9559 46.3064 65.4359 46.4264 65.9159 46.5464C66.5159 46.6664 67.1159 47.0264 67.7159 47.3864C68.1959 47.7464 68.5559 48.1064 68.9159 48.5864C69.1559 49.0664 69.3959 49.5464 69.5159 50.0264C69.6359 50.6264 69.5159 51.2264 69.3959 51.8264C69.2759 52.3064 69.0359 52.7864 68.6759 53.2664C68.4359 53.6264 68.0759 53.9864 67.7159 54.2264C67.3559 54.4664 66.9959 54.7064 66.6359 54.8264L65.5559 55.4264C65.3159 55.5464 64.9559 55.6664 64.7159 55.7864C64.4759 55.9064 64.2359 56.1464 64.2359 56.3864L63.5159 57.9464L61.4759 57.3464L61.8359 55.3064C61.8359 54.9464 62.0759 54.7064 62.3159 54.4664C62.5559 54.2264 62.7959 53.9864 63.1559 53.8664C63.5159 53.7464 63.8759 53.6264 64.1159 53.5064C64.4759 53.3864 64.8359 53.2664 65.1959 53.0264C65.5559 52.9064 65.7959 52.6664 66.1559 52.4264C66.3959 52.1864 66.6359 51.8264 66.7559 51.3464C66.8759 51.1064 66.8759 50.8664 66.8759 50.6264C66.8759 50.3864 66.7559 50.1464 66.6359 49.9064C66.5159 49.6664 66.2759 49.5464 66.0359 49.3064C65.7959 49.1864 65.5559 49.0664 65.1959 48.9464C64.8359 48.8264 64.4759 48.8264 63.9959 48.8264C63.7559 48.8264 63.3959 48.8264 63.1559 48.9464C62.9159 48.9464 62.6759 49.0664 62.5559 49.0664C62.4359 49.0664 62.3159 49.1864 62.0759 49.0664C61.8359 49.0664 61.5959 48.8264 61.5959 48.5864L60.8759 46.9064ZM58.9559 61.6664C59.0759 61.4264 59.0759 61.1864 59.3159 61.0664C59.4359 60.8264 59.6759 60.7064 59.7959 60.5864C60.2759 60.3464 60.7559 60.3464 61.1159 60.4664C61.3559 60.5864 61.5959 60.7064 61.7159 60.8264C61.8359 60.9464 62.0759 61.1864 62.1959 61.3064C62.6759 62.1464 62.3159 63.3464 61.4759 63.8264C60.9959 64.0664 60.5159 64.0664 60.1559 63.9464C59.9159 63.8264 59.6759 63.8264 59.5559 63.5864C59.3159 63.4664 59.1959 63.2264 59.0759 63.1064C58.9559 62.8664 58.9559 62.7464 58.8359 62.5064C58.8359 62.1464 58.8359 61.9064 58.9559 61.6664Z" fill="#D6DCE8"/>
<path d="M142.357 94.7863L117.637 108.226C116.797 108.706 115.717 108.346 115.357 107.506L102.877 83.3863C102.517 82.5463 102.757 81.4663 103.597 81.1063L135.757 64.0663C136.597 63.5863 137.677 63.9463 138.037 64.7863L147.037 82.3063L142.357 94.7863Z" fill="white" stroke="#D6DCE8" stroke-width="2.39999" stroke-miterlimit="10"/>
<path d="M147.034 82.426L140.074 86.026C139.234 86.506 138.754 87.826 139.234 88.786L142.354 94.906" fill="#D6DCE8"/>
<path d="M129.875 79.186C130.235 79.306 130.595 79.546 130.955 79.666C131.315 79.786 131.675 80.026 132.035 80.386C132.395 80.746 132.635 80.986 132.995 81.346C133.355 81.706 133.595 82.186 133.835 82.546C134.195 83.026 134.315 83.746 134.435 84.346C134.555 84.946 134.435 85.546 134.435 86.146C134.195 86.626 134.075 87.226 133.835 87.586C133.475 88.066 132.875 88.426 132.515 88.666C132.035 88.906 131.555 89.146 130.955 89.146C130.475 89.266 129.995 89.266 129.515 89.146C129.035 89.026 128.675 88.906 128.315 88.786L127.235 88.306C126.995 88.186 126.635 88.066 126.395 87.946C126.155 87.826 125.795 87.826 125.555 88.066L123.875 88.666L122.915 86.866L124.595 85.786C124.835 85.546 125.195 85.546 125.555 85.546C125.915 85.546 126.275 85.546 126.635 85.786C126.995 85.906 127.355 86.146 127.595 86.266C127.955 86.386 128.315 86.626 128.675 86.746C129.035 86.866 129.395 86.986 129.755 86.986C130.115 86.986 130.595 86.866 130.955 86.626C131.435 86.386 131.795 85.906 131.915 85.426C132.035 85.186 131.915 84.946 131.915 84.586C131.795 84.346 131.795 84.106 131.555 83.746C131.435 83.386 131.075 83.146 130.835 82.666C130.715 82.546 130.355 82.186 130.115 82.186C129.995 82.066 129.635 81.946 129.635 81.826C129.515 81.706 129.395 81.706 129.275 81.466C129.155 81.346 129.155 80.986 129.275 80.746L129.875 79.186ZM117.995 88.066C118.235 87.946 118.475 87.826 118.715 87.946C118.955 87.826 119.195 87.946 119.435 87.946C119.915 88.186 120.275 88.426 120.515 88.786C120.635 89.026 120.635 89.266 120.635 89.506C120.635 89.626 120.635 89.986 120.635 90.226C120.515 90.706 120.035 91.066 119.675 91.306C119.435 91.426 119.195 91.426 118.955 91.426C118.835 91.426 118.475 91.426 118.235 91.426C117.755 91.186 117.395 90.946 117.155 90.586C117.155 90.226 117.155 89.986 117.155 89.746C117.035 89.506 117.155 89.266 117.155 89.026C117.275 88.786 117.395 88.546 117.395 88.426C117.635 88.306 117.875 88.186 117.995 88.066Z" fill="#D6DCE8"/>
<path d="M115.954 80.2662V101.506C115.954 104.266 113.674 106.426 111.034 106.426H40.834C38.0741 106.426 35.9141 104.146 35.9141 101.506V78.5862" stroke="#1676EE" stroke-width="3.59999" stroke-linecap="round" stroke-linejoin="round"/>
<path d="M113.194 66.7063H89.1946C86.9146 66.7063 84.6346 67.5463 82.8346 68.9863L76.4746 74.1463C74.6747 75.5863 72.3947 76.4263 70.1147 76.4263H42.7548C39.9948 76.4263 37.7148 78.5863 37.7148 81.3463C37.7148 81.5863 37.7148 81.8263 37.8348 82.0663L42.7548 108.346C43.1148 110.866 45.2748 112.666 47.7948 112.666H106.114C108.634 112.666 110.674 110.866 111.154 108.466L118.114 72.4663C118.474 69.8263 116.794 67.1863 113.914 66.8263C113.674 66.7063 113.434 66.7063 113.194 66.7063Z" fill="white"/>
<path d="M119.915 61.9062H91.1155C88.3555 61.9062 85.5955 62.8663 83.5555 64.6662L75.9955 70.7862C73.8356 72.5862 71.1956 73.5462 68.4356 73.5462H35.6758C32.4358 73.5462 29.6758 76.1862 29.6758 79.5462C29.6758 79.7862 29.6758 80.1462 29.7958 80.3862L35.7958 112.186C36.2757 115.186 38.7957 117.466 41.7957 117.466H111.395C114.395 117.466 116.915 115.306 117.395 112.426L125.675 68.8662C126.155 65.6262 124.115 62.5063 120.755 62.0263C120.515 61.9063 120.155 61.9062 119.915 61.9062Z" fill="white" stroke="#D6DCE8" stroke-width="2.39999" stroke-miterlimit="10"/>
<path d="M88.5926 94.7861C90.2726 94.7861 91.7126 93.3461 91.7126 91.6661C91.7126 89.9861 90.2726 88.5461 88.5926 88.5461C86.9126 88.5461 85.4727 89.9861 85.4727 91.6661C85.4727 93.4661 86.7926 94.7861 88.5926 94.7861Z" fill="#AAB2C5"/>
<path d="M83.0749 100.066H81.5149C80.195 97.1862 76.715 96.1062 73.955 97.5462C72.875 98.0262 71.915 98.9862 71.435 100.066H69.875C71.195 96.3462 75.515 94.4262 79.115 95.8662C80.795 96.5862 82.3549 98.0262 83.0749 100.066Z" fill="#AAB2C5"/>
<path d="M127.954 127.786C126.514 127.786 126.994 127.906 116.194 117.106C105.634 124.906 91.2344 117.346 91.2344 104.626C91.2344 95.9861 98.1943 89.0261 106.834 89.0261C119.314 89.0261 126.874 102.946 119.674 113.506L129.754 123.586C131.194 125.146 130.114 127.786 127.954 127.786ZM106.834 93.9461C100.954 93.9461 96.1543 98.7461 96.1543 104.626C96.1543 110.506 100.954 115.306 106.834 115.306C107.434 115.306 108.154 115.306 108.754 115.186C109.354 115.066 109.954 114.946 110.554 114.706C111.154 114.466 111.754 114.226 112.234 113.866C112.834 113.506 113.434 113.026 113.914 112.546C114.394 112.186 114.754 111.706 115.114 111.226C115.474 110.746 115.834 110.146 116.194 109.666C116.434 109.066 116.794 108.466 116.914 107.866C117.154 107.266 117.274 106.666 117.274 106.066C117.394 105.586 117.394 105.106 117.394 104.626C117.514 98.7461 112.714 93.9461 106.834 93.9461Z" fill="#D6DCE8" stroke="#AAB2C5" stroke-width="2.39999" stroke-miterlimit="10"/>
<path d="M64.5965 94.7861C66.2765 94.7861 67.7165 93.3461 67.7165 91.6661C67.7165 89.9861 66.2765 88.5461 64.5965 88.5461C62.9166 88.5461 61.4766 89.9861 61.4766 91.6661C61.5966 93.4661 62.9166 94.7861 64.5965 94.7861Z" fill="#AAB2C5"/>
</svg>
