<svg width="158" height="118" viewBox="0 0 158 118" fill="none" xmlns="http://www.w3.org/2000/svg">
<path d="M78.1388 116.115C109.009 116.115 134.035 91.088 134.035 60.1077C134.035 29.1275 108.898 4.10071 78.1388 4.10071C47.2689 4.10071 22.2422 29.1275 22.2422 60.1077C22.2422 91.088 47.2689 116.115 78.1388 116.115Z" fill="#F1F3F9" stroke="#D6DCE8" stroke-width="2.205" stroke-miterlimit="10"/>
<path d="M25.2198 23.2842C26.9247 23.2842 28.3068 21.9021 28.3068 20.1972C28.3068 18.4923 26.9247 17.1102 25.2198 17.1102C23.5149 17.1102 22.1328 18.4923 22.1328 20.1972C22.1328 21.9021 23.5149 23.2842 25.2198 23.2842Z" fill="#F1F3F9"/>
<path d="M6.3658 82.8193C9.53204 82.8193 12.0988 80.2525 12.0988 77.0863C12.0988 73.92 9.53204 71.3533 6.3658 71.3533C3.19956 71.3533 0.632812 73.92 0.632812 77.0863C0.632812 80.2525 3.19956 82.8193 6.3658 82.8193Z" fill="#F1F3F9"/>
<path d="M131.401 30.6897V95.5583C131.401 97.4615 129.815 99.0475 127.912 99.0475H29.3408C27.4376 99.1268 25.8516 97.5408 25.8516 95.6376V30.6897C25.8516 28.7072 27.4376 27.2004 29.3408 27.2004H127.912C129.895 27.2004 131.401 28.7865 131.401 30.6897Z" fill="white" stroke="#D6DCE8" stroke-width="2.205" stroke-miterlimit="10"/>
<path d="M131.401 30.6897V35.6857H25.8516V30.6897C25.8516 28.7072 27.4376 27.2004 29.3408 27.2004H127.912C129.895 27.2004 131.401 28.7865 131.401 30.6897Z" fill="#F1F3F9" stroke="#D6DCE8" stroke-width="2.205" stroke-miterlimit="10"/>
<path d="M64.0748 60.8244C65.6953 60.8244 67.0089 59.5107 67.0089 57.8902C67.0089 56.2697 65.6953 54.9561 64.0748 54.9561C62.4543 54.9561 61.1406 56.2697 61.1406 57.8902C61.1406 59.5107 62.4543 60.8244 64.0748 60.8244Z" fill="#9FA8BA"/>
<path d="M93.2564 60.8244C94.8769 60.8244 96.1906 59.5107 96.1906 57.8902C96.1906 56.2697 94.8769 54.9561 93.2564 54.9561C91.6359 54.9561 90.3223 56.2697 90.3223 57.8902C90.3223 59.5107 91.6359 60.8244 93.2564 60.8244Z" fill="#9FA8BA"/>
<path d="M83.4233 80.0945H74.2244C72.7969 80.0945 71.6074 78.905 71.6074 77.4775C71.6074 76.0501 72.7969 74.8606 74.2244 74.8606H83.344C84.7714 74.8606 85.9609 76.0501 85.9609 77.4775C86.0402 78.905 84.8507 80.0945 83.4233 80.0945Z" fill="#9FA8BA"/>
<path d="M30.5294 32.9098C31.1863 32.9098 31.7189 32.3772 31.7189 31.7203C31.7189 31.0633 31.1863 30.5308 30.5294 30.5308C29.8724 30.5308 29.3398 31.0633 29.3398 31.7203C29.3398 32.3772 29.8724 32.9098 30.5294 32.9098Z" fill="#9FA8BA"/>
<path d="M34.2559 32.9099C34.9129 32.9099 35.4454 32.3774 35.4454 31.7204C35.4454 31.0635 34.9129 30.5309 34.2559 30.5309C33.599 30.5309 33.0664 31.0635 33.0664 31.7204C33.0664 32.3774 33.599 32.9099 34.2559 32.9099Z" fill="#9FA8BA"/>
<path d="M38.0645 32.91C38.7215 32.91 39.254 32.3775 39.254 31.7205C39.254 31.0636 38.7215 30.531 38.0645 30.531C37.4076 30.531 36.875 31.0636 36.875 31.7205C36.875 32.3775 37.4076 32.91 38.0645 32.91Z" fill="#9FA8BA"/>
<path d="M127.119 18.7944C126.326 18.7944 125.691 18.16 125.691 17.367V1.42743C125.691 0.634411 126.326 0 127.119 0C127.912 0 128.546 0.634411 128.546 1.42743V17.367C128.546 18.16 127.912 18.7944 127.119 18.7944Z" fill="#9FA8BA"/>
<path d="M138.697 31.0065C138.697 30.2135 139.332 29.5791 140.125 29.5791H156.064C156.857 29.5791 157.492 30.2135 157.492 31.0065C157.492 31.7995 156.857 32.434 156.064 32.434H140.125C139.332 32.434 138.697 31.7995 138.697 31.0065Z" fill="#9FA8BA"/>
<path d="M137.428 20.6977C136.873 20.1426 136.873 19.191 137.428 18.6359L148.768 7.37507C149.323 6.81996 150.275 6.81996 150.83 7.37507C151.385 7.93018 151.385 8.8818 150.83 9.43691L139.569 20.6977C138.935 21.2528 137.983 21.2528 137.428 20.6977Z" fill="#9FA8BA"/>
</svg>
