<svg width="152" height="129" viewBox="0 0 152 129" fill="none" xmlns="http://www.w3.org/2000/svg">
<path d="M84.3648 126.84C117.966 126.84 145.206 99.6 145.206 65.88C145.206 32.16 117.846 4.91992 84.3648 4.91992C50.7641 4.91992 23.5234 32.16 23.5234 65.88C23.5234 99.6 50.7641 126.84 84.3648 126.84Z" fill="#F1F3F9" stroke="#D6DCE8" stroke-width="2.40003" stroke-miterlimit="10"/>
<path d="M141.244 25.9201C143.962 25.9201 146.164 23.7173 146.164 21.0001C146.164 18.2828 143.962 16.0801 141.244 16.0801C138.527 16.0801 136.324 18.2828 136.324 21.0001C136.324 23.7173 138.527 25.9201 141.244 25.9201Z" fill="#F1F3F9"/>
<path d="M148.438 6.72001C150.294 6.72001 151.798 5.21568 151.798 3.36C151.798 1.50432 150.294 0 148.438 0C146.582 0 145.078 1.50432 145.078 3.36C145.078 5.21568 146.582 6.72001 148.438 6.72001Z" fill="#F1F3F9"/>
<path d="M26.7585 25.8001C28.6142 25.8001 30.1186 24.2958 30.1186 22.4401C30.1186 20.5844 28.6142 19.0801 26.7585 19.0801C24.9028 19.0801 23.3984 20.5844 23.3984 22.4401C23.3984 24.2958 24.9028 25.8001 26.7585 25.8001Z" fill="#F1F3F9"/>
<path d="M6.24014 90.5996C9.68648 90.5996 12.4803 87.8059 12.4803 84.3596C12.4803 80.9134 9.68648 78.1196 6.24014 78.1196C2.79381 78.1196 0 80.9134 0 84.3596C0 87.8059 2.79381 90.5996 6.24014 90.5996Z" fill="#F1F3F9"/>
<path d="M129.365 35.4002L130.325 112.68C130.325 115.32 128.165 117.36 125.525 117.36H50.1634C47.5233 117.36 45.3633 115.2 45.3633 112.68V13.3201C45.3633 10.6801 47.5233 8.64014 50.1634 8.64014H104.765L129.365 35.4002Z" fill="white" stroke="#D6DCE8" stroke-width="2.40003" stroke-miterlimit="10"/>
<path d="M82.0784 101.88H79.3183C78.7183 101.88 78.2383 101.28 78.2383 100.56C78.2383 99.84 78.7183 99.24 79.3183 99.24H82.0784C82.6784 99.24 83.1584 99.84 83.1584 100.56C83.1584 101.4 82.6784 101.88 82.0784 101.88Z" fill="#D6DCE8"/>
<path d="M73.6838 101.88H57.6035C57.0035 101.88 56.5234 101.28 56.5234 100.56C56.5234 99.84 57.0035 99.24 57.6035 99.24H73.6838C74.2838 99.24 74.7638 99.84 74.7638 100.56C74.7638 101.4 74.2838 101.88 73.6838 101.88Z" fill="#D6DCE8"/>
<path d="M94.2043 24.8397H58.0835C57.2435 24.8397 56.5234 24.1197 56.5234 23.2797C56.5234 22.4397 57.2435 21.7197 58.0835 21.7197H94.2043C95.0443 21.7197 95.7643 22.4397 95.7643 23.2797C95.7643 24.1197 95.0443 24.8397 94.2043 24.8397Z" fill="#D6DCE8"/>
<path d="M72.0038 33.4801H58.0835C57.2435 33.4801 56.5234 32.7601 56.5234 31.9201C56.5234 31.0801 57.2435 30.3601 58.0835 30.3601H71.8838C72.7238 30.3601 73.4438 31.0801 73.4438 31.9201C73.4438 32.7601 72.7238 33.4801 72.0038 33.4801Z" fill="#D6DCE8"/>
<path d="M105.371 8.63989V29.9999C105.371 32.9999 108.011 35.3999 111.011 35.3999H129.972" fill="#D6DCE8"/>
<path d="M135.123 119.16C133.923 119.16 132.723 118.68 131.763 117.6L111.722 97.56L111.002 98.04C104.522 102.84 96.9618 105.36 89.2816 105.36C80.0414 105.36 70.8012 101.64 63.961 95.16C56.7609 88.32 52.8008 79.0799 52.8008 68.9999C52.8008 48.9599 69.1212 32.6399 89.1616 32.6399C102.842 32.6399 114.842 39.8399 121.322 52.0799C127.682 64.1999 126.842 78.3599 119.042 89.76L118.562 90.48L138.723 110.64C140.763 112.68 140.283 114.72 139.923 115.8C138.963 117.72 137.043 119.16 135.123 119.16ZM89.1616 42.5999C74.5213 42.5999 62.761 54.4799 62.761 68.9999C62.761 85.5599 76.3213 95.52 89.5216 95.52C97.5618 95.52 104.882 91.9199 110.042 85.4399C116.402 77.5199 117.482 66.8399 113.042 57.5999C108.482 48.3599 99.3618 42.5999 89.1616 42.5999Z" fill="#F1F3F9" stroke="#D6DCE8" stroke-width="2.40003" stroke-miterlimit="10"/>
<path d="M77.759 73.3198C79.319 73.3198 80.639 71.9998 80.639 70.4398C80.639 68.8798 79.319 67.5598 77.759 67.5598C76.1989 67.5598 74.8789 68.8798 74.8789 70.4398C74.8789 71.9998 76.1989 73.3198 77.759 73.3198Z" fill="#AAB2C5"/>
<path d="M99.841 73.3198C101.401 73.3198 102.721 71.9998 102.721 70.4398C102.721 68.8798 101.401 67.5598 99.841 67.5598C98.281 67.5598 96.9609 68.8798 96.9609 70.4398C96.9609 72.1198 98.281 73.3198 99.841 73.3198Z" fill="#AAB2C5"/>
<path d="M77.6479 60.9116L71.3125 64.3323L72.1677 65.9161L78.5031 62.4954L77.6479 60.9116Z" fill="#AAB2C5"/>
<path d="M99.4488 60.8659L98.5938 62.45L104.93 65.87L105.785 64.286L99.4488 60.8659Z" fill="#AAB2C5"/>
<path d="M88.8015 80.0398C90.6572 80.0398 92.1616 78.9115 92.1616 77.5198C92.1616 76.128 90.6572 74.9998 88.8015 74.9998C86.9458 74.9998 85.4414 76.128 85.4414 77.5198C85.4414 78.9115 86.9458 80.0398 88.8015 80.0398Z" fill="#AAB2C5"/>
</svg>
