<svg width="175" height="124" viewBox="0 0 175 124" fill="none" xmlns="http://www.w3.org/2000/svg">
<path d="M150.766 104.41H20.5723C28.8268 86.0219 54.7984 72.5999 85.6691 72.5999C116.473 72.5327 142.511 85.9548 150.766 104.41Z" fill="#F1F3F9" stroke="#D6DCE8" stroke-width="2.4" stroke-miterlimit="10"/>
<path d="M159.943 104.41H173.634" stroke="#D6DCE8" stroke-width="2.4" stroke-miterlimit="10" stroke-linecap="round" stroke-linejoin="round"/>
<path d="M2.70508 104.41H153.099" stroke="#D6DCE8" stroke-width="2.4" stroke-miterlimit="10" stroke-linecap="round" stroke-linejoin="round"/>
<path d="M43.8457 113.336H158.134" stroke="#D6DCE8" stroke-width="2.4" stroke-miterlimit="10" stroke-linecap="round" stroke-linejoin="round"/>
<path d="M17.6738 113.336H36.5318" stroke="#D6DCE8" stroke-width="2.4" stroke-miterlimit="10" stroke-linecap="round" stroke-linejoin="round"/>
<path d="M144.914 28.24C127.533 43.8095 117.466 62.5333 116.393 85.6863" stroke="#D6DCE8" stroke-width="4.8" stroke-miterlimit="10" stroke-linecap="round" stroke-linejoin="round"/>
<path d="M21.8909 38.7159C35.3899 50.3421 43.3522 64.4846 44.5159 82.1417" stroke="#D6DCE8" stroke-width="4.8" stroke-miterlimit="10" stroke-linecap="round" stroke-linejoin="round"/>
<path d="M145.921 28.307C145.921 28.307 140.954 22.7369 134.713 17.301L135.653 15.0192L132.633 15.5561C130.552 13.8112 128.338 12.1335 126.123 10.7913C130.418 8.24108 134.109 8.50952 137.465 10.657C143.572 14.4152 145.182 21.7302 145.921 28.307Z" fill="#F1F3F9" stroke="#D6DCE8" stroke-width="2.4" stroke-miterlimit="10"/>
<path d="M21.123 38.7822C21.123 38.7822 24.831 34.4566 29.5142 30.2145L28.7631 28.4868L31.0763 28.8517C32.6384 27.4889 34.3039 26.1753 35.9744 25.1179C32.6581 23.2351 29.8446 23.4949 27.3152 25.184C22.7095 28.1434 21.5888 33.751 21.123 38.7822Z" fill="#F1F3F9" stroke="#D6DCE8" stroke-width="2.4" stroke-miterlimit="10"/>
<path d="M143.837 27.2333C143.837 27.2333 137.663 25.6227 130.684 24.6832L130.281 22.6027L128.402 24.4147C126.053 24.1463 123.704 24.0121 121.557 24.0792C123.436 20.2539 126.12 18.7103 129.61 18.6432C135.583 18.4419 140.213 22.9383 143.837 27.2333Z" fill="#F1F3F9" stroke="#D6DCE8" stroke-width="2.4" stroke-miterlimit="10"/>
<path d="M22.6929 37.9317C22.6929 37.9317 27.3818 36.6105 32.6954 35.7896L32.9718 34.1956L34.4331 35.5507C36.222 35.3109 38.0129 35.1736 39.6532 35.1929C38.162 32.3009 36.09 31.1626 33.4252 31.1632C28.8631 31.0983 25.3953 34.5993 22.6929 37.9317Z" fill="#F1F3F9" stroke="#D6DCE8" stroke-width="2.4" stroke-miterlimit="10"/>
<path d="M145.182 29.5152C145.182 29.5152 145.048 21.5962 143.773 13.0061L146.122 11.8652L143.37 10.2545C142.9 7.43592 142.229 4.55019 141.424 2C146.591 2.93954 149.343 5.62395 150.618 9.71767C152.765 16.7642 149.007 23.7437 145.182 29.5152Z" fill="#F1F3F9" stroke="#D6DCE8" stroke-width="2.4" stroke-miterlimit="10"/>
<path d="M21.7063 39.6934C21.7063 39.6934 21.691 33.6467 22.5367 27.0708L20.7268 26.2348L22.8031 24.9645C23.1198 22.806 23.5892 20.5933 24.166 18.6348C20.2356 19.4287 18.1752 21.5187 17.2627 24.6624C15.7282 30.0731 18.7006 35.3448 21.7063 39.6934Z" fill="#F1F3F9" stroke="#D6DCE8" stroke-width="2.4" stroke-miterlimit="10"/>
<path d="M143.908 28.9109C143.908 28.9109 148.74 34.6153 153.304 41.5276L155.652 40.8565L154.713 43.7422C156.122 46.0911 157.464 48.5071 158.538 50.8559C161.625 46.9635 161.894 43.2725 160.216 39.5814C157.33 33.2059 150.284 30.5886 143.908 28.9109Z" fill="#F1F3F9" stroke="#D6DCE8" stroke-width="2.4" stroke-miterlimit="10"/>
<path d="M22.6699 39.2134C22.6699 39.2134 19.0664 43.6394 15.6858 48.9836L13.8829 48.5062L14.6429 50.695C13.6021 52.5088 12.6135 54.3729 11.8287 56.1818C9.41448 53.2566 9.15472 50.4431 10.3805 47.6007C12.4885 42.6913 17.8284 40.5888 22.6699 39.2134Z" fill="#F1F3F9" stroke="#D6DCE8" stroke-width="2.4" stroke-miterlimit="10"/>
<path d="M144.104 28.1059C144.104 28.1059 151.888 29.3138 160.277 31.7969L161.753 29.6494L162.961 32.6022C165.713 33.4747 168.464 34.4813 170.88 35.6893C170.679 30.4547 168.397 27.3005 164.505 25.4886C157.794 22.2673 150.345 25.0188 144.104 28.1059Z" fill="#F1F3F9" stroke="#D6DCE8" stroke-width="2.4" stroke-miterlimit="10"/>
<path d="M22.4998 38.6015C22.4998 38.6015 16.5755 39.6393 10.2091 41.6593L9.05022 40.042L8.17203 42.314C6.08472 43.0208 3.9994 43.8301 2.17321 44.7881C2.24909 40.7894 3.94391 38.3479 6.8881 36.9069C11.9629 34.3483 17.6899 36.3379 22.4998 38.6015Z" fill="#F1F3F9" stroke="#D6DCE8" stroke-width="2.4" stroke-miterlimit="10"/>
<path d="M146.534 25.9546C147.7 24.7887 147.7 22.8984 146.534 21.7325C145.368 20.5666 143.478 20.5666 142.312 21.7325C141.146 22.8984 141.146 24.7887 142.312 25.9546C143.478 27.1205 145.368 27.1205 146.534 25.9546Z" fill="#D6DCE8" stroke="#AAB2C5" stroke-width="2.4" stroke-miterlimit="10"/>
<path d="M20.621 36.9956C19.7137 36.1229 19.6856 34.68 20.5583 33.7728C21.4309 32.8655 22.8738 32.8374 23.7811 33.71C24.6883 34.5826 24.7164 36.0255 23.8438 36.9328C22.9712 37.8401 21.5283 37.8682 20.621 36.9956Z" fill="#D6DCE8" stroke="#AAB2C5" stroke-width="2.4" stroke-miterlimit="10"/>
<path d="M150.766 30.8301C152.409 29.1873 152.409 26.5237 150.766 24.8808C149.123 23.238 146.459 23.238 144.816 24.8808C143.174 26.5237 143.174 29.1873 144.816 30.8301C146.459 32.473 149.123 32.473 150.766 30.8301Z" fill="#D6DCE8" stroke="#AAB2C5" stroke-width="2.4" stroke-miterlimit="10"/>
<path d="M17.4609 40.7799C16.1825 39.5503 16.1429 37.5172 17.3725 36.2387C18.6021 34.9603 20.6353 34.9207 21.9137 36.1503C23.1921 37.3799 23.2317 39.4131 22.0021 40.6915C20.7725 41.97 18.7394 42.0095 17.4609 40.7799Z" fill="#D6DCE8" stroke="#AAB2C5" stroke-width="2.4" stroke-miterlimit="10"/>
<path d="M144.728 30.362C145.788 29.3021 145.788 27.5836 144.728 26.5237C143.668 25.4638 141.95 25.4638 140.89 26.5237C139.83 27.5836 139.83 29.3021 140.89 30.362C141.95 31.4219 143.668 31.4219 144.728 30.362Z" fill="#D6DCE8" stroke="#AAB2C5" stroke-width="2.4" stroke-miterlimit="10"/>
<path d="M22.0654 40.3329C21.2407 39.5397 21.2151 38.2279 22.0084 37.4031C22.8017 36.5783 24.1134 36.5528 24.9382 37.3461C25.763 38.1394 25.7886 39.4511 24.9953 40.2759C24.202 41.1007 22.8902 41.1262 22.0654 40.3329Z" fill="#D6DCE8" stroke="#AAB2C5" stroke-width="2.4" stroke-miterlimit="10"/>
<path opacity="0.4" d="M30.4902 98.1018C32.7049 97.632 35.0537 98.3031 36.7315 99.7795" stroke="#D6DCE8" stroke-width="1.2" stroke-miterlimit="10" stroke-linecap="round" stroke-linejoin="round"/>
<path opacity="0.4" d="M54.1816 90.7868C56.2621 89.9814 58.3425 89.3103 60.5571 88.7734C61.8993 88.4379 63.3086 88.2366 64.6508 88.505C65.993 88.7735 67.2681 89.7801 67.5366 91.1223" stroke="#D6DCE8" stroke-width="1.2" stroke-miterlimit="10" stroke-linecap="round" stroke-linejoin="round"/>
<path opacity="0.4" d="M84.4473 93.6723C87.1988 90.3168 92.1649 89.0417 96.1915 90.5852C97.064 90.9208 97.8693 91.3905 98.8088 91.3234C99.8155 91.2563 100.621 90.5852 101.359 89.9141C102.097 89.243 102.768 88.5048 103.708 88.1021C104.647 87.7666 105.855 87.9679 106.325 88.8404" stroke="#D6DCE8" stroke-width="1.2" stroke-miterlimit="10" stroke-linecap="round" stroke-linejoin="round"/>
<path opacity="0.4" d="M111.221 97.2966C114.643 94.9478 119.14 94.2095 123.166 95.2162" stroke="#D6DCE8" stroke-width="1.2" stroke-miterlimit="10" stroke-linecap="round" stroke-linejoin="round"/>
<path opacity="0.4" d="M48.541 83.4719C48.7423 82.3981 50.0174 81.7941 51.1583 81.9283C52.2992 81.9955 53.3058 82.5323 54.4467 82.7337C55.9231 83.0021 57.4667 82.5995 58.6746 81.6599" stroke="#D6DCE8" stroke-width="1.2" stroke-miterlimit="10" stroke-linecap="round" stroke-linejoin="round"/>
<path opacity="0.4" d="M33.9121 93.6054C36.1267 93.7396 38.4085 93.0014 40.2205 91.7263" stroke="#D6DCE8" stroke-width="1.2" stroke-miterlimit="10" stroke-linecap="round" stroke-linejoin="round"/>
<path opacity="0.4" d="M91.291 82.599C93.5056 82.2634 95.7874 82.599 97.7336 83.6056" stroke="#D6DCE8" stroke-width="1.2" stroke-miterlimit="10" stroke-linecap="round" stroke-linejoin="round"/>
<path opacity="0.6" d="M80.2169 80.3847C89.8905 80.3847 97.7326 79.1695 97.7326 77.6705C97.7326 76.1715 89.8905 74.9563 80.2169 74.9563C70.5432 74.9563 62.7012 76.1715 62.7012 77.6705C62.7012 79.1695 70.5432 80.3847 80.2169 80.3847Z" fill="#D5DAE8"/>
<path d="M62.5098 122.469H123.468" stroke="#D6DCE8" stroke-width="2.4" stroke-miterlimit="10" stroke-linecap="round" stroke-linejoin="round"/>
<path d="M103.183 53.0762C103.183 58.8363 101.13 64.0754 97.6983 68.181C93.3783 73.3589 86.8829 76.6373 79.591 76.6373C72.6054 76.6373 66.3551 73.604 62.0351 68.7938C58.3278 64.6269 56.0605 59.112 56.0605 53.0762C56.0605 40.0548 66.6002 29.5151 79.6216 29.5151C92.643 29.5151 103.183 40.0548 103.183 53.0762Z" fill="#F1F3F9" stroke="#D6DCE8" stroke-width="2.4" stroke-miterlimit="10"/>
<path d="M97.7277 68.1807C93.4077 73.3586 86.9123 76.6369 79.6203 76.6369C72.6348 76.6369 66.3845 73.6037 62.0645 68.7934C62.7998 68.2113 63.7189 67.6905 64.8526 67.2309L65.7104 66.8939C67.3343 66.2504 69.4483 65.4538 72.2977 64.2589C72.9411 63.9832 73.462 63.493 73.7377 62.8496C73.8909 62.5125 73.9829 62.1142 73.9829 61.7159V56.4155C73.8909 56.2929 73.799 56.201 73.7377 56.0784C73.2782 55.4044 72.9718 54.6078 72.8799 53.7499L72.4203 53.5354C71.0416 53.8725 71.1335 52.4018 70.7964 49.5831C70.6432 48.4188 70.8271 48.1737 71.3479 47.9899L71.7769 47.4077C69.142 41.4332 70.4594 37.6953 73.0637 36.3778C72.2058 34.4782 72.1445 33.8042 72.1445 33.8042C72.1445 33.8042 77.6901 34.7234 79.6203 34.3557C82.0408 33.8655 85.7787 34.4476 87.1574 37.6647C89.4553 38.5838 90.3745 40.0238 90.5583 41.617C90.8953 44.1294 89.4553 46.8869 89.1796 47.9592C89.2102 48.0205 89.2409 48.0511 89.2409 48.0818C89.6085 48.2656 89.7311 48.572 89.6085 49.5831C89.2715 52.2486 89.3634 53.9031 87.9847 53.5354L86.7591 55.6801C86.6979 55.9252 86.6979 56.0172 86.6672 56.201C86.6059 56.5993 86.6366 57.3959 86.6366 61.7772C86.6366 62.2981 86.7898 62.7883 87.0655 63.2479C87.3719 63.7074 87.8008 64.1057 88.3523 64.3202C88.3523 64.3202 88.383 64.3202 88.4136 64.3509C91.5694 65.6683 93.8366 66.5262 95.4911 67.1696C96.349 67.4454 97.0843 67.813 97.7277 68.1807Z" fill="white" stroke="#D6DCE8" stroke-width="2.4" stroke-miterlimit="10"/>
<path d="M89.2411 47.9286C89.3636 47.2545 89.0572 46.4273 88.8121 45.8452C88.7815 45.7532 88.7202 45.6613 88.6896 45.5388C87.6172 43.3941 85.258 42.5362 82.9908 42.4136C77.2001 42.1073 76.6792 43.2102 74.8716 41.5558C75.4231 42.4136 75.4843 43.7311 74.6265 45.3856C74.0137 46.5498 72.8494 47.0707 71.8384 47.4077C69.2034 41.4332 70.5209 37.6953 73.1252 36.3778C72.2673 34.4782 72.206 33.8042 72.206 33.8042C72.206 33.8042 77.7516 34.7234 79.6512 34.3557C82.0716 33.8655 85.8095 34.4476 87.1883 37.6647C89.4862 38.5838 90.3747 40.0238 90.5892 41.617C90.9262 44.0988 89.5168 46.8256 89.2411 47.9286Z" fill="#989FB0"/>
<path d="M73.9814 56.4154C73.8895 56.2928 73.7976 56.2009 73.7363 56.0784V55.772C74.0121 56.2622 74.3797 56.7218 74.8393 57.0894L79.0368 60.0001C80.0172 60.8273 81.4266 60.858 82.4377 60.0614L86.3594 56.5379C86.482 56.4154 86.6352 56.2928 86.7577 56.1703" stroke="#D6DCE8" stroke-width="2.4" stroke-miterlimit="10"/>
</svg>
