<svg width="11" height="10" viewBox="0 0 11 10" fill="none" xmlns="http://www.w3.org/2000/svg">
<path fill-rule="evenodd" clip-rule="evenodd" d="M1.55469 4.58317C1.55469 2.97234 2.86052 1.6665 4.47135 1.6665C6.08218 1.6665 7.38802 2.97234 7.38802 4.58317V5.41651C7.38802 7.02734 6.08218 8.33317 4.47135 8.33317C2.86052 8.33317 1.55469 7.02733 1.55469 5.4165V4.58317ZM6.13802 3.74984C6.13802 4.21007 5.76493 4.58317 5.30469 4.58317C4.84445 4.58317 4.47135 4.21007 4.47135 3.74984C4.47135 3.2896 4.84445 2.9165 5.30469 2.9165C5.76493 2.9165 6.13802 3.2896 6.13802 3.74984ZM9.88802 5.28707C9.88802 6.28349 8.77522 6.81074 8.01302 6.29013V3.70949C8.77522 3.18888 9.88802 3.71613 9.88802 4.71255V5.28707Z" fill="white"/>
</svg>
