<svg width="154" height="124" viewBox="0 0 154 124" fill="none" xmlns="http://www.w3.org/2000/svg">
<path d="M56.546 68.8888H10.0795C5.73168 68.8888 2.20654 65.3637 2.20654 61.0158V9.84126C2.20654 5.4934 5.73168 1.96826 10.0795 1.96826H143.921C148.268 1.96826 151.794 5.4934 151.794 9.84126V61.0158C151.794 65.3637 148.268 68.8888 143.921 68.8888H97.4541" fill="#D1E5FF"/>
<path d="M77.0001 122.032C93.8491 122.032 107.508 108.373 107.508 91.524C107.508 74.675 93.8491 61.0161 77.0001 61.0161C60.151 61.0161 46.4922 74.675 46.4922 91.524C46.4922 108.373 60.151 122.032 77.0001 122.032Z" fill="#FF754C"/>
<path d="M116.365 44.2855C121.256 44.2855 125.222 40.3201 125.222 35.4284C125.222 30.5368 121.256 26.5713 116.365 26.5713C111.473 26.5713 107.508 30.5368 107.508 35.4284C107.508 40.3201 111.473 44.2855 116.365 44.2855Z" fill="#A0D7E7"/>
<path d="M76.9997 44.2855C81.8914 44.2855 85.8568 40.3201 85.8568 35.4284C85.8568 30.5368 81.8914 26.5713 76.9997 26.5713C72.108 26.5713 68.1426 30.5368 68.1426 35.4284C68.1426 40.3201 72.108 44.2855 76.9997 44.2855Z" fill="#A0D7E7"/>
<path d="M37.6347 44.2855C42.5264 44.2855 46.4918 40.3201 46.4918 35.4284C46.4918 30.5368 42.5264 26.5713 37.6347 26.5713C32.7431 26.5713 28.7776 30.5368 28.7776 35.4284C28.7776 40.3201 32.7431 44.2855 37.6347 44.2855Z" fill="#A0D7E7"/>
<path d="M143.921 70.857H97.4561C96.3677 70.857 95.4878 69.9753 95.4878 68.8888C95.4878 67.8023 96.3677 66.9205 97.4561 66.9205H143.921C147.176 66.9205 149.825 64.2713 149.825 61.0158V9.84125C149.825 6.58577 147.176 3.9365 143.921 3.9365H10.0795C6.82405 3.9365 4.17478 6.58577 4.17478 9.84125V61.0158C4.17478 64.2713 6.82405 66.9205 10.0795 66.9205H56.544C57.6325 66.9205 58.5123 67.8023 58.5123 68.8888C58.5123 69.9753 57.6325 70.857 56.544 70.857H10.0795C4.65307 70.857 0.238281 66.4422 0.238281 61.0158V9.84125C0.238281 4.41479 4.65307 0 10.0795 0H143.921C149.347 0 153.762 4.41479 153.762 9.84125V61.0158C153.762 66.4422 149.347 70.857 143.921 70.857Z" fill="#1B1D21"/>
<path d="M77.0001 124C59.0929 124 44.5239 109.431 44.5239 91.524C44.5239 73.6168 59.0929 59.0479 77.0001 59.0479C94.9072 59.0479 109.476 73.6168 109.476 91.524C109.476 109.431 94.9072 124 77.0001 124ZM77.0001 62.9844C61.2639 62.9844 48.4604 75.7878 48.4604 91.524C48.4604 107.26 61.2639 120.064 77.0001 120.064C92.7362 120.064 105.54 107.26 105.54 91.524C105.54 75.7878 92.7362 62.9844 77.0001 62.9844Z" fill="#1B1D21"/>
<path d="M58.6307 93.6478L58.6311 93.6481L71.6207 104.473C71.6207 104.473 71.6208 104.473 71.6208 104.473C71.8951 104.702 72.2361 104.818 72.5715 104.818C72.9285 104.818 73.2857 104.69 73.5684 104.434L73.5691 104.434L97.3846 82.7833C97.9931 82.2312 98.0371 81.2931 97.486 80.6855C96.9357 80.0788 95.9955 80.0351 95.3901 80.5841L95.3896 80.5845L72.5297 101.366L60.533 91.3663L60.532 91.3655C59.9076 90.8476 58.9701 90.922 58.4426 91.5568C57.9192 92.1867 58.0005 93.1215 58.6307 93.6478Z" fill="white" stroke="white"/>
<path d="M116.365 45.2699C110.938 45.2699 106.524 40.8551 106.524 35.4287C106.524 30.0022 110.938 25.5874 116.365 25.5874C121.791 25.5874 126.206 30.0022 126.206 35.4287C126.206 40.8551 121.791 45.2699 116.365 45.2699ZM116.365 27.5557C112.023 27.5557 108.492 31.0867 108.492 35.4287C108.492 39.7706 112.023 43.3017 116.365 43.3017C120.707 43.3017 124.238 39.7706 124.238 35.4287C124.238 31.0867 120.707 27.5557 116.365 27.5557Z" fill="#1B1D21"/>
<path d="M76.9999 45.2699C71.5735 45.2699 67.1587 40.8551 67.1587 35.4287C67.1587 30.0022 71.5735 25.5874 76.9999 25.5874C82.4264 25.5874 86.8412 30.0022 86.8412 35.4287C86.8412 40.8551 82.4264 45.2699 76.9999 45.2699ZM76.9999 27.5557C72.658 27.5557 69.1269 31.0867 69.1269 35.4287C69.1269 39.7706 72.658 43.3017 76.9999 43.3017C81.3419 43.3017 84.8729 39.7706 84.8729 35.4287C84.8729 31.0867 81.3419 27.5557 76.9999 27.5557Z" fill="#1B1D21"/>
<path d="M37.635 45.2699C32.2085 45.2699 27.7937 40.8551 27.7937 35.4287C27.7937 30.0022 32.2085 25.5874 37.635 25.5874C43.0614 25.5874 47.4762 30.0022 47.4762 35.4287C47.4762 40.8551 43.0614 45.2699 37.635 45.2699ZM37.635 27.5557C33.293 27.5557 29.762 31.0867 29.762 35.4287C29.762 39.7706 33.293 43.3017 37.635 43.3017C41.9769 43.3017 45.508 39.7706 45.508 35.4287C45.508 31.0867 41.9769 27.5557 37.635 27.5557Z" fill="#1B1D21"/>
<path d="M137.032 9.8413H131.127C130.584 9.8413 130.143 9.40041 130.143 8.85717C130.143 8.31394 130.584 7.87305 131.127 7.87305H137.032C137.575 7.87305 138.016 8.31394 138.016 8.85717C138.016 9.40041 137.575 9.8413 137.032 9.8413Z" fill="#1B1D21"/>
<path d="M26.8095 62.9841H11.0635C9.43572 62.9841 8.11108 61.6594 8.11108 60.0317V10.8254C8.11108 9.19768 9.43572 7.87305 11.0635 7.87305H123.254C123.797 7.87305 124.238 8.31394 124.238 8.85717C124.238 9.40041 123.797 9.8413 123.254 9.8413H11.0635C10.5222 9.8413 10.0793 10.2822 10.0793 10.8254V60.0317C10.0793 60.5749 10.5222 61.0158 11.0635 61.0158H26.8095C27.3527 61.0158 27.7936 61.4567 27.7936 61.9999C27.7936 62.5432 27.3527 62.9841 26.8095 62.9841Z" fill="#1B1D21"/>
<path d="M69.2867 62.9844H34.6829C34.1396 62.9844 33.6987 62.5435 33.6987 62.0002C33.6987 61.457 34.1396 61.0161 34.6829 61.0161H69.2867C69.8299 61.0161 70.2708 61.457 70.2708 62.0002C70.2708 62.5435 69.8299 62.9844 69.2867 62.9844Z" fill="#1B1D21"/>
<path d="M142.937 62.9841H84.7139C84.1706 62.9841 83.7297 62.5432 83.7297 62C83.7297 61.4568 84.1706 61.0159 84.7139 61.0159H142.937C143.478 61.0159 143.921 60.575 143.921 60.0317V16.7302C143.921 16.187 144.362 15.7461 144.905 15.7461C145.448 15.7461 145.889 16.187 145.889 16.7302V60.0317C145.889 61.6595 144.564 62.9841 142.937 62.9841Z" fill="#1B1D21"/>
</svg>
