<svg width="200" height="200" viewBox="0 0 200 200" fill="none" xmlns="http://www.w3.org/2000/svg">
<path d="M178 58V142C178 148.628 172.628 154 166 154H34C27.372 154 22 148.628 22 142V58C22 51.372 27.372 46 34 46H166C172.628 46 178 51.372 178 58Z" fill="#D1E5FF"/>
<path d="M23.0542 63H177V83H23.0542V63Z" fill="#A0D7E7"/>
<path d="M163 98.946V111H79V98.946H163Z" fill="#FAE4B6"/>
<path d="M61 115H41C38.79 115 37 113.21 37 111V99C37 96.79 38.79 95 41 95H61C63.21 95 65 96.79 65 99V111C65 113.21 63.21 115 61 115Z" fill="#FAE4B6"/>
<path d="M166 156H34C26.28 156 20 149.72 20 142V58C20 50.28 26.28 44 34 44H166C173.72 44 180 50.28 180 58V142C180 149.72 173.72 156 166 156ZM34 48C28.486 48 24 52.486 24 58V142C24 147.514 28.486 152 34 152H166C171.514 152 176 147.514 176 142V58C176 52.486 171.514 48 166 48H34Z" fill="#1B1D21"/>
<path d="M178 84H22V62H178V84ZM24 82H176V64H24V82Z" fill="#1B1D21"/>
<path d="M163 112H79C78.448 112 78 111.554 78 111.004V98.996C78 98.446 78.448 98 79 98H163C163.552 98 164 98.446 164 98.996V111.004C164 111.554 163.552 112 163 112ZM80 110.008H162V99.992H80V110.008Z" fill="#1B1D21"/>
<path d="M61 116H41C38.244 116 36 113.756 36 111V99C36 96.244 38.244 94 41 94H61C63.756 94 66 96.244 66 99V111C66 113.756 63.756 116 61 116ZM41 96C39.346 96 38 97.346 38 99V111C38 112.654 39.346 114 41 114H61C62.654 114 64 112.654 64 111V99C64 97.346 62.654 96 61 96H41Z" fill="#1B1D21"/>
<path d="M83 128H37C36.448 128 36 127.552 36 127C36 126.448 36.448 126 37 126H83C83.552 126 84 126.448 84 127C84 127.552 83.552 128 83 128Z" fill="#1B1D21"/>
<path d="M113 128H89C88.448 128 88 127.552 88 127C88 126.448 88.448 126 89 126H113C113.552 126 114 126.448 114 127C114 127.552 113.552 128 113 128Z" fill="#1B1D21"/>
<path d="M101 138H37C36.448 138 36 137.552 36 137C36 136.448 36.448 136 37 136H101C101.552 136 102 136.448 102 137C102 137.552 101.552 138 101 138Z" fill="#1B1D21"/>
<path d="M50.1576 62.4506L37.1641 82.4551L38.8413 83.5445L51.8349 63.54L50.1576 62.4506Z" fill="#1B1D21"/>
<path d="M34.1586 62.4521L21.165 82.4567L22.8423 83.5461L35.8359 63.5416L34.1586 62.4521Z" fill="#1B1D21"/>
<path d="M66.1576 62.4506L53.1641 82.4551L54.8413 83.5445L67.8349 63.54L66.1576 62.4506Z" fill="#1B1D21"/>
<path d="M82.1576 62.4506L69.1641 82.4551L70.8413 83.5445L83.8349 63.54L82.1576 62.4506Z" fill="#1B1D21"/>
<path d="M98.1576 62.4506L85.1641 82.4551L86.8413 83.5445L99.8349 63.54L98.1576 62.4506Z" fill="#1B1D21"/>
<path d="M114.158 62.4506L101.164 82.4551L102.841 83.5445L115.835 63.54L114.158 62.4506Z" fill="#1B1D21"/>
<path d="M130.158 62.4506L117.164 82.4551L118.841 83.5445L131.835 63.54L130.158 62.4506Z" fill="#1B1D21"/>
<path d="M146.155 62.4497L133.162 82.4542L134.839 83.5436L147.832 63.5391L146.155 62.4497Z" fill="#1B1D21"/>
<path d="M162.155 62.4497L149.162 82.4542L150.839 83.5436L163.832 63.5391L162.155 62.4497Z" fill="#1B1D21"/>
<path d="M178.155 62.4497L165.162 82.4542L166.839 83.5436L179.832 63.5391L178.155 62.4497Z" fill="#1B1D21"/>
<path d="M162.18 119.872C165.163 118.636 168.361 118 171.59 118C174.819 118 178.017 118.636 181 119.872C183.984 121.108 186.694 122.919 188.978 125.202C191.261 127.486 193.072 130.196 194.308 133.18C195.544 136.163 196.18 139.361 196.18 142.59C196.18 145.819 195.544 149.017 194.308 152C193.072 154.984 191.261 157.694 188.978 159.978C186.694 162.261 183.984 164.072 181 165.308C178.017 166.544 174.819 167.18 171.59 167.18C168.361 167.18 165.163 166.544 162.18 165.308C159.196 164.072 156.486 162.261 154.202 159.978C151.919 157.694 150.108 154.984 148.872 152C147.636 149.017 147 145.819 147 142.59C147 139.361 147.636 136.163 148.872 133.18C150.108 130.196 151.919 127.486 154.202 125.202C156.486 122.919 159.196 121.108 162.18 119.872Z" fill="#FF754C" stroke="#1B1D21" stroke-width="4"/>
<path d="M168.465 151.128L168.457 151.128C168.145 151.118 167.856 150.982 167.648 150.756L167.646 150.754L159.207 141.491L159.206 141.49C158.782 141.023 158.801 140.291 159.26 139.851L159.261 139.849L159.261 139.849C159.725 139.409 160.458 139.426 160.894 139.906C160.894 139.906 160.894 139.906 160.894 139.907L168.534 148.293L182.619 134.457L168.465 151.128ZM168.465 151.128H168.472M168.465 151.128H168.472M168.472 151.128H168.472H168.472H168.472H168.472H168.472H168.472H168.472H168.473H168.473H168.473H168.473H168.473H168.473H168.473H168.473H168.473H168.473H168.473H168.473H168.473H168.473H168.473H168.473H168.473H168.473H168.473H168.473H168.473H168.473H168.473H168.473H168.473H168.473H168.473H168.474H168.474H168.474H168.474H168.474H168.474H168.474H168.474H168.474H168.474H168.474H168.474H168.474H168.474H168.474H168.474H168.474H168.474H168.474H168.474H168.474H168.474H168.474H168.474H168.474H168.474H168.474H168.475H168.475H168.475H168.475H168.475H168.475H168.475H168.475H168.475H168.475H168.475H168.475H168.475H168.475H168.475H168.475H168.475H168.475H168.475H168.475H168.475H168.475H168.475H168.475H168.475H168.475H168.475H168.475H168.476H168.476H168.476H168.476H168.476H168.476H168.476H168.476H168.476H168.476H168.476H168.476H168.476H168.476H168.476H168.476H168.476H168.476H168.476H168.476H168.476H168.476H168.476H168.476H168.476H168.476H168.476H168.476H168.477H168.477H168.477H168.477H168.477H168.477H168.477H168.477H168.477H168.477H168.477H168.477H168.477H168.477H168.477H168.477H168.477H168.477H168.477H168.477H168.477H168.477H168.477H168.477H168.477H168.477H168.477H168.477H168.478H168.478H168.478H168.478H168.478H168.478H168.478H168.478H168.478H168.478H168.478H168.478H168.478H168.478H168.478H168.478H168.478H168.478H168.478H168.478H168.478H168.478H168.478H168.478H168.478H168.478H168.478H168.478H168.478H168.479H168.479H168.479H168.479H168.479H168.479H168.479H168.479H168.479H168.479H168.479H168.479H168.479H168.479H168.479H168.479H168.479H168.479H168.479H168.479H168.479H168.479H168.479H168.479H168.479H168.479H168.479H168.479H168.479H168.48H168.48H168.48H168.48H168.48H168.48H168.48H168.48H168.48H168.48H168.48H168.48H168.48H168.48H168.48H168.48H168.48H168.48H168.48H168.48H168.48H168.48H168.48H168.48H168.48H168.48H168.48H168.48H168.48H168.481H168.481H168.481H168.481H168.481H168.481H168.481H168.481H168.481H168.481H168.481H168.481H168.481H168.481H168.481H168.481H168.481H168.481H168.481H168.481H168.481H168.481H168.481H168.481H168.481H168.481H168.481H168.481H168.481H168.482H168.482H168.482H168.482H168.482H168.482H168.482H168.482H168.482H168.482H168.482H168.482H168.482H168.482H168.482H168.482H168.482H168.482H168.482H168.482H168.482H168.482H168.482H168.482H168.482H168.482H168.482H168.482H168.482H168.483H168.483H168.483H168.483H168.483H168.483H168.483H168.483H168.483H168.483H168.483H168.483H168.483H168.483H168.483H168.483H168.483H168.483H168.483H168.483H168.483H168.483H168.483H168.483H168.483H168.483H168.483H168.483H168.483H168.483H168.484H168.484H168.484H168.484H168.484H168.484H168.484H168.484H168.484H168.484H168.484H168.484H168.484H168.484H168.484H168.484H168.484H168.484H168.484H168.484H168.484H168.484H168.484H168.484H168.484H168.484H168.484H168.484H168.484H168.485H168.485H168.485H168.485H168.485H168.485H168.485H168.485H168.485H168.485H168.485H168.485H168.485H168.485H168.485H168.485H168.485H168.485H168.485H168.485H168.485H168.485H168.485H168.485H168.485H168.485H168.485H168.485H168.486H168.486H168.486H168.486H168.486H168.486H168.486H168.486H168.486H168.486H168.486H168.486H168.486H168.486H168.486H168.486H168.486H168.486H168.486H168.486H168.486H168.486H168.486H168.486H168.486H168.486H168.486H168.486H168.487H168.487H168.487H168.487H168.487H168.487H168.487H168.487H168.487H168.487H168.487H168.487H168.487H168.487H168.487H168.487H168.487H168.487H168.487H168.487H168.487H168.487H168.487H168.487H168.487H168.487H168.487H168.487H168.488H168.488H168.488H168.488H168.488H168.488H168.488H168.488H168.488H168.488H168.488H168.488H168.488H168.488H168.488H168.488H168.488H168.488H168.488H168.488H168.488H168.488H168.488H168.488H168.488H168.488H168.488H168.488H168.489H168.489H168.489H168.489H168.489H168.489H168.489H168.489H168.489H168.489H168.489H168.489H168.489H168.489H168.489H168.489H168.489H168.489H168.489H168.489H168.489H168.489H168.489H168.489H168.489H168.489H168.489H168.49H168.49H168.49H168.49H168.49H168.49H168.49H168.49H168.49H168.49H168.49H168.49H168.49H168.49H168.49H168.49H168.49H168.49H168.49H168.49H168.49H168.49H168.49H168.49C168.792 151.128 169.076 151.008 169.287 150.801L184.217 136.135C184.217 136.135 184.217 136.135 184.217 136.134C184.673 135.689 184.684 134.955 184.255 134.494L184.255 134.494M168.472 151.128L184.255 134.494M184.255 134.494C183.816 134.022 183.08 134.003 182.62 134.456L184.255 134.494Z" fill="white" stroke="white"/>
</svg>
