<svg width="66" height="66" viewBox="0 0 66 66" fill="none" xmlns="http://www.w3.org/2000/svg">
<rect width="66" height="66" rx="10" fill="#F0F3F6"/>
<path d="M30.0253 24.6002H39.9594C41.8631 24.6002 43.4399 24.8949 44.6504 25.4776L44.9072 25.337C44.9672 24.761 44.9994 24.1562 44.9994 23.5202C44.9994 19.4776 42.1194 16.2002 35.3994 16.2002H24.1693C23.4604 16.2002 22.857 16.7162 22.7466 17.4165L18.1309 46.7709C18.0397 47.3536 18.49 47.8802 19.0794 47.8802H25.2796L24.8509 50.6114C24.813 50.8524 24.8716 51.0808 24.9906 51.269L29.0423 25.4397C29.1196 24.9535 29.5324 24.6002 30.0253 24.6002Z" fill="#3070B7"/>
<path d="M44.9083 25.3369L44.6515 25.4775C43.441 24.8948 41.8642 24.6001 39.9605 24.6001H30.0264C29.5339 24.6001 29.1207 24.9534 29.0439 25.4401L24.9922 51.2694C25.1607 51.5363 25.4549 51.7201 25.8005 51.7201H26.4883H31.5907C32.2997 51.7201 32.9031 51.2041 33.0135 50.5038L34.2159 42.8564C34.3263 42.1561 34.9296 41.6401 35.6386 41.6401H37.333C41.2978 41.6401 47.8805 39.1715 47.8805 30.6342C47.8805 28.4036 47.0765 26.4495 44.9083 25.3369Z" fill="#40A6DD"/>
<path d="M30.0253 24.6001C29.5329 24.6001 29.1196 24.9534 29.0428 25.4401L27.3906 35.9732C27.6724 35.7625 28.0213 35.6401 28.3991 35.6401H32.6946C34.5047 35.6401 43.5445 35.1486 44.6509 25.4775C43.4399 24.8948 41.8631 24.6001 39.9594 24.6001H30.0253Z" fill="#375CA9"/>
<path d="M31.5908 52.2002H25.8006C25.3792 52.2002 24.9803 52.0164 24.7067 51.6962C24.4326 51.3756 24.3131 50.9532 24.3779 50.537L24.7196 48.3602H19.0806C18.6592 48.3602 18.2603 48.1764 17.9867 47.8562C17.7126 47.5356 17.5931 47.1132 17.6579 46.6965L22.2736 17.3421C22.4219 16.4023 23.2192 15.7202 24.1705 15.7202H35.4006C41.7121 15.7202 45.4806 18.6362 45.4806 23.5202C45.4806 24.042 45.459 24.5609 45.4163 25.0673C47.3444 26.1804 48.3606 28.098 48.3606 30.6343C48.3606 39.7197 41.1476 42.1202 37.3331 42.1202H35.6387C35.163 42.1202 34.7641 42.4615 34.6902 42.9309L33.4878 50.5783C33.34 51.5181 32.5422 52.2002 31.5908 52.2002ZM24.1705 16.6802C23.6953 16.6802 23.2964 17.0215 23.2225 17.4909L18.6068 46.8453C18.5843 46.986 18.6232 47.1233 18.7163 47.2322C18.8089 47.3407 18.938 47.4002 19.0806 47.4002H25.8419L25.3268 50.6863C25.3048 50.8269 25.3432 50.9637 25.4363 51.0722C25.5289 51.1807 25.658 51.2402 25.8006 51.2402H31.5908C32.0665 51.2402 32.4654 50.8989 32.5393 50.4295L33.7417 42.7821C33.89 41.8423 34.6878 41.1602 35.6387 41.1602H37.3331C41.0723 41.1602 47.4006 38.9436 47.4006 30.6343C47.4006 28.3255 46.4886 26.6868 44.69 25.7642L44.3977 25.614L44.4313 25.2876C44.4908 24.714 44.5206 24.1193 44.5206 23.5202C44.5206 19.1733 41.1966 16.6802 35.4006 16.6802H24.1705Z" fill="#1F212B"/>
<path d="M27.0625 36.5192L28.8063 25.4034C28.9019 24.7986 29.4145 24.3604 30.026 24.3604H39.9601C41.8993 24.3604 43.5126 24.6637 44.7553 25.2618L44.9089 25.3357L44.8897 25.5052C43.7598 35.3802 34.5327 35.8804 32.6948 35.8804H28.3993C28.0835 35.8804 27.7844 35.9792 27.5348 36.166L27.0625 36.5192ZM30.026 24.8404C29.6526 24.8404 29.3387 25.1087 29.2806 25.4778L27.7038 35.528C27.9227 35.444 28.1574 35.4004 28.3993 35.4004H32.6948C34.4507 35.4004 43.2222 34.9276 44.3919 25.6223C43.2356 25.1034 41.7462 24.8404 39.9601 24.8404H30.026Z" fill="#1F212B"/>
<path d="M27.15 35.9377L25.2051 48.3916L25.6793 48.4657L27.6242 36.0118L27.15 35.9377Z" fill="#1F212B"/>
<path d="M20.4847 45.9601C20.4722 45.9601 20.4593 45.9592 20.4468 45.9572C20.3162 45.9366 20.2265 45.8137 20.2471 45.6827L24.3578 19.539C24.4874 18.7168 25.1853 18.1201 26.0177 18.1201H29.8807C30.0132 18.1201 30.1207 18.2276 30.1207 18.3601C30.1207 18.4926 30.0132 18.6001 29.8807 18.6001H26.0177C25.4234 18.6001 24.9247 19.0264 24.8321 19.6139L20.7213 45.7576C20.7026 45.8756 20.6004 45.9601 20.4847 45.9601Z" fill="#1F212B"/>
<path d="M33.2405 18.6001H31.8005C31.6681 18.6001 31.5605 18.4926 31.5605 18.3601C31.5605 18.2276 31.6681 18.1201 31.8005 18.1201H33.2405C33.373 18.1201 33.4805 18.2276 33.4805 18.3601C33.4805 18.4926 33.373 18.6001 33.2405 18.6001Z" fill="#1F212B"/>
<path d="M35.1614 18.6001H34.6814C34.5489 18.6001 34.4414 18.4926 34.4414 18.3601C34.4414 18.2276 34.5489 18.1201 34.6814 18.1201H35.1614C35.2939 18.1201 35.4014 18.2276 35.4014 18.3601C35.4014 18.4926 35.2939 18.6001 35.1614 18.6001Z" fill="#1F212B"/>
<path d="M36.6009 39.7202H36.1209C35.9884 39.7202 35.8809 39.6127 35.8809 39.4802C35.8809 39.3478 35.9884 39.2402 36.1209 39.2402H36.6009C36.7333 39.2402 36.8409 39.3478 36.8409 39.4802C36.8409 39.6127 36.7333 39.7202 36.6009 39.7202Z" fill="#1F212B"/>
<path d="M40.9198 38.9317C40.8271 38.9317 40.7383 38.8775 40.699 38.7863C40.6471 38.6644 40.7033 38.5232 40.8252 38.4709C42.9487 37.5618 45.4798 35.4642 45.4798 30.6344C45.4798 30.2015 45.4395 29.8151 45.3569 29.4536C45.3271 29.3245 45.4078 29.1959 45.5374 29.1661C45.6679 29.1354 45.7951 29.2175 45.8249 29.3466C45.9156 29.744 45.9598 30.165 45.9598 30.6344C45.9598 35.7253 43.2703 37.9458 41.0143 38.9125C40.9836 38.926 40.951 38.9317 40.9198 38.9317Z" fill="#1F212B"/>
<path d="M38.0402 39.6752C37.9192 39.6752 37.8146 39.5835 37.8021 39.4601C37.7882 39.3286 37.8837 39.21 38.0157 39.1966C38.4722 39.1486 38.9589 39.0612 39.4216 38.9441C39.5517 38.9096 39.6804 38.9892 39.713 39.1174C39.7456 39.2456 39.6679 39.3766 39.5397 39.4088C39.0482 39.5336 38.5519 39.6228 38.0656 39.6737C38.057 39.6747 38.0488 39.6752 38.0402 39.6752Z" fill="#1F212B"/>
</svg>
