<svg width="24" height="24" viewBox="0 0 24 24" fill="none" xmlns="http://www.w3.org/2000/svg">
<path d="M3 20V6C3 3.79086 4.79086 2 7 2H17C19.2091 2 21 3.79086 21 6V14C21 16.2091 19.2091 18 17 18H5C3.89543 18 3 18.8954 3 20ZM3 20C3 21.1046 3.89543 22 5 22H21M11.1708 12.9146L14.3167 11.3416C15.4223 10.7889 15.4223 9.21115 14.3167 8.65836L11.1708 7.08541C10.1735 6.58673 9 7.31198 9 8.42705V11.5729C9 12.688 10.1735 13.4133 11.1708 12.9146Z" stroke="#808191" stroke-width="1.5" stroke-linecap="round" stroke-linejoin="round"/>
</svg>
