<svg width="25" height="24" viewBox="0 0 25 24" fill="none" xmlns="http://www.w3.org/2000/svg">
<path opacity="0.4" d="M11.9997 11.4906V11.9906C12.2758 11.9906 12.4997 11.7667 12.4997 11.4906H11.9997ZM11.9997 12.4906H12.4997C12.4997 12.2144 12.2758 11.9906 11.9997 11.9906V12.4906ZM12.9997 12.4906V11.9906C12.7235 11.9906 12.4997 12.2144 12.4997 12.4906H12.9997ZM12.9997 11.4906H12.4997C12.4997 11.7667 12.7235 11.9906 12.9997 11.9906V11.4906ZM12.4997 8.32739H12.4997H13.4997C13.4997 7.77511 13.052 7.32739 12.4997 7.32739V8.32739ZM12.4997 8.32739V7.32739C11.9474 7.32739 11.4997 7.77511 11.4997 8.32739H12.4997ZM12.4997 11.4906V8.32739H11.4997V11.4906H12.4997ZM8.83301 11.9906H11.9997V10.9906H8.83301V11.9906ZM8.83301 11.9906V10.9906C8.28072 10.9906 7.83301 11.4383 7.83301 11.9906H8.83301ZM8.83301 11.9906H7.83301C7.83301 12.5429 8.28072 12.9906 8.83301 12.9906V11.9906ZM11.9997 11.9906H8.83301V12.9906H11.9997V11.9906ZM12.4997 15.6537V12.4906H11.4997V15.6537H12.4997ZM12.4997 15.6537H11.4997C11.4997 16.206 11.9474 16.6537 12.4997 16.6537V15.6537ZM12.4997 15.6537H12.4997V16.6537C13.052 16.6537 13.4997 16.206 13.4997 15.6537H12.4997ZM12.4997 12.4906V15.6537H13.4997V12.4906H12.4997ZM16.1663 11.9906H12.9997V12.9906H16.1663V11.9906ZM16.1663 11.9906V12.9906C16.7186 12.9906 17.1663 12.5429 17.1663 11.9906H16.1663ZM16.1663 11.9906H17.1663C17.1663 11.4383 16.7186 10.9906 16.1663 10.9906V11.9906ZM12.9997 11.9906H16.1663V10.9906H12.9997V11.9906ZM12.4997 8.32739V11.4906H13.4997V8.32739H12.4997Z" fill="#11142D"/>
<path fill-rule="evenodd" clip-rule="evenodd" d="M17.1857 2H7.81429C4.54762 2 2.5 4.31208 2.5 7.58516V16.4148C2.5 19.6879 4.5381 22 7.81429 22H17.1857C20.4619 22 22.5 19.6879 22.5 16.4148V7.58516C22.5 4.31208 20.4619 2 17.1857 2Z" stroke="#808191" stroke-width="1.5" stroke-linecap="round" stroke-linejoin="round"/>
</svg>
