<svg width="160" height="160" viewBox="0 0 160 160" fill="none" xmlns="http://www.w3.org/2000/svg">
<path d="M70.0857 52H103.199C109.545 52 114.801 52.9824 118.836 54.9248L119.692 54.456C119.892 52.536 119.999 50.52 119.999 48.4C119.999 34.9248 110.399 24 87.9993 24H50.5657C48.2025 24 46.1913 25.72 45.8233 28.0544L30.4377 125.902C30.1337 127.845 31.6345 129.6 33.5993 129.6H54.2665L52.8377 138.704C52.7113 139.507 52.9065 140.269 53.3033 140.896L66.8089 54.7984C67.0665 53.1776 68.4425 52 70.0857 52Z" fill="#3070B7"/>
<path d="M119.692 54.456L118.836 54.9248C114.801 52.9824 109.545 52 103.199 52H70.0855C68.4439 52 67.0663 53.1776 66.8103 54.8L53.3047 140.898C53.8663 141.787 54.8471 142.4 55.9991 142.4H58.2919H75.2999C77.6631 142.4 79.6743 140.68 80.0423 138.346L84.0503 112.854C84.4183 110.52 86.4295 108.8 88.7927 108.8H94.4407C107.657 108.8 129.599 100.571 129.599 72.1136C129.599 64.6784 126.919 58.1648 119.692 54.456Z" fill="#40A6DD"/>
<path d="M70.0871 52C68.4455 52 67.0679 53.1776 66.8119 54.8L61.3047 89.9104C62.2439 89.208 63.4071 88.8 64.6663 88.8H78.9847C85.0183 88.8 115.151 87.1616 118.839 54.9248C114.802 52.9824 109.546 52 103.201 52H70.0871Z" fill="#375CA9"/>
<path d="M75.3015 144H56.0007C54.5959 144 53.2663 143.387 52.3543 142.32C51.4407 141.251 51.0423 139.843 51.2583 138.456L52.3975 131.2H33.6007C32.1959 131.2 30.8663 130.587 29.9543 129.52C29.0407 128.451 28.6423 127.043 28.8583 125.654L44.2439 27.8063C44.7383 24.6735 47.3959 22.3999 50.5671 22.3999H88.0007C109.039 22.3999 121.601 32.1199 121.601 48.3999C121.601 50.1391 121.529 51.8687 121.386 53.5567C127.813 57.2671 131.201 63.6591 131.201 72.1135C131.201 102.398 107.157 110.4 94.4423 110.4H88.7943C87.2087 110.4 85.8791 111.538 85.6327 113.102L81.6247 138.594C81.1319 141.726 78.4727 144 75.3015 144ZM50.5671 25.5999C48.9831 25.5999 47.6535 26.7375 47.4071 28.3023L32.0215 126.15C31.9463 126.619 32.0759 127.077 32.3863 127.44C32.6951 127.802 33.1255 128 33.6007 128H56.1383L54.4215 138.954C54.3479 139.422 54.4759 139.878 54.7863 140.24C55.0951 140.602 55.5255 140.8 56.0007 140.8H75.3015C76.8871 140.8 78.2167 139.662 78.4631 138.098L82.4711 112.606C82.9655 109.474 85.6247 107.2 88.7943 107.2H94.4423C106.906 107.2 128.001 99.8111 128.001 72.1135C128.001 64.4175 124.961 58.9551 118.965 55.8799L117.991 55.3791L118.103 54.2911C118.301 52.3791 118.401 50.3967 118.401 48.3999C118.401 33.9103 107.321 25.5999 88.0007 25.5999H50.5671Z" fill="#1F212B"/>
<path d="M60.209 91.7293L66.0218 54.6765C66.3402 52.6605 68.049 51.1997 70.0874 51.1997H103.201C109.665 51.1997 115.043 52.2109 119.185 54.2045L119.697 54.4509L119.633 55.0157C115.867 87.9325 85.1098 89.5997 78.9834 89.5997H64.665C63.6122 89.5997 62.6154 89.9293 61.7834 90.5517L60.209 91.7293ZM70.0874 52.7997C68.8426 52.7997 67.7962 53.6941 67.6026 54.9245L62.3466 88.4253C63.0762 88.1453 63.8586 87.9997 64.665 87.9997H78.9834C84.8362 87.9997 114.075 86.4237 117.974 55.4061C114.119 53.6765 109.155 52.7997 103.201 52.7997H70.0874Z" fill="#1F212B"/>
<path d="M60.4966 89.7918L54.0137 131.305L55.5945 131.552L62.0774 90.0387L60.4966 89.7918Z" fill="#1F212B"/>
<path d="M38.2804 123.2C38.2388 123.2 38.1956 123.197 38.154 123.19C37.7188 123.122 37.4196 122.712 37.4884 122.275L51.1908 35.1295C51.6228 32.3887 53.9492 30.3999 56.7236 30.3999H69.6004C70.042 30.3999 70.4004 30.7583 70.4004 31.1999C70.4004 31.6415 70.042 31.9999 69.6004 31.9999H56.7236C54.7428 31.9999 53.0804 33.4207 52.7716 35.3791L39.0692 122.525C39.0068 122.918 38.666 123.2 38.2804 123.2Z" fill="#1F212B"/>
<path d="M80.8012 31.9999H76.0012C75.5596 31.9999 75.2012 31.6415 75.2012 31.1999C75.2012 30.7583 75.5596 30.3999 76.0012 30.3999H80.8012C81.2428 30.3999 81.6012 30.7583 81.6012 31.1999C81.6012 31.6415 81.2428 31.9999 80.8012 31.9999Z" fill="#1F212B"/>
<path d="M87.2008 31.9999H85.6008C85.1592 31.9999 84.8008 31.6415 84.8008 31.1999C84.8008 30.7583 85.1592 30.3999 85.6008 30.3999H87.2008C87.6424 30.3999 88.0008 30.7583 88.0008 31.1999C88.0008 31.6415 87.6424 31.9999 87.2008 31.9999Z" fill="#1F212B"/>
<path d="M92.0016 102.4H90.4016C89.96 102.4 89.6016 102.041 89.6016 101.6C89.6016 101.158 89.96 100.8 90.4016 100.8H92.0016C92.4432 100.8 92.8016 101.158 92.8016 101.6C92.8016 102.041 92.4432 102.4 92.0016 102.4Z" fill="#1F212B"/>
<path d="M106.4 99.7713C106.091 99.7713 105.795 99.5905 105.664 99.2865C105.491 98.8801 105.678 98.4097 106.085 98.2353C113.163 95.2049 121.6 88.2129 121.6 72.1137C121.6 70.6705 121.466 69.3825 121.19 68.1777C121.091 67.7473 121.36 67.3185 121.792 67.2193C122.227 67.1169 122.651 67.3905 122.75 67.8209C123.053 69.1457 123.2 70.5489 123.2 72.1137C123.2 89.0833 114.235 96.4849 106.715 99.7073C106.613 99.7521 106.504 99.7713 106.4 99.7713Z" fill="#1F212B"/>
<path d="M96.7981 102.249C96.3949 102.249 96.0461 101.944 96.0045 101.533C95.9581 101.094 96.2765 100.699 96.7165 100.654C98.2381 100.494 99.8605 100.203 101.403 99.8126C101.836 99.6974 102.265 99.963 102.374 100.39C102.483 100.817 102.224 101.254 101.796 101.361C100.158 101.777 98.5037 102.075 96.8829 102.245C96.8541 102.248 96.8269 102.249 96.7981 102.249Z" fill="#1F212B"/>
<rect x="141.729" y="13.5179" width="6" height="182" rx="3" transform="rotate(45 141.729 13.5179)" fill="#1B1D21" stroke="white" stroke-width="2"/>
</svg>
