<svg width="160" height="160" viewBox="0 0 160 160" fill="none" xmlns="http://www.w3.org/2000/svg">
<path d="M142.4 43.1998V116.8C142.4 120.334 139.534 123.2 136 123.2H23.9996C20.4652 123.2 17.5996 120.334 17.5996 116.8V43.1998C17.5996 39.6654 20.4652 36.7998 23.9996 36.7998H136C139.534 36.7998 142.4 39.6654 142.4 43.1998Z" fill="#09ACE3"/>
<path d="M116 79.2002C116 76.8002 117.132 75.2002 118.876 75.2002C120.592 75.2002 121.6 76.8002 121.6 79.2002H116ZM127.2 81.4194C127.2 78.2274 126.478 75.7042 125.067 73.9282C123.627 72.125 121.465 71.2002 118.72 71.2002C113.092 71.2002 109.6 75.2162 109.6 81.653C109.6 85.2578 110.532 87.9602 112.374 89.6834C114.028 91.2274 116.4 92.0002 119.467 92.0002C124.8 92.0002 126.56 90.3026 126.56 90.3026L125.838 85.9266C124.212 86.7762 122.4 87.2002 120.8 87.2002C116.8 87.2002 116.134 84.5122 116 83.2002H127.12C127.145 82.8898 127.2 81.8818 127.2 81.4194Z" fill="white"/>
<path d="M99.1352 85.7026C98.6248 86.6818 97.8328 87.2002 96.9128 87.2002C96.2744 87.2002 95.7112 87.0706 95.2008 86.8146V77.2642C96.2744 76.1282 97.2424 76.0002 97.6008 76.0002C99.2088 76.0002 100.001 77.7554 100.001 81.1874C100.004 83.1474 99.724 84.6706 99.1352 85.7026ZM104.463 73.4018C103.327 71.9266 101.758 71.2002 99.7448 71.2002C97.8904 71.2002 96.2648 71.9778 94.7432 73.6082L94.4008 71.2002H88.8008V100L95.2008 98.9378V91.5618C96.18 91.8722 97.1688 92.0002 98.0728 92.0002C99.6712 92.0002 101.991 91.7074 103.796 89.7394C105.524 87.8482 106.401 84.9218 106.401 81.0658C106.398 77.6482 105.753 75.0594 104.463 73.4018Z" fill="white"/>
<path d="M85.5992 71.2002H79.1992V92.0002H85.5992V71.2002Z" fill="white"/>
<path d="M82.4104 68.0001C84.1752 68.0001 85.5992 66.5585 85.5992 64.8001C85.5992 63.0161 84.1752 61.6001 82.4104 61.6001C80.62 61.6001 79.1992 63.0177 79.1992 64.8001C79.1992 66.5585 80.62 68.0001 82.4104 68.0001Z" fill="white"/>
<path d="M74.9412 71.2002C73.3668 71.2002 72.1076 71.8578 71.6148 73.6002L71.2004 71.2002H66.4004V92.0002H72.0004V78.8866C72.698 77.885 73.8516 77.6002 75.2004 77.6002C75.4932 77.6002 76.0004 77.6002 76.0004 77.6002V71.3554C75.6164 71.253 75.2772 71.2002 74.9412 71.2002Z" fill="white"/>
<path d="M62.4004 76.0001L63.2004 71.2001H59.2004V65.6001L53.786 66.5105L53.0068 71.4033L51.1092 71.7201L50.4004 76.0001H53.6004V85.3777C53.6004 87.8193 54.4004 92.0001 59.4884 92.0001C62.4004 92.0001 63.2004 91.2001 63.2004 91.2001V86.4001C62.8212 86.5025 61.5428 86.7537 60.9604 86.7537C59.7188 86.7537 59.186 86.1041 59.186 84.6241L59.2004 76.0001H62.4004Z" fill="white"/>
<path d="M43.2516 79.2273C41.4212 78.5393 40.426 77.9889 40.426 77.1361C40.426 76.4129 41.0004 76.0001 42.0276 76.0001C43.9044 76.0001 45.8292 76.6705 47.1524 77.3425L47.9028 72.5697C46.8516 72.0545 44.7028 71.2017 41.7284 71.2017C39.6276 71.2017 37.8788 71.7697 36.6276 72.8273C35.3284 73.9361 34.6516 75.5361 34.6516 77.4737C34.6516 80.9825 36.7252 82.4817 40.1028 83.7457C42.2788 84.5457 43.0036 84.9841 43.0036 85.8625C43.0036 86.7153 42.3028 87.2033 41.0276 87.2033C39.4532 87.2033 36.8516 86.4801 35.1524 85.4481L34.4004 90.2705C35.8516 91.1233 38.5508 92.0001 41.3508 92.0001C43.5748 92.0001 45.4276 91.5121 46.6756 90.4769C48.0756 89.3409 48.8004 87.6625 48.8004 85.4961C48.8004 81.9137 46.6676 80.5121 43.2516 79.2273Z" fill="white"/>
<path d="M136 124.8H24C19.5888 124.8 16 121.211 16 116.8V43.2002C16 38.789 19.5888 35.2002 24 35.2002H136C140.411 35.2002 144 38.789 144 43.2002V116.8C144 121.211 140.411 124.8 136 124.8ZM24 38.4002C21.3536 38.4002 19.2 40.5538 19.2 43.2002V116.8C19.2 119.447 21.3536 121.6 24 121.6H136C138.646 121.6 140.8 119.447 140.8 116.8V43.2002C140.8 40.5538 138.646 38.4002 136 38.4002H24Z" fill="#1F212B"/>
<path d="M121.599 80.0004H115.999C115.558 80.0004 115.199 79.642 115.199 79.2004C115.199 76.33 116.678 74.4004 118.876 74.4004C121.017 74.4004 122.399 76.2852 122.399 79.2004C122.399 79.642 122.041 80.0004 121.599 80.0004ZM116.854 78.4004H120.753C120.598 77.1332 120.05 76.0004 118.876 76.0004C117.617 76.0004 117.025 77.1652 116.854 78.4004Z" fill="#1F212B"/>
<path d="M119.468 92.8004C116.199 92.8004 113.63 91.9476 111.83 90.2676C109.82 88.3876 108.801 85.49 108.801 81.6532C108.801 74.818 112.695 70.4004 118.721 70.4004C121.7 70.4004 124.111 71.4468 125.692 73.4292C127.225 75.3556 128.001 78.0436 128.001 81.4196C128.001 81.898 127.945 82.9428 127.918 83.2644C127.884 83.6804 127.538 84.0004 127.121 84.0004H116.964C117.434 85.594 118.721 86.4004 120.801 86.4004C122.353 86.4004 124.01 85.9796 125.471 85.2164C125.698 85.098 125.97 85.0948 126.199 85.21C126.428 85.3252 126.59 85.5428 126.631 85.7956L127.351 90.1716C127.394 90.4308 127.308 90.6948 127.118 90.8772C126.913 91.074 124.966 92.8004 119.468 92.8004ZM118.721 72.0004C113.511 72.0004 110.401 75.6084 110.401 81.6532C110.401 85.0292 111.249 87.5348 112.921 89.0996C114.415 90.4932 116.618 91.2004 119.468 91.2004C123.148 91.2004 125.002 90.3556 125.692 89.9412L125.223 87.0964C123.798 87.6836 122.26 88.0004 120.801 88.0004C117.551 88.0004 115.511 86.2804 115.206 83.282C115.182 83.0564 115.255 82.8324 115.407 82.6644C115.559 82.4964 115.774 82.4004 116.001 82.4004H126.367C126.385 82.0452 126.401 81.658 126.401 81.4196C126.401 78.4148 125.742 76.0612 124.441 74.426C123.158 72.8164 121.233 72.0004 118.721 72.0004Z" fill="#1F212B"/>
<path d="M96.9124 88.0002C96.1492 88.0002 95.4724 87.845 94.8404 87.5282C94.57 87.3922 94.4004 87.1154 94.4004 86.813V77.2642C94.4004 77.061 94.4788 76.8642 94.6196 76.7154C95.9092 75.3474 97.1348 75.2002 97.6004 75.2002C99.7236 75.2002 100.8 77.2146 100.8 81.1874C100.804 83.333 100.49 84.9346 99.8372 86.085C99.1972 87.3026 98.1316 88.0002 96.9124 88.0002ZM96.0004 86.2738C96.282 86.3586 96.5828 86.4002 96.9124 86.4002C97.7012 86.4002 98.17 85.8194 98.4244 85.3314C98.4292 85.3234 98.434 85.3138 98.4388 85.3042C98.946 84.4146 99.2036 83.0306 99.2004 81.189C99.2004 79.1858 98.922 76.8002 97.6004 76.8002C97.4676 76.8002 96.8132 76.8418 96.0004 77.597V86.2738Z" fill="#1F212B"/>
<path d="M88.8 100.8C88.6128 100.8 88.4288 100.733 88.2832 100.61C88.1024 100.46 88 100.236 88 100V71.2004C88 70.7588 88.3584 70.4004 88.8 70.4004H94.4C94.7984 70.4004 95.136 70.6932 95.192 71.0868L95.32 71.986C96.672 70.922 98.1296 70.4004 99.7456 70.4004C102.014 70.4004 103.814 71.2452 105.096 72.9124C106.49 74.7044 107.197 77.4468 107.2 81.0644C107.2 85.1348 106.253 88.2356 104.386 90.2788C102.83 91.9748 100.766 92.8004 98.072 92.8004C97.3792 92.8004 96.6784 92.73 96 92.5924V98.9364C96 99.3284 95.7168 99.6612 95.3312 99.7252L88.9312 100.789C88.888 100.797 88.8432 100.8 88.8 100.8ZM89.6 72.0004V99.0564L94.4 98.258V91.5604C94.4 91.3044 94.5216 91.066 94.728 90.9156C94.9312 90.7636 95.1984 90.7204 95.4416 90.7988C96.2704 91.0612 97.1792 91.2004 98.072 91.2004C100.291 91.2004 101.971 90.546 103.206 89.1988C104.794 87.4612 105.6 84.7236 105.6 81.066C105.597 77.8116 105.002 75.3988 103.832 73.8932L103.829 73.89C102.853 72.6196 101.517 72.002 99.7456 72.002C98.104 72.002 96.7008 72.6868 95.328 74.1556C95.1184 74.3812 94.7936 74.4644 94.504 74.3732C94.208 74.2804 93.9952 74.0276 93.9504 73.7236L93.7056 72.0004H89.6Z" fill="#1F212B"/>
<path d="M85.6004 92.8004H79.2004C78.7588 92.8004 78.4004 92.442 78.4004 92.0004V71.2004C78.4004 70.7588 78.7588 70.4004 79.2004 70.4004H85.6004C86.042 70.4004 86.4004 70.7588 86.4004 71.2004V92.0004C86.4004 92.442 86.042 92.8004 85.6004 92.8004ZM80.0004 91.2004H84.8004V72.0004H80.0004V91.2004Z" fill="#1F212B"/>
<path d="M82.4132 68.8003C80.2004 68.8003 78.4004 67.0051 78.4004 64.8003C78.4004 62.5571 80.1636 60.8003 82.4132 60.8003C84.6116 60.8003 86.4004 62.5955 86.4004 64.8003C86.4004 67.0051 84.6116 68.8003 82.4132 68.8003ZM82.4132 62.4003C81.0596 62.4003 80.0004 63.4547 80.0004 64.8003C80.0004 66.1235 81.0836 67.2003 82.4132 67.2003C83.73 67.2003 84.8004 66.1235 84.8004 64.8003C84.8004 63.4547 83.7524 62.4003 82.4132 62.4003Z" fill="#1F212B"/>
<path d="M71.9996 92.8004H66.3996C65.958 92.8004 65.5996 92.442 65.5996 92.0004V71.2004C65.5996 70.7588 65.958 70.4004 66.3996 70.4004H71.1996C71.5884 70.4004 71.9212 70.6804 71.9884 71.0644L72.0428 71.3844C72.7692 70.7396 73.7532 70.4004 74.9404 70.4004C75.3356 70.4004 75.7388 70.458 76.206 70.5828C76.5564 70.6756 76.7996 70.994 76.7996 71.3556V77.6004C76.7996 78.042 76.4412 78.4004 75.9996 78.4004H75.1996C74.0236 78.4004 73.27 78.6372 72.7996 79.162V92.0004C72.7996 92.442 72.4412 92.8004 71.9996 92.8004ZM67.1996 91.2004H71.1996V78.8868C71.1996 78.7236 71.2492 78.5636 71.3436 78.4292C72.3596 76.9684 74.0316 76.8004 75.1996 76.8004V72.0148C73.6412 71.8516 72.758 72.5028 72.3836 73.818C72.2828 74.178 71.9356 74.4196 71.5708 74.3988C71.198 74.378 70.8876 74.1028 70.8236 73.7348L70.526 72.0004H67.1996V91.2004Z" fill="#1F212B"/>
<path d="M59.4895 92.8003C55.3007 92.8003 52.7999 90.0259 52.7999 85.3779V76.8003H50.3999C50.1663 76.8003 49.9423 76.6979 49.7887 76.5171C49.6367 76.3379 49.5711 76.1011 49.6111 75.8691L50.3199 71.5875C50.3759 71.2499 50.6399 70.9859 50.9775 70.9283L52.3071 70.7075L52.9951 66.3843C53.0495 66.0451 53.3135 65.7779 53.6527 65.7203L59.0671 64.8099C59.2991 64.7747 59.5391 64.8371 59.7167 64.9875C59.8975 65.1411 59.9999 65.3651 59.9999 65.6003V70.4003H63.1999C63.4351 70.4003 63.6575 70.5027 63.8111 70.6835C63.9631 70.8627 64.0287 71.0995 63.9887 71.3315L63.1887 76.1315C63.1247 76.5171 62.7903 76.8003 62.3999 76.8003H59.9983L59.9839 84.6259C59.9839 85.9539 60.4351 85.9539 60.9583 85.9539C61.4383 85.9539 62.6319 85.7251 62.9903 85.6275C63.2287 85.5651 63.4895 85.6131 63.6863 85.7635C63.8847 85.9155 63.9999 86.1507 63.9999 86.4003V91.2003C63.9999 91.4131 63.9151 91.6163 63.7663 91.7667C63.5919 91.9379 62.5743 92.8003 59.4895 92.8003ZM51.3439 75.2003H53.5999C54.0415 75.2003 54.3999 75.5587 54.3999 76.0003V85.3779C54.3999 88.0339 55.2831 91.2003 59.4895 91.2003C61.1375 91.2003 62.0095 90.9283 62.3999 90.7523V87.3859C61.8959 87.4755 61.3311 87.5539 60.9599 87.5539C59.7855 87.5539 58.3855 87.0451 58.3855 84.6243L58.4015 75.9987C58.4015 75.5571 58.7599 75.2003 59.1999 75.2003H61.7215L62.2559 72.0003H59.1999C58.7583 72.0003 58.3999 71.6419 58.3999 71.2003V66.5459L54.4863 67.2051L53.7983 71.5299C53.7439 71.8691 53.4783 72.1363 53.1391 72.1939L51.8047 72.4163L51.3439 75.2003Z" fill="#1F212B"/>
<path d="M41.3497 92.8004C38.2345 92.8004 35.4409 91.8084 33.9945 90.9604C33.7113 90.794 33.5593 90.4724 33.6089 90.1476L34.3609 85.322C34.4009 85.058 34.5721 84.8324 34.8137 84.7204C35.0553 84.6084 35.3353 84.6212 35.5673 84.762C37.2329 85.7732 39.7001 86.4004 41.0265 86.4004C41.5625 86.4004 42.2009 86.306 42.2009 85.8596C42.2009 85.5396 41.8233 85.2276 39.8249 84.4932C36.2377 83.1508 33.8521 81.4436 33.8521 77.4708C33.8521 75.2932 34.6313 73.4756 36.1081 72.2164C37.5145 71.0276 39.4569 70.4004 41.7257 70.4004C44.6841 70.4004 46.9081 71.1892 48.2537 71.8516C48.5673 72.0068 48.7465 72.3476 48.6905 72.6932L47.9385 77.466C47.8985 77.7188 47.7401 77.9364 47.5113 78.0548C47.2825 78.17 47.0105 78.17 46.7865 78.0564C46.0425 77.6772 44.0873 76.8004 42.0265 76.8004C41.6601 76.8004 41.2249 76.8596 41.2249 77.1364C41.2249 77.4516 42.0009 77.9028 43.5305 78.4788C46.6009 79.634 49.5993 81.1252 49.5993 85.498C49.5993 87.9108 48.7849 89.7956 47.1785 91.0996C45.8185 92.226 43.8537 92.8004 41.3497 92.8004ZM35.2777 89.834C36.7161 90.5492 39.0089 91.2004 41.3497 91.2004C43.4425 91.2004 45.1081 90.7364 46.1641 89.8612C47.3833 88.8708 47.9993 87.4036 47.9993 85.498C47.9993 82.4292 46.3049 81.2308 42.9673 79.978C41.2041 79.3156 39.6233 78.6004 39.6233 77.138C39.6233 76.2436 40.2537 75.202 42.0249 75.202C43.7689 75.202 45.4217 75.7268 46.5225 76.1796L47.0169 73.0452C45.8025 72.522 44.0153 72.0004 41.7257 72.0004C39.8393 72.0004 38.2537 72.498 37.1417 73.4356C36.0217 74.3924 35.4505 75.7508 35.4505 77.4708C35.4505 80.546 37.2585 81.8244 40.3801 82.9924C42.4441 83.7508 43.8009 84.3604 43.8009 85.8596C43.8009 86.8948 43.0713 88.0004 41.0265 88.0004C39.5545 88.0004 37.4377 87.45 35.7705 86.674L35.2777 89.834Z" fill="#1F212B"/>
<path d="M48.8004 44.8002H47.2004C46.7588 44.8002 46.4004 44.4418 46.4004 44.0002C46.4004 43.5586 46.7588 43.2002 47.2004 43.2002H48.8004C49.242 43.2002 49.6004 43.5586 49.6004 44.0002C49.6004 44.4418 49.242 44.8002 48.8004 44.8002Z" fill="#1F212B"/>
<path d="M60.0008 44.8002H53.6008C53.1592 44.8002 52.8008 44.4418 52.8008 44.0002C52.8008 43.5586 53.1592 43.2002 53.6008 43.2002H60.0008C60.4424 43.2002 60.8008 43.5586 60.8008 44.0002C60.8008 44.4418 60.4424 44.8002 60.0008 44.8002Z" fill="#1F212B"/>
<path d="M95.2 116.8H31.2C27.2304 116.8 24 113.57 24 109.6V92.0002C24 91.5586 24.3584 91.2002 24.8 91.2002C25.2416 91.2002 25.6 91.5586 25.6 92.0002V109.6C25.6 112.688 28.112 115.2 31.2 115.2H95.2C95.6416 115.2 96 115.559 96 116C96 116.442 95.6416 116.8 95.2 116.8Z" fill="#1F212B"/>
<path d="M135.2 68.8002C134.758 68.8002 134.4 68.4418 134.4 68.0002V50.4002C134.4 47.3122 131.888 44.8002 128.8 44.8002H64.8C64.3584 44.8002 64 44.4418 64 44.0002C64 43.5586 64.3584 43.2002 64.8 43.2002H128.8C132.77 43.2002 136 46.4306 136 50.4002V68.0002C136 68.4418 135.642 68.8002 135.2 68.8002Z" fill="#1F212B"/>
<path d="M117.599 116.8H115.999C115.558 116.8 115.199 116.442 115.199 116C115.199 115.559 115.558 115.2 115.999 115.2H117.599C118.041 115.2 118.399 115.559 118.399 116C118.399 116.442 118.041 116.8 117.599 116.8Z" fill="#1F212B"/>
<path d="M111.2 116.8H103.2C102.759 116.8 102.4 116.442 102.4 116C102.4 115.559 102.759 115.2 103.2 115.2H111.2C111.642 115.2 112 115.559 112 116C112 116.442 111.642 116.8 111.2 116.8Z" fill="#1F212B"/>
<rect x="153.27" y="26.6118" width="6" height="182" rx="3" transform="rotate(56 153.27 26.6118)" fill="#1B1D21" stroke="white" stroke-width="2"/>
</svg>
