<svg width="20" height="20" viewBox="0 0 20 20" fill="none" xmlns="http://www.w3.org/2000/svg">
<path d="M0.722639 0.00100916C0.603288 0.00545624 0.486724 0.0383398 0.382645 0.096924C0.278566 0.155508 0.189982 0.238099 0.124262 0.337826C0.0585415 0.437552 0.0175861 0.551531 0.00480228 0.670279C-0.0079815 0.789027 0.00777614 0.909111 0.0507644 1.02054L2.80076 8.12113C2.84809 8.24294 2.92643 8.35027 3.028 8.43249C3.12958 8.51471 3.25087 8.56896 3.37987 8.58988L10.8506 9.80277C11.0367 9.83294 11.0185 9.88667 11.0185 10C11.0185 10.1134 11.0367 10.1671 10.8506 10.1973L3.37987 11.4102C3.25087 11.4311 3.12958 11.4854 3.028 11.5676C2.92643 11.6498 2.84809 11.7571 2.80076 11.8789L0.0507644 18.9795C-0.00366669 19.1206 -0.0141834 19.2749 0.0205937 19.422C0.0553708 19.5692 0.133817 19.7024 0.245643 19.8042C0.357469 19.906 0.497452 19.9716 0.647229 19.9924C0.797006 20.0133 0.949583 19.9883 1.08494 19.9209L19.5849 10.6709C19.7095 10.6086 19.8143 10.5129 19.8876 10.3944C19.9608 10.2759 19.9996 10.1393 19.9996 10C19.9996 9.86073 19.9608 9.72418 19.8876 9.60569C19.8143 9.48719 19.7095 9.39143 19.5849 9.32913L1.08494 0.0791342C0.972612 0.0231953 0.848041 -0.00366636 0.722639 0.00100916Z" fill="#6C5DD3"/>
</svg>
