<svg width="160" height="160" viewBox="0 0 160 160" fill="none" xmlns="http://www.w3.org/2000/svg">
<path d="M61.5996 68.7585V115.242C61.5996 117.709 64.2732 119.248 66.406 118.01L106.433 94.7681C108.558 93.5345 108.558 90.4673 106.433 89.2337L66.406 65.9905C64.2732 64.7521 61.5996 66.2913 61.5996 68.7585Z" fill="#FFCE73"/>
<path d="M123.201 17.6001H38.4008C33.0984 17.6001 28.8008 21.8977 28.8008 27.2001V32.0001H132.801V27.2001C132.801 21.8977 128.503 17.6001 123.201 17.6001Z" fill="#D1E5FF"/>
<path d="M128 33.6001H32.0004C26.698 33.6001 22.4004 34.8385 22.4004 43.2001V44.8001H137.6V43.2001C137.6 34.4305 133.303 33.6001 128 33.6001Z" fill="#D1E5FF"/>
<path d="M137.601 46.3999H22.4008C17.0984 46.3999 12.8008 50.6975 12.8008 55.9999V128C12.8008 133.302 17.0984 137.6 22.4008 137.6H137.601C142.903 137.6 147.201 133.302 147.201 128V55.9999C147.201 50.6975 142.903 46.3999 137.601 46.3999ZM106.434 94.7679L66.4072 118.009C64.2744 119.248 61.6008 117.709 61.6008 115.242V68.7583C61.6008 66.2911 64.2744 64.7519 66.4072 65.9903L106.434 89.2319C108.559 90.4655 108.559 93.5343 106.434 94.7679Z" fill="#A0D7E7"/>
<path d="M140.799 45.272V41.6C140.799 37.144 138.177 33.2992 134.399 31.496V27.2C134.399 21.0256 129.375 16 123.199 16H38.3992C32.2232 16 27.1992 21.0256 27.1992 27.2V30.872C22.5784 32.2528 19.1992 36.5376 19.1992 41.6V45.272C14.5784 46.6528 11.1992 50.9376 11.1992 56V128C11.1992 134.174 16.2232 139.2 22.3992 139.2H137.599C143.775 139.2 148.799 134.174 148.799 128V56C148.799 50.9376 145.42 46.6528 140.799 45.272ZM30.3992 27.2C30.3992 22.7888 33.988 19.2 38.3992 19.2H123.199C127.61 19.2 131.199 22.7888 131.199 27.2V30.528C130.674 30.4528 130.143 30.4 129.599 30.4H30.3992V27.2ZM22.3992 41.6C22.3992 37.1888 25.988 33.6 30.3992 33.6H129.599C134.01 33.6 137.599 37.1888 137.599 41.6V44.8H22.3992V41.6ZM145.599 128C145.599 132.411 142.01 136 137.599 136H22.3992C17.988 136 14.3992 132.411 14.3992 128V56C14.3992 51.5888 17.988 48 22.3992 48H137.599C142.01 48 145.599 51.5888 145.599 56V128Z" fill="#1B1D21"/>
<path d="M77.5992 54.4H19.9992C19.5576 54.4 19.1992 54.0416 19.1992 53.6C19.1992 53.1584 19.5576 52.8 19.9992 52.8H77.5992C78.0408 52.8 78.3992 53.1584 78.3992 53.6C78.3992 54.0416 78.0408 54.4 77.5992 54.4Z" fill="#1B1D21"/>
<path d="M140 54.4H98.3996C97.958 54.4 97.5996 54.0416 97.5996 53.6C97.5996 53.1584 97.958 52.8 98.3996 52.8H140C140.441 52.8 140.8 53.1584 140.8 53.6C140.8 54.0416 140.441 54.4 140 54.4Z" fill="#1B1D21"/>
<path d="M34.3992 131.2H19.9992C19.5576 131.2 19.1992 130.842 19.1992 130.4C19.1992 129.958 19.5576 129.6 19.9992 129.6H34.3992C34.8408 129.6 35.1992 129.958 35.1992 130.4C35.1992 130.842 34.8408 131.2 34.3992 131.2Z" fill="#1B1D21"/>
<path d="M93.5996 54.4H82.3996C81.958 54.4 81.5996 54.0416 81.5996 53.6C81.5996 53.1584 81.958 52.8 82.3996 52.8H93.5996C94.0412 52.8 94.3996 53.1584 94.3996 53.6C94.3996 54.0416 94.0412 54.4 93.5996 54.4Z" fill="#1B1D21"/>
<path d="M64.8008 119.248C64.1144 119.248 63.4296 119.067 62.8024 118.707C61.5496 117.984 60.8008 116.69 60.8008 115.242V68.7585C60.8008 67.3121 61.5496 66.0161 62.804 65.2929C64.06 64.5729 65.5576 64.5729 66.8088 65.2993L106.836 88.5409C108.082 89.2641 108.828 90.5585 108.828 92.0001C108.828 93.4417 108.084 94.7361 106.836 95.4593L66.8088 118.701C66.1816 119.066 65.492 119.248 64.8008 119.248ZM64.8008 66.3553C64.3896 66.3553 63.9768 66.4625 63.6024 66.6801C62.8504 67.1121 62.4008 67.8897 62.4008 68.7585V115.243C62.4008 116.112 62.8504 116.888 63.6024 117.322C64.3544 117.757 65.2552 117.755 66.0056 117.318L106.033 94.0769C106.782 93.6433 107.228 92.8673 107.228 92.0017C107.228 91.1361 106.782 90.3617 106.033 89.9265L66.0056 66.6833C65.6296 66.4641 65.2152 66.3553 64.8008 66.3553Z" fill="#1B1D21"/>
<path d="M58.4004 131.2H39.2004C38.7588 131.2 38.4004 130.842 38.4004 130.4C38.4004 129.958 38.7588 129.6 39.2004 129.6H58.4004C58.842 129.6 59.2004 129.958 59.2004 130.4C59.2004 130.842 58.842 131.2 58.4004 131.2Z" fill="#1B1D21"/>
<path d="M71.2004 131.2H63.2004C62.7588 131.2 62.4004 130.842 62.4004 130.4C62.4004 129.958 62.7588 129.6 63.2004 129.6H71.2004C71.642 129.6 72.0004 129.958 72.0004 130.4C72.0004 130.842 71.642 131.2 71.2004 131.2Z" fill="#1B1D21"/>
<path d="M138.399 131.2H75.9992C75.5576 131.2 75.1992 130.842 75.1992 130.4C75.1992 129.958 75.5576 129.6 75.9992 129.6H138.399C138.841 129.6 139.199 129.958 139.199 130.4C139.199 130.842 138.841 131.2 138.399 131.2Z" fill="#1B1D21"/>
<path d="M138.781 121.398C140.212 120.805 141.746 120.5 143.295 120.5C144.844 120.5 146.378 120.805 147.809 121.398C149.24 121.991 150.54 122.859 151.635 123.955C152.73 125.05 153.599 126.35 154.192 127.781C154.785 129.212 155.09 130.746 155.09 132.295C155.09 133.844 154.785 135.378 154.192 136.809C153.599 138.24 152.73 139.54 151.635 140.635C150.54 141.731 149.24 142.599 147.809 143.192C146.378 143.785 144.844 144.09 143.295 144.09C141.746 144.09 140.212 143.785 138.781 143.192C137.35 142.599 136.05 141.731 134.955 140.635C133.859 139.54 132.991 138.24 132.398 136.809C131.805 135.378 131.5 133.844 131.5 132.295C131.5 130.746 131.805 129.212 132.398 127.781C132.991 126.35 133.859 125.05 134.955 123.955C136.05 122.859 137.35 121.991 138.781 121.398Z" fill="#FF754C" stroke="#1B1D21" stroke-width="3"/>
<path d="M142.038 136.25L142.038 136.25H142.045H142.045H142.045H142.045H142.045H142.045H142.045H142.045H142.045H142.045H142.045H142.045H142.045H142.045H142.045H142.045H142.045H142.045H142.045H142.045H142.045H142.045H142.045H142.045H142.046H142.046H142.046H142.046H142.046H142.046H142.046H142.046H142.046H142.046H142.046H142.046H142.046H142.046H142.046H142.046H142.046H142.046H142.046H142.046H142.046H142.046H142.046H142.046H142.046H142.046H142.046H142.046H142.046H142.046H142.046H142.046H142.046H142.046H142.046H142.046H142.046H142.046H142.046H142.046H142.046H142.046H142.046H142.046H142.046H142.046H142.046H142.046H142.046H142.046H142.046H142.046H142.046H142.046H142.046H142.046H142.046H142.046H142.046H142.046H142.046H142.047H142.047H142.047H142.047H142.047H142.047H142.047H142.047H142.047H142.047H142.047H142.047H142.047H142.047H142.047H142.047H142.047H142.047H142.047H142.047H142.047H142.047H142.047H142.047H142.047H142.047H142.047H142.047H142.047H142.047H142.047H142.047H142.047H142.047H142.047H142.047H142.047H142.047H142.047H142.047H142.047H142.047H142.047H142.047H142.047H142.047H142.047H142.047H142.047H142.047H142.047H142.047H142.047H142.047H142.047H142.047H142.047H142.047H142.047H142.047H142.047H142.047H142.047H142.048H142.048H142.048H142.048H142.048H142.048H142.048H142.048H142.048H142.048H142.048H142.048H142.048H142.048H142.048H142.048H142.048H142.048H142.048H142.048H142.048H142.048H142.048H142.048H142.048H142.048H142.048H142.048H142.048H142.048H142.048H142.048H142.048H142.048H142.048H142.048H142.048H142.048H142.048H142.048H142.048H142.048H142.048H142.048H142.048H142.048H142.048H142.048H142.048H142.048H142.048H142.048H142.048H142.048H142.048H142.048H142.048H142.048H142.048H142.048H142.048H142.048H142.048H142.048H142.048H142.049H142.049H142.049H142.049H142.049H142.049H142.049H142.049H142.049H142.049H142.049H142.049H142.049H142.049H142.049H142.049H142.049H142.049H142.049H142.049H142.049H142.049H142.049H142.049H142.049H142.049H142.049H142.049H142.049H142.049H142.049H142.049H142.049H142.049H142.049H142.049H142.049H142.049H142.049H142.049H142.049H142.049H142.049H142.049H142.049H142.049H142.049H142.049H142.049H142.049H142.049H142.049H142.049H142.049H142.049H142.049H142.049H142.049H142.049H142.049H142.049H142.049H142.049H142.049H142.049H142.049H142.05H142.05H142.05H142.05H142.05H142.05H142.05H142.05H142.05H142.05H142.05H142.05H142.05H142.05H142.05H142.05H142.05H142.05H142.05H142.05H142.05H142.05H142.05H142.05H142.05H142.05H142.05H142.05H142.05H142.05H142.05H142.05H142.05H142.05H142.05H142.05H142.05H142.05H142.05H142.05H142.05H142.05H142.05H142.05H142.05H142.05H142.05H142.05H142.05H142.05H142.05H142.05H142.05H142.05H142.05H142.05H142.05H142.05H142.05H142.05H142.05H142.05H142.05H142.05H142.05H142.051H142.051H142.051H142.051H142.051H142.051H142.051H142.051H142.051H142.051H142.051H142.051H142.051H142.051H142.051H142.051H142.051H142.051H142.051H142.051H142.051H142.051H142.051H142.051H142.051H142.051H142.051H142.051H142.051H142.051H142.051H142.051H142.051H142.051H142.051H142.051H142.051H142.051H142.051H142.051H142.051H142.051H142.051H142.051H142.051H142.051H142.051H142.051H142.051H142.051H142.051H142.051H142.051H142.051H142.051H142.051H142.051H142.051H142.051H142.051H142.051H142.051H142.051H142.051H142.052H142.052H142.052H142.052H142.052H142.052H142.052H142.052H142.052H142.052H142.052H142.052H142.052H142.052H142.052H142.052H142.052H142.052H142.052H142.052H142.052H142.052H142.052H142.052H142.052H142.052H142.052H142.052H142.052H142.052H142.052H142.052H142.052H142.052H142.052H142.052H142.052H142.052H142.052H142.052H142.052H142.052H142.052H142.052H142.052H142.052H142.052H142.052H142.052H142.052H142.052H142.052H142.052H142.052H142.052H142.052H142.052H142.052H142.052H142.052H142.052H142.052H142.053H142.053H142.053H142.053H142.053H142.053H142.053H142.053H142.053H142.053H142.053H142.053H142.053H142.053H142.053H142.053H142.053H142.053H142.053H142.053H142.053H142.053H142.053H142.053H142.053H142.053H142.053H142.053H142.053H142.053H142.053H142.053H142.053H142.053H142.053H142.053H142.053H142.053H142.053H142.053H142.053H142.053H142.053C142.193 136.25 142.326 136.195 142.426 136.1L149.083 129.683C149.084 129.683 149.084 129.683 149.084 129.683C149.3 129.476 149.305 129.133 149.101 128.918L149.101 128.918C148.895 128.701 148.553 128.693 148.337 128.901C148.337 128.901 148.337 128.901 148.337 128.901L142.074 134.937L138.684 131.287C138.684 131.287 138.684 131.286 138.684 131.286C138.479 131.065 138.138 131.058 137.921 131.26L137.921 131.26L137.92 131.261C137.703 131.466 137.693 131.807 137.894 132.025L137.895 132.025L141.658 136.078L141.658 136.078L141.659 136.079C141.757 136.183 141.893 136.246 142.038 136.25Z" fill="white" stroke="white" stroke-width="0.499998"/>
</svg>
