<svg width="56" height="56" viewBox="0 0 56 56" fill="none" xmlns="http://www.w3.org/2000/svg">
<rect width="56" height="56" rx="16" fill="#FF754C" fill-opacity="0.15"/>
<path fill-rule="evenodd" clip-rule="evenodd" d="M16.333 22.6665C16.333 20.4574 18.1239 18.6665 20.333 18.6665H28.6663C30.8755 18.6665 32.6663 20.4574 32.6663 22.6665V33.3332C32.6663 35.5423 30.8755 37.3332 28.6663 37.3332H20.333C18.1239 37.3332 16.333 35.5423 16.333 33.3332V22.6665ZM29.1663 24.4998C29.1663 25.7885 28.1217 26.8332 26.833 26.8332C25.5443 26.8332 24.4997 25.7885 24.4997 24.4998C24.4997 23.2112 25.5443 22.1665 26.833 22.1665C28.1217 22.1665 29.1663 23.2112 29.1663 24.4998ZM36.2073 33.6434L34.4163 31.7331V24.2664L36.2073 22.3561C37.4473 21.0334 39.6663 21.9109 39.6663 23.724V32.2755C39.6663 34.0886 37.4473 34.9661 36.2073 33.6434Z" fill="#FF754C"/>
</svg>
