<svg width="52" height="52" viewBox="0 0 66 66" fill="none" xmlns="http://www.w3.org/2000/svg">
<rect width="66" height="66" rx="10" fill="#F0F3F6"/>
<path d="M51.7203 21.96V44.04C51.7203 45.1004 50.8606 45.96 49.8003 45.96H16.2003C15.14 45.96 14.2803 45.1004 14.2803 44.04V21.96C14.2803 20.8997 15.14 20.04 16.2003 20.04H49.8003C50.8606 20.04 51.7203 20.8997 51.7203 21.96Z" fill="#09ACE3"/>
<path d="M43.7999 32.7599C43.7999 32.0399 44.1397 31.5599 44.6629 31.5599C45.1775 31.5599 45.4799 32.0399 45.4799 32.7599H43.7999ZM47.1599 33.4256C47.1599 32.468 46.9434 31.7111 46.52 31.1783C46.088 30.6373 45.4396 30.3599 44.6159 30.3599C42.9277 30.3599 41.8799 31.5647 41.8799 33.4957C41.8799 34.5771 42.1597 35.3879 42.7122 35.9048C43.2085 36.368 43.9199 36.5999 44.84 36.5999C46.4399 36.5999 46.9679 36.0906 46.9679 36.0906L46.7514 34.7778C46.2637 35.0327 45.7199 35.1599 45.2399 35.1599C44.0399 35.1599 43.8402 34.3535 43.7999 33.9599H47.1359C47.1436 33.8667 47.1599 33.5643 47.1599 33.4256Z" fill="white"/>
<path d="M38.74 34.7106C38.5868 35.0043 38.3492 35.1599 38.0732 35.1599C37.8817 35.1599 37.7128 35.121 37.5596 35.0442V32.1791C37.8817 31.8383 38.1721 31.7999 38.2796 31.7999C38.762 31.7999 38.9996 32.3264 38.9996 33.356C39.0006 33.944 38.9166 34.401 38.74 34.7106ZM40.3384 31.0203C39.9976 30.5778 39.5267 30.3599 38.9228 30.3599C38.3665 30.3599 37.8788 30.5931 37.4224 31.0823L37.3196 30.3599H35.6396V38.9999L37.5596 38.6811V36.4683C37.8534 36.5615 38.15 36.5999 38.4212 36.5999C38.9008 36.5999 39.5968 36.512 40.1382 35.9216C40.6566 35.3543 40.9196 34.4763 40.9196 33.3195C40.9187 32.2943 40.7252 31.5176 40.3384 31.0203Z" fill="white"/>
<path d="M34.6798 30.3599H32.7598V36.5999H34.6798V30.3599Z" fill="white"/>
<path d="M33.7231 29.4C34.2526 29.4 34.6798 28.9675 34.6798 28.44C34.6798 27.9048 34.2526 27.48 33.7231 27.48C33.186 27.48 32.7598 27.9053 32.7598 28.44C32.7598 28.9675 33.186 29.4 33.7231 29.4Z" fill="white"/>
<path d="M31.4822 30.3599C31.0098 30.3599 30.6321 30.5571 30.4842 31.0799L30.3599 30.3599H28.9199V36.5999H30.5999V32.6658C30.8092 32.3653 31.1553 32.2799 31.5599 32.2799C31.6478 32.2799 31.7999 32.2799 31.7999 32.2799V30.4064C31.6847 30.3757 31.583 30.3599 31.4822 30.3599Z" fill="white"/>
<path d="M27.7201 31.8002L27.9601 30.3602H26.7601V28.6802L25.1358 28.9533L24.902 30.4211L24.3328 30.5162L24.1201 31.8002H25.0801V34.6135C25.0801 35.3459 25.3201 36.6002 26.8465 36.6002C27.7201 36.6002 27.9601 36.3602 27.9601 36.3602V34.9202C27.8464 34.9509 27.4628 35.0263 27.2881 35.0263C26.9156 35.0263 26.7558 34.8314 26.7558 34.3874L26.7601 31.8002H27.7201Z" fill="white"/>
<path d="M21.9757 32.768C21.4266 32.5616 21.128 32.3965 21.128 32.1407C21.128 31.9237 21.3003 31.7999 21.6085 31.7999C22.1715 31.7999 22.749 32.001 23.1459 32.2026L23.371 30.7708C23.0557 30.6162 22.411 30.3604 21.5187 30.3604C20.8885 30.3604 20.3638 30.5308 19.9885 30.848C19.5987 31.1807 19.3957 31.6607 19.3957 32.242C19.3957 33.2946 20.0178 33.7444 21.031 34.1236C21.6838 34.3636 21.9013 34.4951 21.9013 34.7586C21.9013 35.0144 21.691 35.1608 21.3085 35.1608C20.8362 35.1608 20.0557 34.9439 19.5459 34.6343L19.3203 36.081C19.7557 36.3368 20.5654 36.5999 21.4054 36.5999C22.0726 36.5999 22.6285 36.4535 23.0029 36.1429C23.4229 35.8021 23.6403 35.2986 23.6403 34.6487C23.6403 33.574 23.0005 33.1535 21.9757 32.768Z" fill="white"/>
<path d="M49.7998 46.4401H16.1998C14.8764 46.4401 13.7998 45.3634 13.7998 44.0401V21.9601C13.7998 20.6367 14.8764 19.5601 16.1998 19.5601H49.7998C51.1232 19.5601 52.1998 20.6367 52.1998 21.9601V44.0401C52.1998 45.3634 51.1232 46.4401 49.7998 46.4401ZM16.1998 20.5201C15.4059 20.5201 14.7598 21.1661 14.7598 21.9601V44.0401C14.7598 44.834 15.4059 45.4801 16.1998 45.4801H49.7998C50.5937 45.4801 51.2398 44.834 51.2398 44.0401V21.9601C51.2398 21.1661 50.5937 20.5201 49.7998 20.5201H16.1998Z" fill="#1F212B"/>
<path d="M45.4796 32.9998H43.7996C43.6671 32.9998 43.5596 32.8923 43.5596 32.7598C43.5596 31.8987 44.0031 31.3198 44.6626 31.3198C45.3048 31.3198 45.7196 31.8853 45.7196 32.7598C45.7196 32.8923 45.6121 32.9998 45.4796 32.9998ZM44.0559 32.5198H45.2257C45.1791 32.1397 45.0149 31.7998 44.6626 31.7998C44.2848 31.7998 44.1072 32.1493 44.0559 32.5198Z" fill="#1F212B"/>
<path d="M44.8398 36.8401C43.8592 36.8401 43.0883 36.5843 42.5483 36.0803C41.9454 35.5163 41.6396 34.647 41.6396 33.496C41.6396 31.4454 42.808 30.1201 44.6156 30.1201C45.5094 30.1201 46.2328 30.434 46.707 31.0288C47.1668 31.6067 47.3996 32.4131 47.3996 33.4259C47.3996 33.5694 47.3828 33.8828 47.3747 33.9793C47.3646 34.1041 47.2609 34.2001 47.1356 34.2001H44.0886C44.2297 34.6782 44.6156 34.9201 45.2396 34.9201C45.7052 34.9201 46.2025 34.7939 46.6408 34.5649C46.7089 34.5294 46.7905 34.5284 46.8592 34.563C46.9278 34.5976 46.9763 34.6628 46.9888 34.7387L47.2048 36.0515C47.2177 36.1292 47.1918 36.2084 47.1347 36.2632C47.0732 36.3222 46.4891 36.8401 44.8398 36.8401ZM44.6156 30.6001C43.0528 30.6001 42.1196 31.6825 42.1196 33.496C42.1196 34.5088 42.374 35.2604 42.8756 35.7299C43.324 36.148 43.9849 36.3601 44.8398 36.3601C45.9438 36.3601 46.5001 36.1067 46.707 35.9824L46.5664 35.1289C46.1387 35.3051 45.6774 35.4001 45.2396 35.4001C44.2648 35.4001 43.6528 34.8841 43.5611 33.9846C43.5539 33.9169 43.576 33.8497 43.6216 33.7993C43.6672 33.7489 43.7315 33.7201 43.7996 33.7201H46.9096C46.9148 33.6136 46.9196 33.4974 46.9196 33.4259C46.9196 32.5244 46.7219 31.8184 46.3316 31.3278C45.9467 30.8449 45.3692 30.6001 44.6156 30.6001Z" fill="#1F212B"/>
<path d="M38.0729 35.4001C37.844 35.4001 37.6409 35.3535 37.4513 35.2585C37.3702 35.2177 37.3193 35.1346 37.3193 35.0439V32.1793C37.3193 32.1183 37.3429 32.0593 37.3851 32.0146C37.772 31.6042 38.1397 31.5601 38.2793 31.5601C38.9163 31.5601 39.2393 32.1644 39.2393 33.3562C39.2403 33.9999 39.1462 34.4804 38.9504 34.8255C38.7584 35.1908 38.4387 35.4001 38.0729 35.4001ZM37.7993 34.8821C37.8838 34.9076 37.9741 34.9201 38.0729 34.9201C38.3096 34.9201 38.4502 34.7458 38.5265 34.5994C38.528 34.597 38.5294 34.5941 38.5309 34.5913C38.683 34.3244 38.7603 33.9092 38.7593 33.3567C38.7593 32.7557 38.6758 32.0401 38.2793 32.0401C38.2395 32.0401 38.0432 32.0525 37.7993 32.2791V34.8821Z" fill="#1F212B"/>
<path d="M35.6394 39.2401C35.5833 39.2401 35.5281 39.22 35.4844 39.183C35.4301 39.1379 35.3994 39.0707 35.3994 39.0001V30.3601C35.3994 30.2276 35.5069 30.1201 35.6394 30.1201H37.3194C37.4389 30.1201 37.5402 30.208 37.557 30.326L37.5954 30.5958C38.001 30.2766 38.4383 30.1201 38.9231 30.1201C39.6037 30.1201 40.1437 30.3736 40.5282 30.8737C40.9463 31.4113 41.1585 32.234 41.1594 33.3193C41.1594 34.5404 40.8753 35.4707 40.3151 36.0836C39.8485 36.5924 39.2293 36.8401 38.421 36.8401C38.2132 36.8401 38.0029 36.819 37.7994 36.7777V38.6809C37.7994 38.7985 37.7145 38.8984 37.5988 38.9176L35.6788 39.2368C35.6658 39.2392 35.6524 39.2401 35.6394 39.2401ZM35.8794 30.6001V38.7169L37.3194 38.4774V36.4681C37.3194 36.3913 37.3559 36.3198 37.4178 36.2747C37.4788 36.2291 37.5589 36.2161 37.6319 36.2396C37.8805 36.3184 38.1532 36.3601 38.421 36.3601C39.0868 36.3601 39.5908 36.1638 39.9613 35.7596C40.4375 35.2384 40.6794 34.4171 40.6794 33.3198C40.6785 32.3435 40.4999 31.6196 40.149 31.168L40.1481 31.167C39.8553 30.7859 39.4545 30.6006 38.9231 30.6006C38.4306 30.6006 38.0097 30.806 37.5978 31.2467C37.5349 31.3144 37.4375 31.3393 37.3506 31.312C37.2618 31.2841 37.198 31.2083 37.1845 31.1171L37.1111 30.6001H35.8794Z" fill="#1F212B"/>
<path d="M34.6795 36.8401H32.7595C32.6271 36.8401 32.5195 36.7326 32.5195 36.6001V30.3601C32.5195 30.2276 32.6271 30.1201 32.7595 30.1201H34.6795C34.812 30.1201 34.9195 30.2276 34.9195 30.3601V36.6001C34.9195 36.7326 34.812 36.8401 34.6795 36.8401ZM32.9995 36.3601H34.4395V30.6001H32.9995V36.3601Z" fill="#1F212B"/>
<path d="M33.7234 29.6402C33.0595 29.6402 32.5195 29.1017 32.5195 28.4402C32.5195 27.7673 33.0485 27.2402 33.7234 27.2402C34.3829 27.2402 34.9195 27.7788 34.9195 28.4402C34.9195 29.1017 34.3829 29.6402 33.7234 29.6402ZM33.7234 27.7202C33.3173 27.7202 32.9995 28.0366 32.9995 28.4402C32.9995 28.8372 33.3245 29.1602 33.7234 29.1602C34.1184 29.1602 34.4395 28.8372 34.4395 28.4402C34.4395 28.0366 34.1251 27.7202 33.7234 27.7202Z" fill="#1F212B"/>
<path d="M30.5997 36.8401H28.9197C28.7872 36.8401 28.6797 36.7326 28.6797 36.6001V30.3601C28.6797 30.2276 28.7872 30.1201 28.9197 30.1201H30.3597C30.4763 30.1201 30.5762 30.2041 30.5963 30.3193L30.6126 30.4153C30.8306 30.2219 31.1258 30.1201 31.4819 30.1201C31.6005 30.1201 31.7214 30.1374 31.8616 30.1748C31.9667 30.2027 32.0397 30.2982 32.0397 30.4067V32.2801C32.0397 32.4126 31.9322 32.5201 31.7997 32.5201H31.5597C31.2069 32.5201 30.9808 32.5912 30.8397 32.7486V36.6001C30.8397 36.7326 30.7322 36.8401 30.5997 36.8401ZM29.1597 36.3601H30.3597V32.666C30.3597 32.6171 30.3746 32.5691 30.4029 32.5288C30.7077 32.0905 31.2093 32.0401 31.5597 32.0401V30.6044C31.0922 30.5555 30.8272 30.7508 30.7149 31.1454C30.6846 31.2534 30.5805 31.3259 30.471 31.3196C30.3592 31.3134 30.2661 31.2308 30.2469 31.1204L30.1576 30.6001H29.1597V36.3601Z" fill="#1F212B"/>
<path d="M26.8469 36.8399C25.5902 36.8399 24.84 36.0076 24.84 34.6132V32.0399H24.12C24.0499 32.0399 23.9827 32.0092 23.9366 31.955C23.891 31.9012 23.8713 31.8302 23.8833 31.7606L24.096 30.4761C24.1128 30.3748 24.192 30.2956 24.2933 30.2783L24.6921 30.2121L24.8985 28.9151C24.9149 28.8134 24.9941 28.7332 25.0958 28.7159L26.7201 28.4428C26.7897 28.4323 26.8617 28.451 26.915 28.4961C26.9693 28.5422 27 28.6094 27 28.6799V30.1199H27.96C28.0305 30.1199 28.0973 30.1507 28.1433 30.2049C28.1889 30.2587 28.2086 30.3297 28.1966 30.3993L27.9566 31.8393C27.9374 31.955 27.8371 32.0399 27.72 32.0399H26.9995L26.9952 34.3876C26.9952 34.786 27.1305 34.786 27.2875 34.786C27.4315 34.786 27.7896 34.7174 27.8971 34.6881C27.9686 34.6694 28.0469 34.6838 28.1059 34.7289C28.1654 34.7745 28.2 34.8451 28.2 34.9199V36.3599C28.2 36.4238 28.1745 36.4847 28.1299 36.5299C28.0776 36.5812 27.7723 36.8399 26.8469 36.8399ZM24.4032 31.5599H25.08C25.2125 31.5599 25.32 31.6675 25.32 31.7999V34.6132C25.32 35.41 25.5849 36.3599 26.8469 36.3599C27.3413 36.3599 27.6029 36.2783 27.72 36.2255V35.2156C27.5688 35.2425 27.3993 35.266 27.288 35.266C26.9357 35.266 26.5157 35.1134 26.5157 34.3871L26.5205 31.7995C26.5205 31.667 26.628 31.5599 26.76 31.5599H27.5165L27.6768 30.5999H26.76C26.6275 30.5999 26.52 30.4924 26.52 30.3599V28.9636L25.3459 29.1614L25.1395 30.4588C25.1232 30.5606 25.0435 30.6407 24.9417 30.658L24.5414 30.7247L24.4032 31.5599Z" fill="#1F212B"/>
<path d="M21.4051 36.8401C20.4705 36.8401 19.6325 36.5425 19.1985 36.2881C19.1136 36.2382 19.068 36.1417 19.0829 36.0443L19.3085 34.5966C19.3205 34.5174 19.3718 34.4497 19.4443 34.4161C19.5168 34.3825 19.6008 34.3864 19.6704 34.4286C20.1701 34.732 20.9102 34.9201 21.3081 34.9201C21.4689 34.9201 21.6605 34.8918 21.6605 34.7579C21.6605 34.6619 21.5472 34.5683 20.9477 34.348C19.8715 33.9452 19.1558 33.4331 19.1558 32.2412C19.1558 31.588 19.3896 31.0427 19.8326 30.6649C20.2545 30.3083 20.8373 30.1201 21.5179 30.1201C22.4054 30.1201 23.0726 30.3568 23.4763 30.5555C23.5704 30.602 23.6241 30.7043 23.6073 30.808L23.3817 32.2398C23.3697 32.3156 23.3222 32.3809 23.2536 32.4164C23.1849 32.451 23.1033 32.451 23.0361 32.4169C22.8129 32.3032 22.2264 32.0401 21.6081 32.0401C21.4982 32.0401 21.3677 32.0579 21.3677 32.1409C21.3677 32.2355 21.6005 32.3708 22.0593 32.5436C22.9805 32.8902 23.88 33.3376 23.88 34.6494C23.88 35.3732 23.6357 35.9387 23.1537 36.3299C22.7457 36.6678 22.1563 36.8401 21.4051 36.8401ZM19.5835 35.9502C20.015 36.1648 20.7029 36.3601 21.4051 36.3601C22.0329 36.3601 22.5326 36.2209 22.8494 35.9584C23.2152 35.6612 23.4 35.2211 23.4 34.6494C23.4 33.7288 22.8917 33.3692 21.8904 32.9934C21.3614 32.7947 20.8872 32.5801 20.8872 32.1414C20.8872 31.8731 21.0763 31.5606 21.6077 31.5606C22.1309 31.5606 22.6267 31.718 22.9569 31.8539L23.1053 30.9136C22.7409 30.7566 22.2048 30.6001 21.5179 30.6001C20.952 30.6001 20.4763 30.7494 20.1427 31.0307C19.8067 31.3177 19.6353 31.7252 19.6353 32.2412C19.6353 33.1638 20.1777 33.5473 21.1142 33.8977C21.7334 34.1252 22.1405 34.3081 22.1405 34.7579C22.1405 35.0684 21.9216 35.4001 21.3081 35.4001C20.8665 35.4001 20.2315 35.235 19.7313 35.0022L19.5835 35.9502Z" fill="#1F212B"/>
<path d="M23.6399 22.44H23.1599C23.0274 22.44 22.9199 22.3324 22.9199 22.2C22.9199 22.0675 23.0274 21.96 23.1599 21.96H23.6399C23.7724 21.96 23.8799 22.0675 23.8799 22.2C23.8799 22.3324 23.7724 22.44 23.6399 22.44Z" fill="#1F212B"/>
<path d="M26.9998 22.44H25.0798C24.9474 22.44 24.8398 22.3324 24.8398 22.2C24.8398 22.0675 24.9474 21.96 25.0798 21.96H26.9998C27.1323 21.96 27.2398 22.0675 27.2398 22.2C27.2398 22.3324 27.1323 22.44 26.9998 22.44Z" fill="#1F212B"/>
<path d="M37.5602 44.0399H18.3602C17.1693 44.0399 16.2002 43.0707 16.2002 41.8799V36.5999C16.2002 36.4674 16.3077 36.3599 16.4402 36.3599C16.5727 36.3599 16.6802 36.4674 16.6802 36.5999V41.8799C16.6802 42.8063 17.4338 43.5599 18.3602 43.5599H37.5602C37.6927 43.5599 37.8002 43.6674 37.8002 43.7999C37.8002 43.9323 37.6927 44.0399 37.5602 44.0399Z" fill="#1F212B"/>
<path d="M49.5602 29.64C49.4277 29.64 49.3202 29.5324 49.3202 29.4V24.12C49.3202 23.1936 48.5666 22.44 47.6402 22.44H28.4402C28.3077 22.44 28.2002 22.3324 28.2002 22.2C28.2002 22.0675 28.3077 21.96 28.4402 21.96H47.6402C48.8311 21.96 49.8002 22.9291 49.8002 24.12V29.4C49.8002 29.5324 49.6927 29.64 49.5602 29.64Z" fill="#1F212B"/>
<path d="M44.2796 44.0401H43.7996C43.6671 44.0401 43.5596 43.9325 43.5596 43.8001C43.5596 43.6676 43.6671 43.5601 43.7996 43.5601H44.2796C44.4121 43.5601 44.5196 43.6676 44.5196 43.8001C44.5196 43.9325 44.4121 44.0401 44.2796 44.0401Z" fill="#1F212B"/>
<path d="M42.3597 44.0401H39.9597C39.8272 44.0401 39.7197 43.9325 39.7197 43.8001C39.7197 43.6676 39.8272 43.5601 39.9597 43.5601H42.3597C42.4922 43.5601 42.5997 43.6676 42.5997 43.8001C42.5997 43.9325 42.4922 44.0401 42.3597 44.0401Z" fill="#1F212B"/>
</svg>
