<svg width="70" height="70" viewBox="0 0 70 70" fill="none" xmlns="http://www.w3.org/2000/svg">
<circle cx="35" cy="35" r="35" fill="white"/>
<path d="M34.5454 47.2983C32.9545 47.2983 31.5376 47.0249 30.2947 46.478C29.0589 45.924 28.0823 45.1641 27.365 44.1982C26.6548 43.2251 26.289 42.103 26.2677 40.8317H30.9126C30.941 41.3643 31.115 41.8331 31.4346 42.2379C31.7613 42.6357 32.1945 42.9446 32.7343 43.1648C33.2741 43.3849 33.8813 43.495 34.5561 43.495C35.2592 43.495 35.8806 43.3707 36.4204 43.1222C36.9602 42.8736 37.3828 42.5291 37.6882 42.0888C37.9936 41.6484 38.1463 41.1406 38.1463 40.5653C38.1463 39.983 37.9829 39.468 37.6562 39.0206C37.3366 38.5661 36.8749 38.2109 36.2713 37.9553C35.6747 37.6996 34.9644 37.5717 34.1406 37.5717H32.1058V34.1839H34.1406C34.8366 34.1839 35.4509 34.0632 35.9836 33.8217C36.5234 33.5803 36.9424 33.2464 37.2407 32.8203C37.539 32.3871 37.6882 31.8828 37.6882 31.3075C37.6882 30.7607 37.5568 30.2812 37.294 29.8693C37.0383 29.4503 36.6761 29.1236 36.2073 28.8892C35.7457 28.6548 35.2059 28.5376 34.588 28.5376C33.963 28.5376 33.3913 28.6513 32.8728 28.8786C32.3544 29.0987 31.9389 29.4148 31.6264 29.8267C31.3139 30.2386 31.147 30.7216 31.1257 31.2756H26.7045C26.7258 30.0185 27.0845 28.9105 27.7805 27.9517C28.4765 26.9929 29.414 26.2436 30.593 25.7038C31.7791 25.157 33.1178 24.8835 34.6093 24.8835C36.115 24.8835 37.4325 25.157 38.5617 25.7038C39.691 26.2507 40.5681 26.9893 41.1931 27.9197C41.8252 28.843 42.1377 29.88 42.1306 31.0305C42.1377 32.2521 41.7578 33.2713 40.9907 34.0881C40.2308 34.9048 39.24 35.4233 38.0184 35.6435V35.8139C39.6235 36.0199 40.8451 36.5774 41.6832 37.4865C42.5284 38.3885 42.9474 39.5178 42.9403 40.8743C42.9474 42.1172 42.5887 43.2216 41.8643 44.1875C41.147 45.1534 40.1562 45.9134 38.892 46.4673C37.6278 47.0213 36.1789 47.2983 34.5454 47.2983Z" fill="#FF754C"/>
</svg>
