<svg width="160" height="160" viewBox="0 0 160 160" fill="none" xmlns="http://www.w3.org/2000/svg">
<path d="M32 42.24L38.9984 133.215C39.3824 138.217 43.5527 142.08 48.5696 142.08H111.431C116.448 142.08 120.618 138.217 121.002 133.215L128 42.24" fill="#FF9A7B"/>
<path d="M108.8 57.6V124.8C108.8 127.968 106.208 130.56 103.04 130.56C99.8716 130.56 97.2796 127.968 97.2796 124.8V57.6C97.2796 54.432 99.8716 51.84 103.04 51.84C106.208 51.84 108.8 54.432 108.8 57.6ZM85.7595 57.6V124.8C85.7595 127.968 83.1675 130.56 79.9995 130.56C76.8315 130.56 74.2395 127.968 74.2395 124.8V57.6C74.2395 54.432 76.8315 51.84 79.9995 51.84C83.1675 51.84 85.7595 54.432 85.7595 57.6ZM62.7195 57.6V124.8C62.7195 127.968 60.1275 130.56 56.9595 130.56C53.7915 130.56 51.1995 127.968 51.1995 124.8V57.6C51.1995 54.432 53.7915 51.84 56.9595 51.84C60.1275 51.84 62.7195 54.432 62.7195 57.6ZM131.84 30.72H124.16L120.636 24.8486C119.248 22.535 116.748 21.12 114.051 21.12H45.9483C43.2507 21.12 40.7508 22.535 39.3626 24.8486L35.8394 30.72H28.1594C24.978 30.72 22.3994 33.2986 22.3994 36.48C22.3994 39.6614 24.978 42.24 28.1594 42.24H131.84C135.021 42.24 137.6 39.6614 137.6 36.48C137.6 33.2986 135.021 30.72 131.84 30.72Z" fill="#FF754C"/>
<path d="M111.43 144H48.5688C42.5861 144 37.5403 139.327 37.0834 133.363L30.085 42.3879L33.9134 42.0923L40.9119 133.07C41.2171 137.046 44.581 140.16 48.5688 140.16H111.43C115.418 140.16 118.781 137.046 119.087 133.071L126.085 42.0923L129.914 42.3879L122.915 133.365C122.456 139.327 117.411 144 111.43 144ZM91.5193 23.0401C90.4595 23.0401 89.5993 22.1819 89.5993 21.1201V15.3601C89.5993 14.3003 88.7372 13.4401 87.6793 13.4401H72.3193C71.2614 13.4401 70.3993 14.3003 70.3993 15.3601V21.1201C70.3993 22.1819 69.5391 23.0401 68.4793 23.0401C67.4194 23.0401 66.5593 22.1819 66.5593 21.1201V15.3601C66.5593 12.1844 69.1436 9.6001 72.3193 9.6001H87.6793C90.855 9.6001 93.4393 12.1844 93.4393 15.3601V21.1201C93.4393 22.1819 92.5792 23.0401 91.5193 23.0401Z" fill="#1B1D21"/>
<path d="M131.84 44.1601H28.1595C23.924 44.1601 20.4795 40.7156 20.4795 36.4801C20.4795 32.2446 23.924 28.8001 28.1595 28.8001H34.7528L37.7154 23.8618C39.4395 20.9876 42.5941 19.2001 45.9483 19.2001H114.053C117.407 19.2001 120.56 20.9876 122.284 23.8618L125.246 28.8001H131.84C136.075 28.8001 139.52 32.2446 139.52 36.4801C139.52 40.7156 136.075 44.1601 131.84 44.1601ZM28.1595 32.6401C26.0417 32.6401 24.3195 34.3623 24.3195 36.4801C24.3195 38.5978 26.0417 40.3201 28.1595 40.3201H131.84C133.957 40.3201 135.68 38.5978 135.68 36.4801C135.68 34.3623 133.957 32.6401 131.84 32.6401H124.16C123.486 32.6401 122.86 32.2849 122.514 31.7089L118.991 25.8375C117.956 24.1134 116.063 23.0401 114.051 23.0401H45.9483C43.9362 23.0401 42.045 24.1134 41.0101 25.8375L37.4869 31.7089C37.1394 32.2849 36.5134 32.6401 35.8395 32.6401H28.1595Z" fill="#1B1D21"/>
<path d="M102.08 32.64H32.96C32.4301 32.64 32 32.2099 32 31.68C32 31.1501 32.4301 30.72 32.96 30.72H102.08C102.61 30.72 103.04 31.1501 103.04 31.68C103.04 32.2099 102.61 32.64 102.08 32.64ZM125.12 32.64H115.52C114.99 32.64 114.56 32.2099 114.56 31.68C114.56 31.1501 114.99 30.72 115.52 30.72H125.12C125.65 30.72 126.08 31.1501 126.08 31.68C126.08 32.2099 125.65 32.64 125.12 32.64ZM111.68 32.64H107.84C107.31 32.64 106.88 32.2099 106.88 31.68C106.88 31.1501 107.31 30.72 107.84 30.72H111.68C112.21 30.72 112.64 31.1501 112.64 31.68C112.64 32.2099 112.21 32.64 111.68 32.64ZM80.0001 130.56C76.8244 130.56 74.2401 127.976 74.2401 124.8V57.6C74.2401 54.4243 76.8244 51.84 80.0001 51.84C83.1758 51.84 85.7601 54.4243 85.7601 57.6V106.56C85.7601 107.09 85.33 107.52 84.8001 107.52C84.2702 107.52 83.8401 107.09 83.8401 106.56V57.6C83.8401 55.4822 82.1179 53.76 80.0001 53.76C77.8823 53.76 76.1601 55.4822 76.1601 57.6V124.8C76.1601 126.918 77.8823 128.64 80.0001 128.64C82.1179 128.64 83.8401 126.918 83.8401 124.8V118.08C83.8401 117.55 84.2702 117.12 84.8001 117.12C85.33 117.12 85.7601 117.55 85.7601 118.08V124.8C85.7601 127.976 83.1758 130.56 80.0001 130.56ZM103.04 130.56C99.8645 130.56 97.2801 127.976 97.2801 124.8V75.84C97.2801 75.3101 97.7102 74.88 98.2401 74.88C98.7701 74.88 99.2001 75.3101 99.2001 75.84V124.8C99.2001 126.918 100.922 128.64 103.04 128.64C105.158 128.64 106.88 126.918 106.88 124.8V57.6C106.88 55.4822 105.158 53.76 103.04 53.76C100.922 53.76 99.2001 55.4822 99.2001 57.6V60.48C99.2001 61.0099 98.7701 61.44 98.2401 61.44C97.7102 61.44 97.2801 61.0099 97.2801 60.48V57.6C97.2801 54.4243 99.8645 51.84 103.04 51.84C106.216 51.84 108.8 54.4243 108.8 57.6V124.8C108.8 127.976 106.216 130.56 103.04 130.56Z" fill="#1B1D21"/>
<path d="M98.2393 71.04C97.7094 71.04 97.2793 70.6099 97.2793 70.08V66.24C97.2793 65.71 97.7094 65.28 98.2393 65.28C98.7692 65.28 99.1993 65.71 99.1993 66.24V70.08C99.1993 70.6099 98.7692 71.04 98.2393 71.04ZM56.9592 130.56C53.7835 130.56 51.1992 127.976 51.1992 124.8V57.6C51.1992 54.4243 53.7835 51.84 56.9592 51.84C60.1349 51.84 62.7192 54.4243 62.7192 57.6V124.8C62.7192 127.976 60.1349 130.56 56.9592 130.56ZM56.9592 53.76C54.8415 53.76 53.1192 55.4822 53.1192 57.6V124.8C53.1192 126.918 54.8415 128.64 56.9592 128.64C59.077 128.64 60.7992 126.918 60.7992 124.8V57.6C60.7992 55.4822 59.077 53.76 56.9592 53.76Z" fill="#1B1D21"/>
</svg>
