<svg width="70" height="70" viewBox="0 0 70 70" fill="none" xmlns="http://www.w3.org/2000/svg">
<circle cx="35" cy="35" r="35" fill="white"/>
<path d="M26.9202 47V43.6761L34.6866 36.4851C35.3471 35.8459 35.901 35.2706 36.3485 34.7592C36.803 34.2479 37.1475 33.7472 37.3819 33.2571C37.6162 32.7599 37.7334 32.2237 37.7334 31.6484C37.7334 31.0092 37.5878 30.4588 37.2966 29.9972C37.0055 29.5284 36.6077 29.1697 36.1035 28.9212C35.5992 28.6655 35.0275 28.5376 34.3883 28.5376C33.7207 28.5376 33.1383 28.6726 32.6411 28.9425C32.1439 29.2124 31.7604 29.5994 31.4905 30.1037C31.2207 30.608 31.0857 31.2081 31.0857 31.9041H26.7072C26.7072 30.4766 27.0303 29.2372 27.6766 28.1861C28.3229 27.1349 29.2285 26.3217 30.3932 25.7464C31.558 25.1712 32.9003 24.8835 34.4202 24.8835C35.9827 24.8835 37.3428 25.1605 38.5005 25.7145C39.6653 26.2614 40.5708 27.0213 41.2171 27.9943C41.8634 28.9673 42.1866 30.0824 42.1866 31.3395C42.1866 32.1634 42.0232 32.9766 41.6965 33.7791C41.3769 34.5817 40.8052 35.473 39.9813 36.4531C39.1574 37.4261 37.9962 38.5945 36.4976 39.9581L33.3123 43.0795V43.2287H42.4742V47H26.9202Z" fill="#FF754C"/>
</svg>
