<svg width="21" height="21" viewBox="0 0 21 21" fill="none" xmlns="http://www.w3.org/2000/svg">
<path d="M8.95679 2.1875C8.25897 2.1875 7.60766 2.56175 7.25635 3.16418L6.29504 4.8125H4.59375C3.02575 4.8125 1.75 6.08825 1.75 7.65625V15.9688C1.75 17.5368 3.02575 18.8125 4.59375 18.8125H16.4062C17.9743 18.8125 19.25 17.5368 19.25 15.9688V7.65625C19.25 6.08825 17.9743 4.8125 16.4062 4.8125H14.705L13.7437 3.16418C13.3923 2.56175 12.741 2.1875 12.0432 2.1875H8.95679ZM10.5 7.4375C12.6709 7.4375 14.4375 9.20369 14.4375 11.375C14.4375 13.5463 12.6709 15.3125 10.5 15.3125C8.32912 15.3125 6.5625 13.5463 6.5625 11.375C6.5625 9.20369 8.32912 7.4375 10.5 7.4375ZM10.5 8.75C9.80381 8.75 9.13613 9.02656 8.64384 9.51885C8.15156 10.0111 7.875 10.6788 7.875 11.375C7.875 12.0712 8.15156 12.7389 8.64384 13.2312C9.13613 13.7234 9.80381 14 10.5 14C11.1962 14 11.8639 13.7234 12.3562 13.2312C12.8484 12.7389 13.125 12.0712 13.125 11.375C13.125 10.6788 12.8484 10.0111 12.3562 9.51885C11.8639 9.02656 11.1962 8.75 10.5 8.75Z" fill="white"/>
</svg>
