<svg width="17" height="17" viewBox="0 0 17 17" fill="none" xmlns="http://www.w3.org/2000/svg">
<path d="M9.91211 4.98438V11.9844H7.91211V4.98438H4.91211L8.91211 0.984375L12.9121 4.98438H9.91211Z" fill="white"/>
<path d="M15.9117 16.9844H1.91166C1.62466 16.9844 1.35166 16.8614 1.16166 16.6464C0.971664 16.4314 0.883664 16.1454 0.918664 15.8604L1.91866 7.86037C1.98166 7.35938 2.40766 6.98438 2.91166 6.98438H5.91166V8.98438H3.79466L3.04466 14.9844H14.7787L14.0287 8.98438H11.9117V6.98438H14.9117C15.4157 6.98438 15.8417 7.35938 15.9037 7.86037L16.9037 15.8604C16.9397 16.1454 16.8507 16.4314 16.6607 16.6464C16.4717 16.8614 16.1987 16.9844 15.9117 16.9844Z" fill="white"/>
</svg>
