<svg width="56" height="56" viewBox="0 0 56 56" fill="none" xmlns="http://www.w3.org/2000/svg">
<rect width="56" height="56" rx="16" fill="#FF754C" fill-opacity="0.15"/>
<path fill-rule="evenodd" clip-rule="evenodd" d="M25.6667 26.8333C28.244 26.8333 30.3333 24.744 30.3333 22.1667C30.3333 19.5893 28.244 17.5 25.6667 17.5C23.0893 17.5 21 19.5893 21 22.1667C21 24.744 23.0893 26.8333 25.6667 26.8333ZM25.6667 38.5C30.177 38.5 33.8333 36.4107 33.8333 33.8333C33.8333 31.256 30.177 29.1667 25.6667 29.1667C21.1563 29.1667 17.5 31.256 17.5 33.8333C17.5 36.4107 21.1563 38.5 25.6667 38.5ZM30.2883 26.618C31.3998 25.4643 32.0833 23.8953 32.0833 22.1668C32.0833 21.3447 31.9288 20.5588 31.6471 19.8365C33.5118 19.9136 34.9999 21.4497 34.9999 23.3334C34.9999 25.2664 33.4329 26.8334 31.4999 26.8334C31.074 26.8334 30.6659 26.7573 30.2883 26.618ZM35.5832 33.8333C35.5832 34.4619 35.4435 35.0694 35.1831 35.6435C37.174 35.0264 38.4999 33.9239 38.4999 32.6666C38.4999 30.9094 35.9099 29.4546 32.5345 29.2045C34.4136 30.3722 35.5832 32.0144 35.5832 33.8333Z" fill="#FF754C"/>
</svg>
