<svg width="25" height="24" viewBox="0 0 25 24" fill="none" xmlns="http://www.w3.org/2000/svg">
<path fill-rule="evenodd" clip-rule="evenodd" d="M14.3335 7C14.3335 9.20914 12.5426 11 10.3335 11C8.12436 11 6.3335 9.20914 6.3335 7C6.3335 4.79086 8.12436 3 10.3335 3C12.5426 3 14.3335 4.79086 14.3335 7ZM17.3335 17C17.3335 19.2091 14.1995 21 10.3335 21C6.4675 21 3.3335 19.2091 3.3335 17C3.3335 14.7909 6.4675 13 10.3335 13C14.1995 13 17.3335 14.7909 17.3335 17ZM18.3335 12.75C17.9193 12.75 17.5835 12.4142 17.5835 12V10.75H16.3335C15.9193 10.75 15.5835 10.4142 15.5835 10C15.5835 9.58579 15.9193 9.25 16.3335 9.25H17.5835V8C17.5835 7.58579 17.9193 7.25 18.3335 7.25C18.7477 7.25 19.0835 7.58579 19.0835 8V9.25H20.3335C20.7477 9.25 21.0835 9.58579 21.0835 10C21.0835 10.4142 20.7477 10.75 20.3335 10.75H19.0835V12C19.0835 12.4142 18.7477 12.75 18.3335 12.75Z" fill="white"/>
</svg>
