<svg width="18" height="18" viewBox="0 0 18 18" fill="none" xmlns="http://www.w3.org/2000/svg">
<path fill-rule="evenodd" clip-rule="evenodd" d="M0.692308 0C0.309957 0 0 0.309957 0 0.692308C0 1.07466 0.309957 1.38462 0.692308 1.38462H1.61538C9.89965 1.38462 16.6154 8.10034 16.6154 16.3846V17.3077C16.6154 17.69 16.9253 18 17.3077 18C17.69 18 18 17.69 18 17.3077V16.3846C18 7.33564 10.6644 0 1.61538 0H0.692308ZM0 4.38461C0 4.00226 0.309957 3.69231 0.692308 3.69231H1.61538C8.62515 3.69231 14.3077 9.37485 14.3077 16.3846V17.3077C14.3077 17.69 13.9977 18 13.6154 18C13.233 18 12.9231 17.69 12.9231 17.3077V16.3846C12.9231 10.1395 7.86045 5.07692 1.61538 5.07692H0.692308C0.309957 5.07692 0 4.76697 0 4.38461ZM0.692308 7.38461C0.309957 7.38461 0 7.69457 0 8.07692C0 8.45927 0.309957 8.76923 0.692308 8.76923H1.61538C5.82124 8.76923 9.23077 12.1788 9.23077 16.3846V17.3077C9.23077 17.69 9.54072 18 9.92307 18C10.3054 18 10.6154 17.69 10.6154 17.3077V16.3846C10.6154 11.4141 6.58595 7.38461 1.61538 7.38461H0.692308ZM3 17.3077C4.2745 17.3077 5.30769 16.2745 5.30769 15C5.30769 13.7255 4.2745 12.6923 3 12.6923C1.7255 12.6923 0.692308 13.7255 0.692308 15C0.692308 16.2745 1.7255 17.3077 3 17.3077Z" fill="#808191"/>
</svg>
